<svg width="109" height="109" viewBox="0 0 109 109" fill="none" xmlns="http://www.w3.org/2000/svg">
<g opacity="0.17">
<path d="M54.238 103.267C40.4052 103.267 18.074 101.01 18.074 97.6526C18.074 94.7973 33.7299 94.0835 42.0643 95.3665C46.8682 96.1092 50.5145 96.7845 54.238 96.7845" fill="black"/>
<path d="M54.2379 103.267C68.0707 103.267 90.4019 101.01 90.4019 97.6526C90.4019 94.7973 74.746 94.0835 66.4115 95.3665C61.6077 96.1092 57.9614 96.7845 54.2379 96.7845" fill="black"/>
</g>
<path d="M88.6366 71.1351V53.9357H86.1093V49.7203H85.5691V48.3119L84.1511 47.299H81.2958H78.4309L77.0129 48.3119V49.7203H76.4727V53.9357H73.9453V60.6881C73.5112 60.4855 73.0772 60.283 72.6431 60.09L72.9807 51.5048L72.537 48.4566L72.9807 45.4469L72.537 42.3987L72.9807 38.8682L72.537 35.2122L72.9807 30.3794L72.537 24.3312H69.3344L68.7846 30.3794L69.2379 35.2122H67.3473L67.8103 38.8682L67.3473 42.3987H64.9453L64.6174 45.4469L64.9453 48.4566L64.328 51.5048H62.0514L61.2894 56.4534C61 56.3955 60.701 56.3376 60.4116 56.2894V46.9228H58.955V28.9228H57.0161V16.7203H55.3569L55.2508 11.0868H55.1543L55.0386 6.76527H54.7685L54.6527 11.0868H54.5466L54.4405 16.7203H52.2604L52.1447 10.7203H52.0482L51.9228 5H51.6527L51.5273 10.7203H51.4309L51.3151 16.7203H49.7042V30.2733V46.9325H46.8489V56.5016C46.5498 56.5595 46.2508 56.627 45.9518 56.6945L44.6109 33.4469H43.0193L42.9228 30.4566H42.8167L42.701 23.5402H42.4212L42.3055 30.4566H42.1994L42.1029 33.4469H39.7395L39.6527 30.7267H39.5466L39.4309 23.8103H39.1608L39.045 30.7267H38.9389L38.8521 33.4469H37.1543L35.6302 60.1286C35.3891 60.2347 35.1479 60.3408 34.9068 60.4566V48.3794L28.2701 42.0129V48.3794H27.8553H27.4405V42.0129L20.8039 48.3794V70.0161C16.1061 74.7235 13 80.3666 13 86.5884C13 101.772 30.836 105.572 40.328 98.7331C45.7974 94.7974 49.955 91.1897 54.1897 91.1897C58.4244 91.1897 62.582 94.7974 68.0514 98.7331C77.5434 105.563 95.3794 101.772 95.3794 86.5884C95.3601 80.8489 92.7267 75.6109 88.6366 71.1351Z" fill="#41B6E6"/>
<path opacity="0.31" d="M94.2701 79.5949C94.2701 79.5949 94.8971 83.328 94.135 85.2091C93.373 87.0901 92.5241 87.775 90.672 87.2734C88.8199 86.7718 88.0579 84.0033 81.4212 80.0579C74.7749 76.1126 64.9743 71.6753 54.3151 71.6753C43.6559 71.6753 33.8457 76.1126 27.209 80.0579C20.5627 84.0033 19.8103 86.7718 17.9582 87.2734C16.1061 87.775 15.2572 87.0901 14.4952 85.2091C13.7331 83.328 14.3601 79.5949 14.3601 79.5949C10.9936 92.2026 16.3955 94.9325 18.9518 97.1608C21.508 99.3891 27.9228 100.846 35.7556 94.8264C43.5884 88.8071 54.3248 89.1351 54.3248 89.1351C54.3248 89.1351 65.0611 88.8168 72.8939 94.8264C80.7267 100.836 87.1415 99.3891 89.6977 97.1608C92.254 94.9325 97.6463 92.2026 94.2701 79.5949Z" fill="white"/>
<path opacity="0.42" d="M83.2733 78.9871C73.9453 71.2025 65.3698 67.8263 54.1994 67.9806C43.0289 67.8263 34.4437 71.2025 25.1158 78.9871C17.2733 85.5466 14.1093 92.6559 21.3248 96.8327C24.7685 98.8295 32.1093 96.2539 37.5016 92.3183C42.8553 88.4115 45.2379 87.7652 54.1994 87.7652C63.1608 87.7652 65.5434 88.4115 70.8971 92.3183C76.2894 96.2539 83.6206 98.8295 87.074 96.8327C94.2894 92.6559 91.1254 85.5466 83.2733 78.9871Z" fill="white"/>
<path d="M40.3376 69.1189L45.2283 90.3986L38.6013 94.016L31.2026 83.5498L35.9678 95.0385L28.9357 99.2154L16.0096 86.9646L20.2154 81.7363L28.4244 88.8649L24.074 78.9099L29.9582 74.4147L37.1929 83.1639L33.6817 72.5337L40.3376 69.1189Z" fill="#41B6E6"/>
<path d="M66.4888 76.7491L58.2702 76.7588C58.2702 76.7588 58.4727 72.8134 54.9036 72.8134C54.9036 72.8134 51.5949 72.1864 51.5949 76.3826V79.5658C51.5949 83.7523 54.9422 83.4919 54.9422 83.4919C58.029 83.4919 58.3763 81.4372 58.3763 79.2186C58.4727 79.1318 66.4888 79.2186 66.4888 79.2186C66.4888 85.0256 64.656 90.0031 55.1062 90.0031C44.775 90.0031 44.0901 83.7523 44.0901 80.0481V74.4919C44.0901 68.1543 47.8329 65.7041 54.0547 65.7041C63.7782 65.7041 66.4888 69.4083 66.4888 76.7491Z" fill="#41B6E6"/>
<path d="M71.9678 70.1125L80.9292 73.9036C83.1575 75.1383 85.8392 76.8553 87.0932 80.9936C87.7974 83.299 88.5016 87.9196 86.2636 91.9807C83.8038 96.4373 79.0675 97.5563 74.717 95.6849L64.0675 91.5756L71.9678 70.1125ZM76.1157 80.164L73.164 87.2637C73.164 87.2637 78.3344 91.672 80.7653 87.1962C83.5723 82.0257 76.8489 80.4534 76.1157 80.164Z" fill="#41B6E6"/>
<path d="M29.7556 28.9421C29.7749 28.8842 29.7846 28.8649 29.7942 28.8456C30.0064 28.0642 30.2186 27.2732 30.4309 26.4919C30.6238 25.7588 30.8264 25.0257 31.0193 24.3022C31.0386 24.2347 31.0579 24.2154 31.135 24.2347C31.3473 24.2925 31.5691 24.3504 31.7813 24.4083C32.9389 24.717 34.0964 25.0257 35.254 25.3343C35.418 25.3826 35.582 25.4212 35.7556 25.4597C35.7653 25.4501 35.7653 25.4405 35.7749 25.4308C34.627 24.2829 33.4887 23.1446 32.3215 21.9774C33.4791 20.8199 34.627 19.6816 35.7846 18.5241C35.7363 18.5337 35.7074 18.5433 35.6784 18.5433C34.8392 18.7652 34 18.9967 33.1511 19.2186C32.4855 19.3922 31.8296 19.5755 31.164 19.7588C31.0772 19.7781 31.0482 19.7588 31.0193 19.672C30.9228 19.2958 30.8167 18.9196 30.7202 18.5433C30.4212 17.434 30.1222 16.3343 29.8231 15.225C29.8135 15.1768 29.7942 15.1286 29.7846 15.0803C29.7556 15.1189 29.7363 15.1575 29.7267 15.1961C29.582 15.7459 29.4373 16.2861 29.2829 16.8359C29.0321 17.7716 28.7813 18.7073 28.5305 19.643C28.4919 19.7877 28.4919 19.7877 28.3473 19.7491C27.8167 19.6044 27.2765 19.4597 26.7363 19.315C25.8006 19.0642 24.8649 18.8134 23.9389 18.5626C23.8907 18.553 23.8424 18.5433 23.7653 18.5337C23.8038 18.5819 23.8231 18.6012 23.8424 18.6205C24.1029 18.881 24.3633 19.1414 24.6238 19.4115C25.463 20.2507 26.3119 21.0996 27.1511 21.9388C27.209 21.9967 27.1993 22.0257 27.1511 22.0739C27.0546 22.1607 26.9678 22.2572 26.881 22.344C25.8682 23.3568 24.8649 24.3601 23.8521 25.3729C23.8231 25.4019 23.8038 25.4308 23.7653 25.4694C23.8231 25.4597 23.8521 25.4597 23.881 25.4501C24.6238 25.2572 25.3665 25.0546 26.1093 24.852C26.8617 24.6495 27.6045 24.4469 28.3569 24.2443C28.5112 24.2057 28.5112 24.2057 28.5498 24.3601C28.6173 24.6302 28.6945 24.8906 28.762 25.1607C29.0418 26.2025 29.3215 27.2443 29.6013 28.2861C29.6302 28.4983 29.6881 28.7105 29.7556 28.9421Z" fill="#ED2124"/>
<path opacity="0.07" d="M87.0257 81.2829C73.3569 69.8906 62.8713 67.778 54.7877 67.9517C46.7138 67.778 36.2186 69.9002 22.5594 81.2829C15.7974 86.9163 13.8488 90.8134 21.7106 90.196C25.463 89.9067 32.6012 86.5497 37.598 83.27C42.5562 80.0096 46.3279 75.9967 54.7877 76.1703C63.2475 75.987 67.0192 80.0096 71.9774 83.27C76.9742 86.5497 84.1125 89.9067 87.8649 90.196C95.7266 90.8038 93.7781 86.9163 87.0257 81.2829Z" fill="white"/>
<path opacity="0.19" d="M86.881 69.7557C73.0964 57.1769 59.3022 55.73 54.2475 55.73C40.5884 55.73 26.0128 64.8843 21.4212 69.4663C11.1093 79.7879 28.0289 64.0547 45.1414 61.4213C50.0803 60.6592 54.2475 60.6592 54.2475 60.6592C54.2475 60.6592 58.4244 60.6592 63.3537 61.4213C80.4662 64.0547 97.6559 79.5949 86.881 69.7557Z" fill="white"/>
<g opacity="0.29">
<mask id="mask0_402_260" style="mask-type:luminance" maskUnits="userSpaceOnUse" x="13" y="56" width="42" height="46">
<path d="M54.2861 56.0771C39.4308 56.0771 13.0964 68.0964 13.0964 85.9325C13.0964 101.116 30.9324 104.916 40.4244 98.0772C45.8939 94.1415 50.0514 90.5337 54.2861 90.5337" fill="white"/>
</mask>
<g mask="url(#mask0_402_260)">
<path d="M29.9196 71.1254C29.9388 71.0675 29.9485 71.0482 29.9581 71.0289C30.1704 70.2476 30.3826 69.4566 30.5948 68.6752C30.7877 67.9421 30.9903 67.209 31.1832 66.4855C31.2025 66.418 31.2218 66.3987 31.299 66.418C31.5112 66.4759 31.7331 66.5338 31.9453 66.5916C33.1028 66.9003 34.2604 67.209 35.4179 67.5177C35.5819 67.5659 35.7459 67.6045 35.9196 67.6431C35.9292 67.6334 35.9292 67.6238 35.9388 67.6142C34.7909 66.4662 33.6527 65.328 32.4855 64.1608C33.643 63.0032 34.7909 61.865 35.9485 60.7074C35.9003 60.717 35.8713 60.7267 35.8424 60.7267C35.0032 60.9486 34.1639 61.1801 33.3151 61.4019C32.6495 61.5756 31.9935 61.7588 31.3279 61.9421C31.2411 61.9614 31.2122 61.9421 31.1832 61.8553C31.0868 61.4791 30.9806 61.1029 30.8842 60.7267C30.5851 59.6174 30.2861 58.5177 29.9871 57.4084C29.9774 57.3601 29.9581 57.3119 29.9485 57.2637C29.9196 57.3023 29.9003 57.3408 29.8906 57.3794C29.7459 57.9293 29.6012 58.4695 29.4469 59.0193C29.1961 59.955 28.9453 60.8907 28.6945 61.8264C28.6559 61.9711 28.6559 61.9711 28.5112 61.9325C27.9806 61.7878 27.4405 61.6431 26.9003 61.4984C25.9646 61.2476 25.0289 60.9968 24.1028 60.746C24.0546 60.7363 24.0064 60.7267 23.9292 60.717C23.9678 60.7653 23.9871 60.7846 24.0064 60.8039C24.2668 61.0643 24.5273 61.3248 24.7877 61.5949C25.6269 62.4341 26.4758 63.283 27.3151 64.1222C27.3729 64.1801 27.3633 64.209 27.3151 64.2572C27.2186 64.3441 27.1318 64.4405 27.045 64.5273C26.0321 65.5402 25.0289 66.5434 24.016 67.5563C23.9871 67.5852 23.9678 67.6141 23.9292 67.6527C23.9871 67.6431 24.016 67.6431 24.045 67.6334C24.7877 67.4405 25.5305 67.2379 26.2733 67.0354C27.0257 66.8328 27.7684 66.6302 28.5208 66.4277C28.6752 66.3891 28.6752 66.3891 28.7138 66.5434C28.7813 66.8135 28.8585 67.074 28.926 67.3441C29.2057 68.3859 29.4855 69.4277 29.7652 70.4695C29.7942 70.6817 29.852 70.8842 29.9196 71.1254Z" fill="#ED2124"/>
</g>
</g>
</svg>
