<?xml version="1.0" standalone="no"?>
<!DOCTYPE svg PUBLIC "-//W3C//DTD SVG 20010904//EN"
 "http://www.w3.org/TR/2001/REC-SVG-20010904/DTD/svg10.dtd">
<svg version="1.0" xmlns="http://www.w3.org/2000/svg"
 width="700.000000pt" height="700.000000pt" viewBox="0 0 700.000000 700.000000"
 preserveAspectRatio="xMidYMid meet">
<metadata>
Created by potrace 1.14, written by Peter Selinger 2001-2017
</metadata>
<g transform="translate(0.000000,700.000000) scale(0.100000,-0.100000)"
fill="#000000" stroke="none">
<path d="M3329 6766 c-2 -2 -40 -7 -84 -10 -44 -4 -87 -9 -95 -11 -8 -2 -35
-7 -60 -10 -344 -45 -796 -204 -1107 -391 -86 -51 -269 -173 -299 -197 -10 -9
-37 -30 -59 -47 -192 -151 -408 -370 -561 -570 -291 -378 -515 -883 -589
-1320 -3 -19 -8 -42 -10 -50 -2 -8 -7 -37 -10 -65 -4 -27 -11 -77 -17 -110 -7
-40 -12 -663 -15 -1902 l-4 -1843 3093 0 3093 0 -1 1853 c0 1018 -4 1877 -8
1907 -3 30 -9 78 -12 105 -36 344 -173 768 -351 1089 -52 94 -197 325 -212
336 -3 3 -20 23 -36 45 -231 310 -585 618 -938 814 -236 132 -578 264 -787
305 -14 2 -70 14 -126 25 -55 11 -127 23 -160 26 -32 3 -70 9 -84 12 -28 6
-555 15 -561 9z m486 -150 c44 -4 91 -9 105 -11 14 -2 45 -7 70 -10 392 -53
830 -220 1175 -450 209 -140 435 -339 596 -525 52 -60 191 -243 214 -281 6
-10 37 -61 71 -116 142 -231 270 -539 334 -808 31 -129 29 -121 56 -305 12
-79 17 -222 21 -585 l4 -480 -43 85 c-59 117 -100 174 -180 252 -118 115 -236
160 -408 154 -111 -4 -161 -18 -460 -125 -148 -54 -333 -116 -390 -132 -62
-17 -62 -17 -87 -23 -13 -3 -33 -9 -45 -12 -225 -56 -495 -62 -684 -14 -383
98 -701 348 -1067 840 -72 96 -153 202 -181 235 -59 70 -221 234 -286 288 -58
49 -245 177 -258 177 -6 0 -12 4 -14 8 -9 22 -263 130 -380 161 -40 11 -80 22
-88 24 -8 3 -33 8 -55 11 -22 3 -51 8 -65 10 -101 21 -398 21 -495 1 -11 -2
-42 -7 -70 -11 -57 -7 -212 -46 -291 -73 -30 -10 -54 -15 -54 -12 0 20 101
200 188 336 360 560 940 1018 1567 1235 106 37 202 66 241 75 11 2 51 11 89
20 39 9 81 19 95 21 14 2 52 9 85 14 81 14 113 18 230 26 55 3 101 7 102 8 6
5 287 -2 358 -8z"/>
<path d="M4498 5925 c-2 -2 -29 -6 -60 -9 -152 -15 -328 -87 -448 -184 -106
-85 -217 -225 -261 -329 -11 -26 -24 -57 -29 -68 -13 -27 -37 -129 -46 -190
-75 -521 330 -1004 856 -1020 258 -7 475 75 659 249 251 240 339 596 230 935
-95 298 -362 534 -674 595 -70 14 -220 27 -227 21z"/>
</g>
</svg>
