<svg width="1695" height="933" viewBox="0 0 1695 933" fill="none" xmlns="http://www.w3.org/2000/svg">
    <g opacity="0.17">
        <path
            d="M234.193 558.064C155.636 558.064 28.8154 545.245 28.8154 526.181C28.8154 509.965 117.727 505.912 165.058 513.198C192.34 517.416 213.047 521.251 234.193 521.251"
            fill="black" />
        <path
            d="M234.193 558.064C312.75 558.064 439.571 545.245 439.571 526.181C439.571 509.965 350.66 505.912 303.328 513.198C276.047 517.416 255.339 521.251 234.193 521.251"
            fill="black" />
    </g>
    <path
        d="M429.546 375.585V277.909H415.193V253.969H412.125V245.971L404.072 240.219H387.857H371.586L363.533 245.971V253.969H360.466V277.909H346.113V316.256C343.647 315.106 341.182 313.956 338.717 312.86L340.634 264.104L338.115 246.793L340.634 229.701L338.115 212.39L340.634 192.34L338.115 171.577L340.634 144.131L338.115 109.783H319.927L316.804 144.131L319.379 171.577H308.642L311.271 192.34L308.642 212.39H295.001L293.138 229.701L295.001 246.793L291.495 264.104H278.566L274.239 292.207C272.595 291.878 270.897 291.55 269.254 291.276V238.083H260.981V135.859H249.97V66.5601H240.548L239.945 34.5674H239.397L238.74 10.0251H237.206L236.549 34.5674H235.946L235.343 66.5601H222.963L222.305 32.4857H221.758L221.045 0H219.511L218.799 32.4857H218.251L217.594 66.5601H208.446V143.529V238.137H192.23V292.481C190.532 292.81 188.834 293.193 187.135 293.577L179.521 161.552H170.482L169.934 144.57H169.331L168.674 105.291H167.085L166.428 144.57H165.825L165.277 161.552H151.856L151.363 146.104H150.76L150.103 106.825H148.569L147.911 146.104H147.309L146.816 161.552H137.174L128.519 313.079C127.149 313.682 125.779 314.284 124.41 314.942V246.355L86.7199 210.199V246.355H84.3643H82.0087V210.199L44.3186 246.355V369.231C17.6398 395.964 0 428.012 0 463.346C0 549.573 101.292 571.157 155.197 532.317C186.259 509.966 209.87 489.477 233.919 489.477C257.968 489.477 281.58 509.966 312.641 532.317C366.546 571.102 467.838 549.573 467.838 463.346C467.729 430.751 452.773 401.004 429.546 375.585Z"
        fill="#41B6E6" />
    <path opacity="0.43"
        d="M469.317 343.483C469.317 343.483 991.171 331.376 1044.58 327.487C1125.39 321.516 1202.57 313.517 1237.96 309.628C1273.35 305.738 1373.28 295.604 1415.73 236.494C1444.16 196.941 1451.56 122.602 1409.1 70.2853C1384.61 40.1552 1352.46 24.9258 1352.46 24.9258C1352.46 24.9258 1384.61 25.4736 1416.5 54.8915C1453.37 88.9659 1469.25 117.343 1469.2 159.635C1469.25 217.43 1460.87 248.655 1415.02 287.605C1386.09 312.203 1304.69 341.018 1184.61 342.387C1079.48 343.538 469.317 343.483 469.317 343.483Z"
        fill="#41B6E6" />
    <path opacity="0.52"
        d="M1288.69 360.356C1288.69 360.356 1368.89 355.809 1448.44 340.196C1527.98 324.584 1600.68 284.319 1624.07 264.269C1647.46 244.164 1657.87 220.06 1657.54 194.531C1657.1 157.553 1633.82 150.925 1615.03 154.102C1594.59 157.608 1588.19 171.03 1587.75 201.214C1587.75 201.214 1575.42 191.847 1581.45 156.841C1587.47 121.945 1619.03 117.343 1629.27 117.343C1649.92 117.343 1686.41 122.219 1693.75 180.397C1701.64 242.794 1670.58 264.542 1645.98 286.784C1621.33 309.025 1543.21 358.165 1445.53 359.534C1381.22 360.521 1333.89 363.534 1288.69 360.356Z"
        fill="#41B6E6" />
    <path opacity="0.52"
        d="M205.104 345.674C205.104 345.674 828.688 363.643 991.829 368.573C1166.36 373.832 1382.15 360.52 1375.47 360.904C1375.47 360.904 1174.03 349.454 1058.17 347.537C942.306 345.62 205.104 345.674 205.104 345.674Z"
        fill="#41B6E6" />
    <path opacity="0.3"
        d="M458.471 354.166C458.471 354.166 973.202 403.798 1078 410.317C1154.91 415.083 1350.65 414.864 1366.92 418.37C1383.19 421.876 1455.78 426.533 1468.98 469.098C1482.13 511.664 1468.38 542.725 1453.37 556.475C1453.37 556.475 1495.33 545.464 1488.92 470.358C1483.66 408.619 1456.43 397.608 1431.67 385.665C1417.37 378.763 1367.14 368.683 1315.37 376.352C1264.59 383.857 1182.63 382.926 1113.5 380.023C863.091 369.395 458.471 354.166 458.471 354.166Z"
        fill="#41B6E6" />
    <path opacity="0.52"
        d="M1161.49 349.783C1161.49 349.783 1349.99 339.045 1396.89 330.992C1443.83 322.885 1487.39 305.628 1501.57 297.356C1512.37 291.056 1523.54 279.497 1522.88 270.897C1521.79 256.325 1510.23 255.119 1499.11 255.667C1487.61 256.27 1479.5 262.515 1480.48 272.869C1480.48 272.869 1471.44 270.678 1475.94 257.201C1480.43 243.725 1502.73 240.219 1508.31 241.314C1513.9 242.355 1533.4 242.574 1536.25 264.98C1539.26 288.536 1528.8 295.439 1513.79 304.588C1498.84 313.736 1451.23 329.623 1394.59 338.443C1321.67 349.783 1187.84 349.783 1161.49 349.783Z"
        fill="#41B6E6" />
    <path opacity="0.52"
        d="M1316.03 367.916C1316.03 367.916 1492.43 365.286 1536.64 370.162C1580.84 375.038 1622.37 389.445 1636.06 396.841C1646.47 402.483 1657.76 409.989 1657.32 422.26C1656.83 436.01 1646.31 439.187 1635.9 439.406C1625.16 439.626 1619.08 436.996 1617.66 423.246C1617.66 423.246 1612.07 426.368 1615.63 440.283C1619.08 453.705 1636.67 455.184 1645.27 453.321C1650.53 452.225 1668.61 450.253 1670.14 427.245C1671.73 403.086 1661.59 396.786 1647.13 388.624C1632.67 380.461 1587.47 367.642 1534.17 362.712C1465.42 356.412 1340.57 365.999 1316.03 367.916Z"
        fill="#41B6E6" />
    <path opacity="0.31"
        d="M461.538 423.629C461.538 423.629 465.099 444.83 460.771 455.512C456.444 466.195 451.623 470.084 441.105 467.236C430.587 464.387 426.259 448.665 388.569 426.259C350.824 403.853 295.165 378.653 234.631 378.653C174.097 378.653 118.384 403.853 80.694 426.259C42.9492 448.665 38.6762 464.387 28.158 467.236C17.6399 470.084 12.8191 466.195 8.49129 455.512C4.16351 444.83 7.72434 423.629 7.72434 423.629C-11.3946 495.229 19.2833 510.733 33.8006 523.387C48.3178 536.042 84.7478 544.314 129.231 510.13C173.714 475.946 234.686 477.809 234.686 477.809C234.686 477.809 295.659 476.001 340.142 510.13C384.625 544.259 421.055 536.042 435.572 523.387C450.089 510.733 480.712 495.229 461.538 423.629Z"
        fill="white" />
    <path opacity="0.42"
        d="M399.087 420.178C346.113 375.969 297.412 356.795 233.974 357.672C170.536 356.795 121.78 375.969 68.8062 420.178C24.2684 457.43 6.29995 497.804 47.2769 521.525C66.8341 532.865 108.523 518.238 139.146 495.887C169.55 473.7 183.081 470.03 233.974 470.03C284.866 470.03 298.398 473.7 328.802 495.887C359.425 518.238 401.059 532.865 420.671 521.525C461.648 497.804 443.679 457.43 399.087 420.178Z"
        fill="white" />
    <path
        d="M155.252 364.136L183.027 484.985L145.391 505.529L103.374 446.09L130.436 511.335L90.4999 535.056L17.092 465.483L40.977 435.791L87.5965 476.275L62.8898 419.74L96.3068 394.212L137.393 443.899L117.453 383.529L155.252 364.136Z"
        fill="#41B6E6" />
    <path
        d="M303.766 407.469L257.092 407.523C257.092 407.523 258.242 385.117 237.973 385.117C237.973 385.117 219.183 381.557 219.183 405.387V423.465C219.183 447.24 238.192 445.761 238.192 445.761C255.722 445.761 257.694 434.093 257.694 421.493C258.242 421 303.766 421.493 303.766 421.493C303.766 454.471 293.357 482.739 239.123 482.739C180.452 482.739 176.562 447.24 176.562 426.204V394.65C176.562 358.658 197.818 344.743 233.152 344.743C288.372 344.743 303.766 365.779 303.766 407.469Z"
        fill="#41B6E6" />
    <path
        d="M334.882 369.778L385.775 391.308C398.429 398.32 413.659 408.071 420.78 431.572C424.78 444.665 428.779 470.906 416.069 493.969C402.1 519.278 375.202 525.633 350.495 515.005L290.016 491.668L334.882 369.778ZM358.439 426.861L341.675 467.181C341.675 467.181 371.038 492.216 384.844 466.797C400.785 437.434 362.602 428.505 358.439 426.861Z"
        fill="#41B6E6" />
    <path
        d="M95.1563 135.969C95.2659 135.64 95.3207 135.531 95.3755 135.421C96.5807 130.984 97.7859 126.492 98.9911 122.054C100.087 117.891 101.237 113.727 102.333 109.619C102.442 109.235 102.552 109.126 102.99 109.235C104.195 109.564 105.455 109.893 106.661 110.221C113.234 111.974 119.808 113.727 126.382 115.48C127.313 115.754 128.245 115.973 129.231 116.193C129.286 116.138 129.286 116.083 129.34 116.028C122.821 109.509 116.357 103.045 109.728 96.4162C116.302 89.8424 122.821 83.3781 129.395 76.8042C129.121 76.859 128.957 76.9138 128.792 76.9138C124.026 78.1738 119.26 79.4886 114.44 80.7486C110.66 81.7346 106.934 82.7755 103.155 83.8163C102.661 83.9259 102.497 83.8163 102.333 83.3233C101.785 81.1868 101.182 79.0503 100.635 76.9138C98.9363 70.6139 97.2381 64.3687 95.5398 58.0688C95.485 57.7949 95.3755 57.521 95.3207 57.2471C95.1563 57.4662 95.0468 57.6853 94.992 57.9045C94.1703 61.027 93.3485 64.0948 92.472 67.2174C91.0477 72.5313 89.6234 77.8451 88.199 83.159C87.9799 83.9807 87.9799 83.9807 87.1582 83.7616C84.1452 82.9398 81.0774 82.1181 78.0096 81.2964C72.6957 79.872 67.3819 78.4477 62.1228 77.0234C61.8489 76.9686 61.575 76.9138 61.1367 76.859C61.3558 77.1329 61.4654 77.2425 61.575 77.3521C63.0541 78.8312 64.5332 80.3103 66.0123 81.8442C70.7784 86.6102 75.5992 91.431 80.3652 96.1971C80.6939 96.5258 80.6391 96.6901 80.3652 96.964C79.8174 97.4571 79.3243 98.0049 78.8313 98.4979C73.0792 104.25 67.3819 109.947 61.6298 115.699C61.4654 115.864 61.3558 116.028 61.1367 116.247C61.4654 116.193 61.6298 116.193 61.7941 116.138C66.0123 115.042 70.2305 113.892 74.4487 112.741C78.7217 111.591 82.94 110.44 87.2129 109.29C88.0895 109.071 88.0895 109.071 88.3086 109.947C88.6921 111.481 89.1303 112.96 89.5138 114.494C91.1025 120.411 92.6912 126.327 94.2798 132.244C94.4442 133.449 94.7729 134.654 95.1563 135.969Z"
        fill="#ED2124" />
    <path opacity="0.07"
        d="M420.397 433.216C342.771 368.518 283.223 356.521 237.316 357.507C191.463 356.521 131.86 368.573 54.289 433.216C15.8868 465.209 4.82083 487.341 49.4682 483.835C70.7784 482.191 111.317 463.127 139.694 444.501C167.852 425.985 189.272 403.195 237.316 404.182C285.359 403.141 306.779 425.985 334.937 444.501C363.314 463.127 403.853 482.191 425.163 483.835C469.81 487.286 458.744 465.209 420.397 433.216Z"
        fill="white" />
    <path opacity="0.19"
        d="M419.575 367.752C341.292 296.316 262.954 288.099 234.248 288.099C156.676 288.099 73.9009 340.087 47.8246 366.108C-10.7373 424.725 85.3503 335.375 182.534 320.42C210.582 316.092 234.248 316.092 234.248 316.092C234.248 316.092 257.968 316.092 285.962 320.42C383.145 335.375 480.767 423.629 419.575 367.752Z"
        fill="white" />
    <g opacity="0.29">
        <mask id="mask0_402_162" style="mask-type:luminance" maskUnits="userSpaceOnUse" x="0" y="290" width="235"
            height="258">
            <path
                d="M234.467 290.071C150.103 290.071 0.547852 358.329 0.547852 459.621C0.547852 545.848 101.84 567.432 155.745 528.592C186.807 506.241 210.418 485.752 234.467 485.752"
                fill="white" />
        </mask>
        <g mask="url(#mask0_402_162)">
            <path
                d="M96.0875 375.531C96.1971 375.202 96.2518 375.093 96.3066 374.983C97.5118 370.546 98.717 366.054 99.9222 361.616C101.018 357.453 102.168 353.289 103.264 349.181C103.373 348.797 103.483 348.688 103.921 348.797C105.127 349.126 106.387 349.455 107.592 349.783C114.166 351.536 120.739 353.289 127.313 355.042C128.245 355.316 129.176 355.535 130.162 355.755C130.217 355.7 130.217 355.645 130.271 355.59C123.752 349.071 117.288 342.607 110.66 335.978C117.233 329.404 123.752 322.94 130.326 316.366C130.052 316.421 129.888 316.476 129.724 316.476C124.958 317.736 120.192 319.051 115.371 320.311C111.591 321.297 107.866 322.337 104.086 323.378C103.593 323.488 103.428 323.378 103.264 322.885C102.716 320.749 102.114 318.612 101.566 316.476C99.8674 310.176 98.1692 303.931 96.471 297.631C96.4162 297.357 96.3066 297.083 96.2518 296.809C96.0875 297.028 95.9779 297.247 95.9232 297.466C95.1014 300.589 94.2797 303.657 93.4032 306.779C91.9788 312.093 90.5545 317.407 89.1302 322.721C88.911 323.543 88.9111 323.543 88.0893 323.324C85.0763 322.502 82.0085 321.68 78.9407 320.858C73.6269 319.434 68.313 318.01 63.0539 316.585C62.78 316.531 62.5061 316.476 62.0679 316.421C62.287 316.695 62.3966 316.804 62.5061 316.914C63.9852 318.393 65.4644 319.872 66.9435 321.406C71.7095 326.172 76.5303 330.993 81.2963 335.759C81.625 336.088 81.5703 336.252 81.2963 336.526C80.7485 337.019 80.2555 337.567 79.7625 338.06C74.0103 343.812 68.313 349.509 62.5609 355.261C62.3966 355.426 62.287 355.59 62.0679 355.809C62.3966 355.754 62.5609 355.755 62.7253 355.7C66.9435 354.604 71.1617 353.454 75.3799 352.303C79.6529 351.153 83.8711 350.002 88.1441 348.852C89.0206 348.633 89.0206 348.633 89.2397 349.509C89.6232 351.043 90.0615 352.522 90.445 354.056C92.0336 359.973 93.6223 365.889 95.211 371.806C95.3753 373.011 95.704 374.161 96.0875 375.531Z"
                fill="#ED2124" />
        </g>
    </g>
    <path
        d="M606.984 390.212C596.521 381.064 581.894 376.517 563.104 376.517H519.881V482.848H559.488C579.922 482.848 595.535 478.192 606.436 468.934C617.338 459.676 622.761 446.254 622.761 428.669C622.652 412.18 617.448 399.361 606.984 390.212ZM583.976 456.444C578.717 462.47 570.609 465.483 559.653 465.483H549.901V393.609H561.953C581.839 393.609 591.81 405.496 591.81 429.272C591.81 441.378 589.18 450.417 583.976 456.444Z"
        fill="black" />
    <path
        d="M708.495 409.934C700.771 403.524 690.198 400.292 676.777 400.292C662.424 400.292 651.193 404.072 643.14 411.577C635.087 419.082 631.088 429.546 631.088 442.912C631.088 456.115 635.526 466.304 644.4 473.481C653.275 480.657 665.437 484.273 680.83 484.273C694.033 484.273 705.318 482.41 714.795 478.685V462.743C704.77 466.688 694.964 468.66 685.377 468.66C677.872 468.66 671.956 466.907 667.683 463.401C663.41 459.895 661.164 454.526 660.945 447.295H720.109V436.941C720.109 425.327 716.22 416.343 708.495 409.934ZM661.383 433.216C661.821 427.08 663.41 422.533 666.149 419.575C668.888 416.617 672.339 415.193 676.557 415.193C681.05 415.193 684.61 416.727 687.185 419.794C689.76 422.862 691.129 427.354 691.294 433.271H661.383V433.216Z"
        fill="black" />
    <path
        d="M788.477 401.826C777.685 434.093 772.042 451.349 771.44 453.595C770.837 455.896 770.289 458.361 769.741 461.1C769.194 463.839 768.865 465.921 768.81 467.345H768.372C768.153 465.483 767.605 462.47 766.674 458.306C765.742 454.088 764.975 450.911 764.318 448.72L748.596 401.826H718.082L750.239 482.849H786.724L818.99 401.826H788.477Z"
        fill="black" />
    <path
        d="M886.044 449.596C884.345 446.857 881.935 444.446 878.867 442.31C875.745 440.173 870.376 437.599 862.707 434.531C856.352 432.011 852.024 429.874 849.723 428.176C847.422 426.478 846.217 424.561 846.217 422.369C846.217 420.452 847.148 418.863 849.011 417.549C850.874 416.234 853.722 415.576 857.447 415.576C863.419 415.576 870.376 417.001 878.265 419.795L887.906 405.88C878.265 402.1 867.966 400.183 857.064 400.183C844.519 400.183 834.658 402.21 827.482 406.209C820.305 410.208 816.69 415.686 816.69 422.588C816.69 427.957 818.607 432.614 822.497 436.613C826.386 440.557 832.741 444.282 841.67 447.788C848.354 450.473 853.01 452.719 855.475 454.526C857.995 456.389 859.255 458.525 859.255 460.991C859.255 463.401 858.05 465.373 855.64 466.852C853.229 468.331 849.778 469.044 845.176 469.044C841.068 469.044 836.247 468.441 830.878 467.236C825.455 466.031 820.744 464.497 816.69 462.634V479.452C824.633 482.63 834.713 484.163 846.875 484.163C860.57 484.163 870.979 481.972 877.991 477.535C885.058 473.097 888.564 466.907 888.564 459.019C888.564 455.512 887.742 452.335 886.044 449.596Z"
        fill="black" />
    <path
        d="M666.806 228.715L623.2 312.367L621.392 228.715H595.042L551.326 312.367L549.518 228.331C548.149 228.221 546.834 228.167 545.519 228.112C544.204 228.057 542.78 228.057 541.191 228.057C535.384 228.057 529.523 228.495 523.716 229.427C517.854 230.358 512.266 231.618 506.898 233.207C501.529 234.85 496.489 236.767 491.778 238.959C487.067 241.205 483.013 243.615 479.507 246.245C476.001 248.874 473.262 251.668 471.289 254.572C469.317 257.53 468.276 260.488 468.276 263.501C468.276 265.966 468.769 268.103 469.755 269.746C470.742 271.444 472.166 272.814 474.028 273.8C475.891 274.841 478.192 275.553 480.986 276.046C483.78 276.539 486.957 276.758 490.518 276.758C490.518 276.484 490.354 276.156 490.08 275.827C489.751 275.444 489.477 274.951 489.094 274.348C488.765 273.691 488.436 272.814 488.107 271.718C487.779 270.623 487.669 269.198 487.669 267.5C487.669 259.885 490.408 253.531 495.832 248.436C501.255 243.341 508.87 239.561 518.621 237.151L521.963 330.445H551.874L591.317 260.926L593.727 330.445H623.638L681.433 228.66H666.806V228.715Z"
        fill="#41B6E6" />
    <path
        d="M1018.73 305.957C1017.9 307.71 1016.97 309.299 1015.93 310.778C1014.89 312.257 1013.69 313.572 1012.26 314.613C1010.84 315.654 1009.36 316.53 1007.66 317.133C1005.96 317.735 1004.1 318.009 1002.07 318.009C1000.87 318.009 999.881 317.845 999.059 317.516C998.292 317.188 997.635 316.749 997.197 316.201C996.704 315.654 996.375 314.996 996.156 314.284C995.937 313.572 995.827 312.805 995.827 312.038C995.827 310.888 996.046 309.737 996.43 308.587L1011.33 262.186H981.419L967.34 306.012C967.231 306.341 967.121 306.669 967.067 306.998C966.957 307.108 966.847 307.217 966.683 307.327C965.313 308.368 952.659 316.585 950.961 317.188C949.262 317.79 947.345 318.064 945.318 318.064C942.415 318.064 940.278 317.681 938.854 316.968C937.484 316.256 936.772 314.887 936.772 312.969C936.772 312.257 936.827 311.545 936.991 310.778C937.101 310.066 937.375 309.299 937.703 308.532L961.534 234.795L930.801 237.535L920.666 268.925V268.377C920.666 266.405 919.351 264.761 916.667 263.446C913.983 262.132 909.71 261.419 903.848 261.419C897.822 261.419 892.344 262.186 887.304 263.666C882.319 265.145 877.827 267.172 873.882 269.692C869.938 272.212 866.487 275.115 863.529 278.347C860.57 281.579 858.16 285.031 856.188 288.591C854.216 292.152 852.791 295.713 851.805 299.274C851.148 301.684 850.764 303.93 850.545 306.122C849.45 307.765 847.916 308.861 846.82 310.285C845.724 311.764 842.273 313.627 840.904 314.668C839.534 315.708 838.055 316.53 836.357 317.133C834.658 317.735 832.686 318.009 830.495 318.009C827.318 318.009 825.126 317.461 823.976 316.421C822.826 315.38 822.223 313.955 822.223 312.312C822.223 310.997 822.497 309.518 822.99 307.82C823.483 306.122 824.14 304.259 824.852 302.232C825.619 300.205 826.386 298.123 827.208 295.987C828.03 293.796 828.852 291.604 829.564 289.413C830.331 287.222 830.933 285.03 831.426 282.949C831.919 280.812 832.193 278.895 832.193 277.032C832.193 274.348 831.591 271.992 830.495 270.02C829.345 268.048 827.756 266.459 825.674 265.199C823.592 263.939 821.182 263.063 818.333 262.46C815.485 261.858 812.417 261.584 809.13 261.584C807.487 261.584 805.788 261.693 803.926 261.858C802.063 262.022 800.091 262.406 798.009 262.899C795.928 263.446 793.791 264.213 791.545 265.199C789.354 266.185 787.108 267.5 784.916 269.198L787.162 262.132H757.252L745.035 300.041C744.378 301.191 743.556 302.342 742.679 303.382C741.419 304.862 728.874 313.517 727.231 314.613C725.587 315.654 723.834 316.53 721.917 317.133C720 317.735 718.028 318.009 716.001 318.009C713.097 318.009 710.961 317.626 709.591 316.914C708.222 316.201 707.564 314.832 707.564 312.915C707.564 312.202 707.619 311.49 707.729 310.723C707.838 310.011 708.057 309.244 708.386 308.477L723.287 262.077H693.376L679.297 305.902C678.749 307.655 678.365 309.244 678.092 310.723C677.818 312.202 677.708 313.572 677.708 314.832C677.708 317.735 678.311 320.201 679.406 322.227C680.557 324.254 682.145 325.953 684.118 327.267C686.09 328.582 688.445 329.568 691.184 330.226C693.869 330.828 696.772 331.157 699.895 331.157C701.703 331.157 703.784 331.047 706.14 330.828C708.496 330.609 710.906 330.171 713.481 329.568C716.055 328.966 718.685 328.034 721.424 326.884C724.163 325.734 726.847 324.2 729.422 322.337C730.901 321.296 735.941 317.681 740.433 314.284L735.284 330.335H765.195L779.274 286.51C780.096 284.757 781.027 283.168 782.122 281.579C783.218 280.045 784.423 278.731 785.793 277.58C787.162 276.43 788.642 275.553 790.23 274.896C791.874 274.238 793.627 273.91 795.489 273.91C800.474 273.91 802.994 276.265 802.994 280.922C802.994 283.113 802.501 285.688 801.515 288.701C800.529 291.714 799.488 294.836 798.338 298.123C797.188 301.356 796.147 304.533 795.161 307.601C794.175 310.668 793.682 313.408 793.682 315.708C793.682 317.681 794.12 319.543 794.941 321.406C795.763 323.268 797.133 324.912 799.05 326.336C800.968 327.76 803.433 328.911 806.555 329.787C809.678 330.664 813.513 331.102 818.114 331.102C820.908 331.102 823.921 330.828 827.208 330.28C830.495 329.733 833.837 328.582 837.233 326.829C840.63 325.076 844.026 322.501 847.368 319.214C848.628 317.954 849.888 316.475 851.093 314.887C851.477 316.53 852.024 318.064 852.791 319.379C854.325 322.173 856.407 324.419 858.982 326.172C861.556 327.925 864.515 329.13 867.802 329.897C871.088 330.664 874.54 331.047 878.155 331.047C881.826 331.047 885.167 330.664 888.29 329.952C891.413 329.24 894.206 328.253 896.781 327.103C899.301 325.898 901.602 324.583 903.574 323.104C905.546 321.625 907.354 320.091 908.888 318.557C909.71 322.447 911.846 325.35 915.352 327.322C918.858 329.294 923.515 330.28 929.267 330.28C931.075 330.28 933.102 330.171 935.348 330.007C937.594 329.842 939.895 329.459 942.36 328.856C944.77 328.254 947.29 327.432 949.865 326.336C951.947 325.46 961.095 319.598 965.861 316.421C966.026 318.612 966.573 320.474 967.505 322.118C968.655 324.145 970.244 325.843 972.216 327.158C974.188 328.473 976.544 329.459 979.283 330.116C981.967 330.719 984.871 331.047 987.993 331.047C989.801 331.047 991.718 330.938 993.745 330.773C995.772 330.554 997.854 330.171 1000.05 329.623C1002.18 329.075 1004.43 328.253 1006.62 327.267C1008.87 326.227 1011.06 324.912 1013.3 323.214L1011.17 329.24C1006.18 330.226 1001.47 331.212 997.142 332.253C992.759 333.293 988.979 334.553 985.747 336.087C982.515 337.621 979.94 339.429 978.078 341.62C976.215 343.812 975.284 346.496 975.284 349.673C975.284 351.919 975.996 353.891 977.366 355.699C978.735 357.507 980.598 359.041 982.844 360.356C985.09 361.671 987.719 362.657 990.678 363.369C993.636 364.081 996.649 364.41 999.771 364.41C1003.17 364.41 1006.73 364.136 1010.56 363.533C1014.4 362.931 1018.01 361.835 1021.52 360.137C1025.03 358.438 1028.15 356.083 1031.05 353.07C1033.9 350.057 1036.09 346.112 1037.57 341.182L1062.94 261.967H1032.8L1018.73 305.957ZM908.669 305.957V306.669C908.012 308.587 906.971 310.23 905.656 311.655C904.341 313.079 902.862 314.284 901.273 315.215C899.685 316.147 898.041 316.859 896.288 317.297C894.59 317.79 893.001 318.009 891.577 318.009C890.646 318.009 889.55 317.954 888.345 317.79C887.14 317.681 885.989 317.242 884.948 316.53C883.907 315.818 883.031 314.777 882.264 313.353C881.497 311.928 881.168 309.902 881.168 307.272C881.168 305.135 881.497 302.725 882.1 300.041C882.702 297.356 883.579 294.617 884.784 291.823C885.989 289.03 887.414 286.345 889.112 283.716C890.81 281.086 892.727 278.731 894.864 276.704C897 274.622 899.411 272.978 901.986 271.718C904.56 270.458 907.354 269.856 910.258 269.856C911.901 269.856 913.216 270.02 914.257 270.349C915.298 270.678 916.119 271.116 916.722 271.609C917.324 272.102 917.763 272.65 918.091 273.198C918.42 273.745 918.639 274.184 918.749 274.622L908.669 305.957ZM1007.22 341.785C1006.56 343.812 1005.74 345.565 1004.81 346.934C1003.88 348.304 1002.84 349.399 1001.74 350.221C1000.65 351.043 999.497 351.591 998.292 351.974C997.087 352.303 995.991 352.467 995.005 352.467C993.8 352.467 992.65 352.303 991.664 352.029C990.623 351.755 989.746 351.371 989.034 350.988C988.267 350.55 987.719 350.112 987.336 349.564C986.952 349.016 986.733 348.523 986.733 347.975C986.733 346.167 987.336 344.524 988.486 343.045C989.692 341.62 991.28 340.306 993.362 339.155C995.444 338.005 997.854 337.019 1000.7 336.142C1003.55 335.266 1006.56 334.444 1009.85 333.732L1007.22 341.785Z"
        fill="#41B6E6" />
    <path
        d="M1449.64 262.187L1435.56 306.012C1434.74 307.765 1433.81 309.354 1432.77 310.833C1431.73 312.312 1430.52 313.627 1429.1 314.668C1427.67 315.709 1426.19 316.585 1424.5 317.188C1422.8 317.79 1420.94 318.064 1418.91 318.064C1417.7 318.064 1416.72 317.9 1415.9 317.571C1415.13 317.243 1414.47 316.804 1414.03 316.256C1413.54 315.709 1413.21 315.051 1413.05 314.339C1412.83 313.627 1412.72 312.86 1412.72 312.093C1412.72 310.943 1412.94 309.792 1413.32 308.642L1428.22 262.241H1398.31L1387.57 295.549C1385.71 297.357 1383.52 299.329 1382.59 299.986C1380.94 301.027 1360.73 316.64 1358.81 317.243C1356.9 317.845 1354.92 318.119 1352.9 318.119C1349.99 318.119 1347.86 317.736 1346.49 317.023C1345.12 316.311 1344.46 314.942 1344.46 313.024C1344.46 312.312 1344.51 311.6 1344.62 310.833C1344.73 310.121 1344.95 309.354 1345.28 308.587L1358.54 267.665H1371.03L1372.67 262.187H1360.24L1367.36 240.602L1336.63 243.342L1330.33 262.187H1323.53L1321.78 267.665H1328.68L1316.19 306.012C1315.97 306.724 1315.75 307.382 1315.59 308.094C1308.3 312.367 1296.74 319.05 1295.27 319.489C1293.13 320.146 1290.99 320.475 1288.75 320.475C1285.51 320.475 1283.21 320.091 1281.73 319.269C1280.26 318.448 1279.49 317.023 1279.49 314.996C1279.49 314.229 1279.54 313.463 1279.65 312.641C1279.76 311.874 1280.04 311.052 1280.36 310.23L1296.8 260.05H1263.88L1252.15 295.823C1243.39 301.246 1214.08 313.791 1207.72 315.983C1200.77 318.393 1193.21 319.598 1184.99 319.598C1179.89 319.598 1175.79 319.105 1172.55 318.009C1169.32 316.969 1166.8 315.489 1164.94 313.627C1163.08 311.764 1161.82 309.518 1161.1 306.944C1160.39 304.314 1160.06 301.465 1160.06 298.288C1160.06 293.686 1160.61 288.865 1161.71 283.88C1162.8 278.895 1164.28 274.074 1166.14 269.363C1168.06 264.652 1170.31 260.16 1172.99 255.941C1175.68 251.723 1178.58 247.998 1181.81 244.821C1185.04 241.643 1188.44 239.123 1192.06 237.261C1195.67 235.398 1199.4 234.467 1203.29 234.467C1205.59 234.467 1207.56 234.686 1209.15 235.179C1210.79 235.672 1212.11 236.275 1213.09 237.042C1214.13 237.809 1214.85 238.685 1215.28 239.726C1215.72 240.767 1215.94 241.808 1215.94 242.849C1215.94 244.163 1215.67 245.533 1215.12 246.848C1214.57 248.162 1213.86 249.422 1212.98 250.573C1212.11 251.723 1211.07 252.709 1209.92 253.586C1208.76 254.462 1207.56 255.065 1206.35 255.503C1208.33 257.037 1210.35 258.023 1212.49 258.461C1214.63 258.845 1216.49 259.064 1218.13 259.064C1220.76 259.064 1223.01 258.735 1224.87 258.133C1226.73 257.53 1228.27 256.654 1229.42 255.503C1230.62 254.353 1231.44 253.038 1231.94 251.504C1232.43 249.97 1232.7 248.272 1232.7 246.464C1232.7 243.232 1231.83 240.438 1230.02 238.137C1228.21 235.836 1225.75 233.919 1222.62 232.44C1219.5 230.961 1215.78 229.92 1211.56 229.208C1207.34 228.496 1202.85 228.167 1198.03 228.167C1191.18 228.167 1184.93 228.824 1179.29 230.194C1173.59 231.563 1168.44 233.426 1163.79 235.782C1159.13 238.137 1154.91 240.931 1151.24 244.109C1147.52 247.286 1144.23 250.737 1141.38 254.408C1138.53 258.078 1136.12 261.913 1134.15 265.857C1132.18 269.801 1130.54 273.746 1129.22 277.635C1127.96 281.525 1127.03 285.359 1126.43 289.03C1125.82 292.7 1125.55 296.097 1125.55 299.219C1125.55 305.355 1126.48 310.559 1128.34 314.832C1130.21 319.105 1133 322.556 1136.78 325.241C1140.51 327.925 1145.27 329.842 1150.91 331.048C1156.61 332.253 1163.3 332.855 1170.97 332.855C1175.79 332.855 1180.99 332.362 1186.74 331.431C1192.44 330.5 1198.08 329.021 1203.56 326.994C1209.09 324.967 1214.19 322.337 1218.9 319.105C1222.24 316.859 1239.28 308.532 1250.02 302.232L1248.32 307.491C1247.71 309.354 1247.28 311.107 1247 312.696C1246.73 314.284 1246.56 315.763 1246.56 317.133C1246.56 320.256 1247.22 322.94 1248.48 325.131C1249.74 327.322 1251.49 329.185 1253.69 330.609C1255.88 332.034 1258.45 333.129 1261.46 333.787C1264.42 334.444 1267.66 334.773 1271.05 334.773C1273.08 334.773 1275.32 334.663 1277.9 334.389C1280.47 334.17 1283.16 333.677 1286.01 333.02C1288.86 332.362 1291.76 331.376 1294.77 330.116C1297.79 328.856 1300.74 327.213 1303.59 325.186C1304.8 324.364 1309.56 321.296 1314.82 317.79C1315.1 319.489 1315.59 321.022 1316.36 322.337C1317.51 324.364 1319.1 326.062 1321.07 327.377C1323.04 328.692 1325.4 329.678 1328.13 330.335C1330.82 330.938 1333.72 331.267 1336.84 331.267C1338.65 331.267 1340.73 331.157 1343.09 330.938C1345.45 330.719 1347.86 330.281 1350.43 329.678C1353.01 329.075 1355.64 328.144 1358.37 326.994C1361.11 325.843 1371.14 316.969 1373.77 315.051C1374.97 314.175 1379.36 310.833 1383.9 307.272C1383.57 308.532 1383.25 309.683 1383.08 310.833C1382.81 312.312 1382.7 313.682 1382.7 314.942C1382.7 317.845 1383.3 320.31 1384.4 322.337C1385.55 324.364 1387.13 326.062 1389.11 327.377C1391.08 328.692 1393.43 329.678 1396.17 330.335C1398.86 330.938 1401.76 331.267 1404.88 331.267C1406.69 331.267 1408.61 331.157 1410.64 330.993C1412.66 330.774 1414.74 330.39 1416.94 329.842C1419.07 329.295 1421.32 328.473 1423.51 327.487C1425.76 326.446 1427.95 325.131 1430.19 323.433L1428.06 329.459C1423.07 330.445 1418.36 331.431 1414.03 332.472C1409.65 333.513 1405.87 334.773 1402.64 336.307C1399.41 337.841 1396.83 339.648 1394.97 341.84C1393.11 344.031 1392.17 346.715 1392.17 349.893C1392.17 352.139 1392.89 354.111 1394.26 355.919C1395.63 357.726 1397.49 359.26 1399.73 360.575C1401.98 361.89 1404.61 362.876 1407.57 363.588C1410.53 364.3 1413.54 364.629 1416.66 364.629C1420.06 364.629 1423.62 364.355 1427.45 363.752C1431.29 363.15 1434.9 362.054 1438.41 360.356C1441.92 358.658 1445.09 356.302 1447.94 353.289C1450.79 350.276 1452.98 346.332 1454.46 341.401L1479.83 262.187H1449.64ZM1424.11 341.785C1423.46 343.812 1422.63 345.565 1421.7 346.934C1420.77 348.304 1419.73 349.4 1418.63 350.221C1417.54 351.043 1416.39 351.591 1415.18 351.974C1413.98 352.303 1412.88 352.467 1411.9 352.467C1410.69 352.467 1409.54 352.303 1408.55 352.029C1407.57 351.755 1406.64 351.372 1405.92 350.988C1405.16 350.55 1404.61 350.112 1404.23 349.564C1403.84 349.016 1403.62 348.523 1403.62 347.975C1403.62 346.167 1404.23 344.524 1405.38 343.045C1406.58 341.62 1408.17 340.306 1410.25 339.155C1412.33 338.005 1414.74 337.019 1417.59 336.142C1420.44 335.266 1423.46 334.444 1426.74 333.732L1424.11 341.785Z"
        fill="#41B6E6" />
    <path
        d="M1281.52 255.887C1281.62 255.613 1281.68 255.503 1281.68 255.394C1282.78 251.395 1283.82 247.396 1284.91 243.342C1285.9 239.616 1286.88 235.891 1287.87 232.166C1287.98 231.837 1288.09 231.728 1288.42 231.837C1289.51 232.166 1290.61 232.44 1291.7 232.714C1297.62 234.303 1303.48 235.891 1309.4 237.48C1310.22 237.699 1311.1 237.918 1311.92 238.137C1311.92 238.083 1311.97 238.028 1311.97 238.028C1306.11 232.166 1300.31 226.359 1294.39 220.388C1300.31 214.472 1306.17 208.665 1312.08 202.748C1311.81 202.803 1311.7 202.803 1311.54 202.858C1307.26 204.008 1302.94 205.159 1298.66 206.309C1295.27 207.24 1291.92 208.117 1288.53 209.048C1288.09 209.158 1287.92 209.048 1287.82 208.61C1287.32 206.693 1286.77 204.775 1286.28 202.803C1284.75 197.16 1283.27 191.518 1281.73 185.875C1281.68 185.601 1281.57 185.382 1281.52 185.108C1281.35 185.328 1281.24 185.492 1281.24 185.711C1280.47 188.505 1279.76 191.299 1279 194.038C1277.74 198.804 1276.42 203.57 1275.16 208.391C1274.94 209.103 1274.94 209.103 1274.23 208.939C1271.49 208.226 1268.75 207.459 1266.01 206.747C1261.25 205.487 1256.48 204.173 1251.71 202.913C1251.49 202.858 1251.22 202.803 1250.84 202.748C1251.06 202.967 1251.11 203.077 1251.22 203.186C1252.54 204.501 1253.85 205.871 1255.22 207.186C1259.49 211.459 1263.82 215.786 1268.09 220.059C1268.37 220.333 1268.31 220.498 1268.09 220.771C1267.6 221.21 1267.16 221.703 1266.72 222.141C1261.57 227.291 1256.43 232.44 1251.28 237.59C1251.17 237.699 1251 237.863 1250.78 238.083C1251.06 238.028 1251.22 238.028 1251.33 237.973C1255.11 236.987 1258.89 235.946 1262.67 234.96C1266.5 233.919 1270.28 232.878 1274.12 231.892C1274.89 231.673 1274.89 231.673 1275.11 232.44C1275.49 233.81 1275.82 235.179 1276.2 236.549C1277.63 241.863 1279.05 247.176 1280.47 252.49C1280.86 253.586 1281.19 254.682 1281.52 255.887Z"
        fill="#ED2124" />
    <path
        d="M710.303 255.887C710.413 255.613 710.468 255.503 710.468 255.394C711.564 251.395 712.604 247.396 713.7 243.342C714.686 239.616 715.672 235.891 716.658 232.166C716.768 231.837 716.877 231.728 717.206 231.837C718.302 232.166 719.397 232.44 720.493 232.714C726.409 234.303 732.271 235.891 738.188 237.48C739.009 237.699 739.886 237.918 740.707 238.137C740.707 238.083 740.762 238.028 740.762 238.028C734.901 232.166 729.094 226.359 723.177 220.388C729.094 214.472 734.955 208.665 740.872 202.748C740.598 202.803 740.488 202.803 740.324 202.858C736.051 204.008 731.723 205.159 727.45 206.309C724.054 207.24 720.712 208.117 717.316 209.048C716.877 209.158 716.713 209.048 716.603 208.61C716.11 206.693 715.563 204.775 715.07 202.803C713.536 197.16 712.057 191.518 710.523 185.875C710.468 185.601 710.358 185.382 710.303 185.108C710.139 185.328 710.03 185.492 710.03 185.711C709.263 188.505 708.55 191.299 707.784 194.038C706.524 198.804 705.209 203.57 703.949 208.391C703.73 209.103 703.73 209.103 703.018 208.939C700.278 208.226 697.539 207.459 694.8 206.747C690.034 205.487 685.268 204.173 680.502 202.913C680.283 202.858 680.009 202.803 679.626 202.748C679.845 202.967 679.9 203.077 680.009 203.186C681.324 204.501 682.639 205.871 684.008 207.186C688.281 211.459 692.609 215.786 696.882 220.059C697.156 220.333 697.101 220.498 696.882 220.771C696.389 221.21 695.951 221.703 695.512 222.141C690.363 227.291 685.213 232.44 680.064 237.59C679.954 237.699 679.79 237.863 679.571 238.083C679.845 238.028 680.009 238.028 680.119 237.973C683.899 236.987 687.679 235.946 691.458 234.96C695.293 233.919 699.073 232.878 702.908 231.892C703.675 231.673 703.675 231.673 703.894 232.44C704.277 233.81 704.606 235.179 704.99 236.549C706.414 241.863 707.838 247.176 709.263 252.49C709.701 253.586 709.975 254.682 710.303 255.887Z"
        fill="#ED2124" />
    <path fill-rule="evenodd" clip-rule="evenodd"
        d="M1113.56 802.589V770H1103.44V802.589H1071V812.708H1103.44V845.298H1113.56V812.708H1146V802.589H1113.56Z"
        fill="black" />
    <g clip-path="url(#clip0_402_162)">
        <path
            d="M1386 933C1455.04 933 1511 877.036 1511 808C1511 738.964 1455.04 683 1386 683C1316.96 683 1261 738.964 1261 808C1261 877.036 1316.96 933 1386 933Z"
            fill="#0E2339" />
        <path
            d="M1318.42 829.922C1318.42 812.765 1318.7 810.67 1321.87 804.384C1324.65 798.948 1332.01 792.153 1336.88 790.681C1337.95 790.341 1338.29 790.851 1340.16 795.494C1346.22 810.726 1358.28 822.108 1374.02 827.374L1378.16 828.79L1378.33 837C1378.38 841.587 1378.27 845.268 1378.04 845.211C1377.76 845.211 1376.63 843.682 1375.38 841.814C1369.55 832.697 1357.94 827.148 1346.22 827.827C1335.58 828.45 1326.4 833.716 1320.46 842.549L1318.42 845.551V829.922ZM1330.71 871.598C1335.63 870.126 1339.37 864.973 1339.37 859.65C1339.37 855.856 1344.01 851.496 1347.98 851.496C1353.02 851.496 1356.47 854.894 1357.15 860.5C1357.77 865.539 1359.87 868.711 1364 870.919C1366.15 872.108 1367 872.165 1379.86 872.165C1392.77 872.165 1393.56 872.108 1395.77 870.919C1398.49 869.446 1401.49 866.275 1402.05 864.067C1402.34 863.217 1402.51 851.836 1402.51 838.756V814.973L1401.09 812.482C1398.71 808.291 1395.99 806.819 1389.14 805.913C1379.86 804.724 1374.48 802.233 1369.1 796.74C1365.13 792.776 1361.79 786.208 1360.89 780.602C1359.08 769.9 1364.4 757.895 1373.74 751.666C1379.35 747.929 1383.76 746.57 1390.33 746.57C1394.64 746.57 1396.5 746.853 1399.73 747.986C1406.92 750.534 1412.3 754.837 1416.1 761.179C1420.12 767.974 1420 766.162 1420.34 807.329C1420.63 840.964 1420.8 844.701 1421.7 847.532C1424.7 856.819 1430.93 864.407 1438.52 868.088C1448.94 873.184 1459.13 873.524 1468.19 869.107C1477.48 864.52 1484.67 854.158 1486.59 842.549C1487.78 835.415 1486.03 831.225 1480.82 828.62C1475.78 826.071 1470.12 826.751 1466.61 830.319C1464.34 832.584 1463.55 834.282 1462.59 839.039C1461.34 844.928 1458.62 847.532 1453.64 847.532C1450.52 847.532 1447.52 845.947 1446.11 843.512C1445.03 841.644 1444.98 840.285 1444.69 805.064C1444.41 772.561 1444.3 768.088 1443.39 764.633C1437.33 741.247 1419.27 725.392 1395.2 722.391C1383.2 720.919 1367.4 725.732 1356.7 734.282C1348.09 741.077 1342.48 749.231 1338.86 760.16L1337.16 765.03L1331.33 767.125C1322.04 770.409 1317.34 773.297 1310.38 780.035C1304.09 786.151 1299.73 792.946 1296.9 801.1C1294.3 808.801 1294.07 811.519 1294.07 838.133V863.218L1295.37 865.709C1296.84 868.484 1300.3 871.202 1303.19 871.881C1304.26 872.108 1310.21 872.335 1316.49 872.391C1325.04 872.447 1328.55 872.221 1330.71 871.598ZM1395.26 787.227C1398.2 785.981 1399.34 784.849 1400.86 781.564C1403.07 776.864 1402.45 771.542 1399.22 767.861C1396.9 765.2 1394.58 764.294 1390.16 764.294C1387.22 764.294 1386.14 764.577 1383.99 765.936C1376.63 770.579 1377.02 782.923 1384.67 786.83C1387.67 788.303 1392.2 788.472 1395.26 787.227Z"
            fill="#F9921E" />
    </g>
    <g clip-path="url(#clip1_402_162)">
        <path d="M726.577 732.063H857.214V756.175H805.391V883.026H779.478V756.175H726.577V732.063Z" fill="black" />
        <path
            d="M511.729 732.063V756.175H407.014V794.964H491.225V819.076H407.014V858.914H511.729V883.026H381.103V756.175H381.092V732.063H511.729Z"
            fill="black" />
        <path
            d="M576.959 732.126H543.05L664.508 883.089H698.517L637.78 807.659L698.42 732.241L664.508 732.294L620.802 786.574L576.959 732.126Z"
            fill="black" />
        <path d="M611.756 839.96L594.775 818.846L542.952 883.204H576.959L611.756 839.96Z" fill="black" />
        <path fill-rule="evenodd" clip-rule="evenodd"
            d="M382.011 883.026L260.389 732H228V882.963H253.911V764.268L349.459 883.026H382.011Z" fill="black" />
        <path
            d="M863.039 882.104C861.141 882.104 859.527 881.447 858.175 880.132C856.824 878.817 856.156 877.226 856.173 875.34C856.156 873.506 856.824 871.932 858.175 870.617C859.527 869.302 861.141 868.645 863.039 868.645C864.864 868.645 866.461 869.302 867.813 870.617C869.183 871.932 869.867 873.506 869.886 875.34C869.867 876.585 869.551 877.727 868.919 878.748C868.27 879.786 867.446 880.599 866.408 881.187C865.39 881.793 864.267 882.104 863.039 882.104Z"
            fill="black" />
        <path
            d="M907.264 818.507H918.746V862.745C918.729 866.81 917.85 870.288 916.131 873.211C914.393 876.135 911.987 878.367 908.897 879.941C905.825 881.498 902.225 882.294 898.135 882.294C894.394 882.294 891.042 881.619 888.057 880.304C885.072 878.99 882.702 877.017 880.965 874.422C879.208 871.827 878.347 868.592 878.347 864.717H889.848C889.866 866.412 890.252 867.883 890.989 869.111C891.725 870.339 892.744 871.273 894.044 871.931C895.359 872.588 896.871 872.917 898.572 872.917C900.417 872.917 901.997 872.536 903.278 871.758C904.559 870.997 905.543 869.855 906.229 868.332C906.895 866.828 907.247 864.959 907.264 862.745V818.507Z"
            fill="black" />
        <path
            d="M965.991 835.808C965.711 833.127 964.481 831.033 962.34 829.546C960.179 828.04 957.388 827.297 953.964 827.297C951.56 827.297 949.489 827.66 947.768 828.369C946.047 829.096 944.713 830.064 943.799 831.293C942.887 832.521 942.43 833.923 942.394 835.497C942.394 836.812 942.71 837.954 943.325 838.905C943.94 839.874 944.764 840.687 945.836 841.345C946.888 842.019 948.065 842.573 949.348 843.023C950.646 843.472 951.946 843.853 953.244 844.164L959.231 845.635C961.637 846.189 963.973 846.933 966.202 847.884C968.431 848.818 970.451 850.012 972.223 851.448C973.997 852.884 975.402 854.614 976.437 856.638C977.473 858.662 978 861.032 978 863.766C978 867.451 977.052 870.686 975.137 873.489C973.224 876.274 970.468 878.454 966.851 880.028C963.251 881.585 958.898 882.381 953.772 882.381C948.82 882.381 944.501 881.62 940.867 880.097C937.216 878.592 934.371 876.378 932.317 873.471C930.263 870.565 929.157 867.018 928.999 862.849H940.376C940.534 865.029 941.237 866.845 942.43 868.316C943.641 869.769 945.221 870.842 947.153 871.568C949.102 872.277 951.278 872.641 953.684 872.641C956.195 872.641 958.407 872.26 960.32 871.516C962.216 870.772 963.708 869.735 964.78 868.385C965.869 867.053 966.413 865.479 966.43 863.679C966.413 862.036 965.92 860.669 964.972 859.596C964.007 858.524 962.673 857.624 960.969 856.898C959.25 856.171 957.247 855.513 954.965 854.943L947.697 853.109C942.447 851.777 938.286 849.753 935.248 847.036C932.195 844.32 930.683 840.722 930.683 836.206C930.683 832.504 931.702 829.252 933.758 826.466C935.793 823.681 938.585 821.518 942.114 819.978C945.661 818.422 949.664 817.66 954.122 817.66C958.652 817.66 962.619 818.422 966.044 819.978C969.466 821.518 972.154 823.664 974.102 826.397C976.051 829.13 977.069 832.262 977.123 835.808H965.991Z"
            fill="black" />
    </g>
    <defs>
        <clipPath id="clip0_402_162">
            <rect width="250" height="250" fill="white" transform="translate(1261 683)" />
        </clipPath>
        <clipPath id="clip1_402_162">
            <rect width="750" height="152.284" fill="white" transform="translate(228 732)" />
        </clipPath>
    </defs>
</svg>