<svg width="612" height="612" viewBox="0 0 612 612" fill="none" xmlns="http://www.w3.org/2000/svg">
<g clip-path="url(#clip0_407_204)">
<path d="M134.23 437.15C134.23 430.76 133.46 427.66 129 425.53V425.34H150.89V425.53C146.43 427.66 145.56 430.76 145.56 437.15V457.2H173.46V437.15C173.46 430.76 172.69 427.66 168.13 425.53V425.34H190.12V425.53C185.57 427.66 184.79 430.76 184.79 437.15V481.32C184.79 487.71 185.56 490.81 190.12 492.94V493.13H168.13V492.94C172.68 490.81 173.46 487.71 173.46 481.32V459.82H145.56V481.32C145.56 487.71 146.43 490.81 150.89 492.94V493.13H129V492.94C133.46 490.81 134.23 487.71 134.23 481.32V437.15Z" fill="#4E5F4F"/>
<path d="M208.23 482.96C208.23 489.35 208.91 490.9 212.88 492.94V493.13H192.83V492.94C196.8 490.91 197.48 489.36 197.48 482.96V456.42C197.48 450.22 196.41 447.99 192.35 445.96V445.77H208.24V482.96H208.23ZM202.61 423.49C206.48 423.49 209.49 426.4 209.49 430.27C209.49 434.14 206.49 437.05 202.61 437.05C198.73 437.05 195.73 434.05 195.73 430.27C195.73 426.49 198.73 423.49 202.61 423.49Z" fill="#4E5F4F"/>
<path d="M229.93 482.96C229.93 489.35 230.61 490.9 234.58 492.94V493.13H214.53V492.94C218.5 490.91 219.18 489.36 219.18 482.96V431.24C219.18 425.04 217.92 422.81 213.95 420.78V420.59H229.93V482.97V482.96Z" fill="#4E5F4F"/>
<path d="M251.53 482.96C251.53 489.35 252.21 490.9 256.18 492.94V493.13H236.13V492.94C240.1 490.91 240.78 489.36 240.78 482.96V431.24C240.78 425.04 239.52 422.81 235.55 420.78V420.59H251.53V482.97V482.96Z" fill="#4E5F4F"/>
<path d="M266.93 453.81C266.93 458.27 268.96 460.49 277.2 463.4C287.85 466.98 292.41 471.44 292.41 479.29C292.41 488.98 284.66 494.11 276.04 494.11C270.13 494.11 266.84 491.79 264.03 491.79C262.29 491.79 260.93 492.86 259.86 494.11L258.89 475.8H259.18C263.15 485.87 268.87 492.27 276.03 492.27C280.87 492.27 284.26 488.98 284.26 483.94C284.26 478.52 280.29 476.58 273.41 474.06C263.63 470.67 259.36 466.41 259.36 458.66C259.36 449.94 266.33 444.81 274.18 444.81C279.51 444.81 282.12 447.23 285.12 447.23C286.86 447.23 288.03 446.26 289.58 444.81V460.79H289.39C286 452.65 280.67 446.65 274.18 446.65C269.63 446.65 266.92 449.85 266.92 453.82L266.93 453.81Z" fill="#4E5F4F"/>
<path d="M310.9 482.96C310.9 489.35 311.58 490.9 315.55 492.94V493.13H295.5V492.94C299.47 490.91 300.15 489.36 300.15 482.96V456.42C300.15 450.22 299.08 447.99 295.02 445.96V445.77H310.91V482.96H310.9ZM305.28 423.49C309.15 423.49 312.16 426.4 312.16 430.27C312.16 434.14 309.16 437.05 305.28 437.05C301.4 437.05 298.4 434.05 298.4 430.27C298.4 426.49 301.4 423.49 305.28 423.49Z" fill="#4E5F4F"/>
<path d="M350.42 431.24C350.42 425.04 349.16 422.81 345.09 420.78V420.59H361.17V482.58C361.17 488.59 361.94 490.91 365.92 492.94V493.13H350.42V481.51C348.68 488.97 343.35 494.1 335.79 494.1C325.91 494.1 317.58 485.09 317.58 469.69C317.58 454.29 326.1 444.8 336.18 444.8C343.64 444.8 348.68 449.55 350.42 456.81V431.24ZM350.42 474.15V464.75C350.42 454.58 345 448.87 339.77 448.87C333.09 448.87 329.31 457.01 329.31 469.69C329.31 482.37 333.09 489.55 339.77 489.55C344.9 489.55 350.42 484.03 350.42 474.15Z" fill="#4E5F4F"/>
<path d="M406.98 467.46H379.08C379.08 479.95 384.02 488.57 393.12 488.57C398.83 488.57 403.77 485.08 406.2 477.53L406.88 477.63C405.14 488.09 398.65 494.1 388.77 494.1C377.44 494.1 367.95 485.09 367.95 469.5C367.95 454.78 377.54 444.8 388.68 444.8C401.27 444.8 406.99 454.29 406.99 467.47L406.98 467.46ZM396.23 465.33C396.23 455.26 395.26 446.64 388.67 446.64C383.44 446.64 379.56 454.39 379.18 465.33H396.23Z" fill="#4E5F4F"/>
<path d="M209.78 519.8C209.78 513.41 209.01 510.31 204.55 508.18V507.99H226.44V508.18C221.98 510.31 221.11 513.41 221.11 519.8V539.85H249.01V519.8C249.01 513.41 248.24 510.31 243.68 508.18V507.99H265.67V508.18C261.12 510.31 260.34 513.41 260.34 519.8V563.97C260.34 570.36 261.11 573.46 265.67 575.59V575.78H243.68V575.59C248.23 573.46 249.01 570.36 249.01 563.97V542.47H221.11V563.97C221.11 570.36 221.98 573.46 226.44 575.59V575.78H204.55V575.59C209.01 573.46 209.78 570.36 209.78 563.97V519.8Z" fill="#4E5F4F"/>
<path d="M312.93 572C311.28 574.62 308.28 576.55 304.02 576.55C298.69 576.55 295.59 573.45 295.01 568.32C295.01 568.13 294.82 565.8 294.82 565.32C293.75 571.62 288.33 576.46 281.26 576.46C274.58 576.46 268.96 572.59 268.96 564.84C268.96 554.77 278.84 551.96 288.91 549.63L294.72 548.37V539.07C294.72 533.65 292.2 529.29 286.68 529.29C281.84 529.29 279.51 532.39 279.51 536.36C279.51 539.85 281.16 541.98 283.87 541.98C284.26 541.98 284.84 541.88 285.23 541.69C284.46 544.79 281.74 546.34 278.55 546.34C274.29 546.34 271.09 543.72 271.09 538.98C271.09 532.3 277.97 527.45 287.27 527.45C298.89 527.45 305.67 531.71 305.67 542.75C305.67 551.37 305.48 559.12 305.48 565.71C305.48 570.36 307.03 572.59 310.32 572.59C311.39 572.59 312.26 572.3 312.94 571.82V572.01L312.93 572ZM290.56 551.18C283.68 552.92 279.71 556.12 279.71 563C279.71 568.33 282.23 571.04 286.1 571.04C290.65 571.04 294.43 567.07 294.62 559.71L294.72 550.22L290.56 551.19V551.18Z" fill="#4E5F4F"/>
<path d="M341.51 538.68C341.51 536.06 339.86 534.32 336.67 534.32C331.73 534.32 327.37 541.2 327.37 550.79V565.8C327.37 572.19 329.4 573.65 333.96 575.58V575.77H311.97V575.58C315.94 573.55 316.62 572 316.62 565.6V539.06C316.62 532.86 315.55 530.63 311.49 528.6V528.41H327.38V542.55C329.32 534.61 333.48 527.54 340.55 527.54C345.68 527.54 349.27 530.83 349.27 535.68C349.27 541.01 345.78 544.01 341.91 544.01C340.36 544.01 339.1 543.53 338.71 542.94C340.26 542.36 341.52 540.81 341.52 538.68H341.51Z" fill="#4E5F4F"/>
<path d="M363.1 565.42C361.84 570.46 357.48 575.4 352.93 576.66C354 570.95 354.09 563.78 354.09 555.25V513.89C354.09 507.69 352.93 505.46 348.86 503.43V503.24H364.84V540.05C366.49 532.59 371.81 527.46 379.37 527.46C389.35 527.46 397.58 536.47 397.58 551.87C397.58 567.27 388.86 576.76 378.11 576.76C370.94 576.76 365.13 572.59 363.1 565.43V565.42ZM375.4 532C370.27 532 364.84 537.52 364.84 547.5V557.77C364.84 567.84 370.17 573.36 375.3 573.36C382.18 573.36 385.95 564.93 385.95 552.05C385.95 539.17 382.17 532 375.39 532H375.4Z" fill="#4E5F4F"/>
<path d="M401.17 552.05C401.17 537.72 410.37 527.45 422.77 527.45C435.17 527.45 444.27 537.72 444.27 552.05C444.27 566.38 435.07 576.75 422.77 576.75C410.47 576.75 401.17 566.48 401.17 552.05ZM432.55 552.05C432.55 538.78 429.45 529.29 422.77 529.29C416.09 529.29 412.89 538.78 412.89 552.05C412.89 565.32 415.99 574.91 422.77 574.91C429.55 574.91 432.55 565.32 432.55 552.05Z" fill="#4E5F4F"/>
<path d="M476.24 538.68C476.24 536.06 474.59 534.32 471.4 534.32C466.46 534.32 462.1 541.2 462.1 550.79V565.8C462.1 572.19 464.13 573.65 468.69 575.58V575.77H446.7V575.58C450.67 573.55 451.35 572 451.35 565.6V539.06C451.35 532.86 450.28 530.63 446.22 528.6V528.41H462.11V542.55C464.05 534.61 468.21 527.54 475.28 527.54C480.41 527.54 484 530.83 484 535.68C484 541.01 480.51 544.01 476.64 544.01C475.09 544.01 473.83 543.53 473.44 542.94C474.99 542.36 476.25 540.81 476.25 538.68H476.24Z" fill="#4E5F4F"/>
<path d="M154.18 546.48C153.71 553.19 151.3 557.95 145.26 557.95C140.23 557.95 137.08 554.8 137.08 548.02V526.22H133.39V525.68C138.89 524.41 142.65 519.64 143.99 512.93H144.53V524.47H153.32L152.98 526.21H144.52V547.95C144.52 552.04 145.73 553.92 148.28 553.92C151.1 553.92 152.91 551.37 153.58 546.41L154.18 546.48Z" fill="#4E5F4F"/>
<path d="M155.39 540.84C155.39 530.91 161.76 523.8 170.35 523.8C178.94 523.8 185.24 530.91 185.24 540.84C185.24 550.77 178.87 557.95 170.35 557.95C161.83 557.95 155.39 550.84 155.39 540.84ZM177.13 540.84C177.13 531.65 174.98 525.08 170.35 525.08C165.72 525.08 163.51 531.65 163.51 540.84C163.51 550.03 165.66 556.67 170.35 556.67C175.04 556.67 177.13 550.03 177.13 540.84Z" fill="#4E5F4F"/>
<path d="M185.25 570.12H133.74V576.04H185.25V570.12Z" fill="#4E5F4F"/>
<path d="M144.36 148.18C144.36 148.18 221.96 105.79 279.71 187.47C336.08 267.21 382.25 237.24 427.45 222.71C468.78 209.43 478.34 263.37 478.34 263.37V355.88L133.19 405.24V302.62L132.55 219.96L144.36 148.18Z" fill="#4E5F4F"/>
<path d="M133.19 379.12C133.19 379.12 120.78 359.04 261.27 356.08C325.61 354.73 249.08 302.58 331.7 318.83C482.84 348.56 477.38 314.64 477.38 314.64L478.46 407.28H133.19V379.12Z" fill="#91D3CA"/>
<path d="M482.52 409.43H129V216.09C129 167.99 147.73 122.76 181.75 88.75C215.76 54.73 260.98 36 309.09 36C404.72 36 482.53 113.8 482.53 209.44V409.43H482.52ZM137.38 401.05H474.15V209.44C474.15 118.43 400.1 44.38 309.09 44.38C218.08 44.38 137.38 121.4 137.38 216.09V401.06V401.05Z" fill="#4E5F4F"/>
<path d="M364.77 187.47C393.213 187.47 416.27 164.413 416.27 135.97C416.27 107.528 393.213 84.4702 364.77 84.4702C336.327 84.4702 313.27 107.528 313.27 135.97C313.27 164.413 336.327 187.47 364.77 187.47Z" fill="#F49A7A"/>
</g>
<defs>
<clipPath id="clip0_407_204">
<rect width="353.52" height="540.56" fill="white" transform="translate(129 36)"/>
</clipPath>
</defs>
</svg>
