<svg width="300" height="103" viewBox="0 0 300 103" fill="none" xmlns="http://www.w3.org/2000/svg">
<g opacity="0.17">
<path d="M42.3956 100.302C28.5628 100.302 6.23157 98.0449 6.23157 94.688C6.23157 91.8327 21.8875 91.1189 30.2219 92.4019C35.0258 93.1446 38.6721 93.8199 42.3956 93.8199" fill="black"/>
<path d="M42.3955 100.302C56.2283 100.302 78.5595 98.0449 78.5595 94.688C78.5595 91.8327 62.9035 91.1189 54.5691 92.4019C49.7653 93.1446 46.119 93.8199 42.3955 93.8199" fill="black"/>
</g>
<path d="M76.7942 68.1705V50.9711H74.2669V46.7557H73.7267V45.3473L72.3087 44.3344H69.4534H66.5885L65.1704 45.3473V46.7557H64.6303V50.9711H62.1029V57.7235C61.6688 57.5209 61.2348 57.3184 60.8007 57.1254L61.1383 48.5402L60.6946 45.492L61.1383 42.4823L60.6946 39.4341L61.1383 35.9036L60.6946 32.2476L61.1383 27.4148L60.6946 21.3666H57.492L56.9422 27.4148L57.3955 32.2476H55.5049L55.9679 35.9036L55.5049 39.4341H53.1029L52.775 42.4823L53.1029 45.492L52.4856 48.5402H50.209L49.447 53.4888C49.1576 53.4309 48.8586 53.373 48.5692 53.3248V43.9582H47.1126V25.9582H45.1737V13.7557H43.5145L43.4084 8.12222H43.3119L43.1962 3.80067H42.9261L42.8103 8.12222H42.7042L42.5981 13.7557H40.418L40.3023 7.75566H40.2058L40.0804 2.0354H39.8103L39.6849 7.75566H39.5885L39.4727 13.7557H37.8618V27.3087V43.9679H35.0065V53.537C34.7074 53.5949 34.4084 53.6624 34.1094 53.7299L32.7685 30.4823H31.1769L31.0804 27.492H30.9743L30.8586 20.5756H30.5788L30.4631 27.492H30.3569L30.2605 30.4823H27.8971L27.8103 27.7621H27.7042L27.5885 20.8457H27.3184L27.2026 27.7621H27.0965L27.0097 30.4823H25.3119L23.7878 57.164C23.5467 57.2701 23.3055 57.3762 23.0643 57.492V45.4148L16.4277 39.0483V45.4148H16.0129H15.5981V39.0483L8.96145 45.4148V67.0515C4.2637 71.7589 1.15759 77.402 1.15759 83.6238C1.15759 98.8071 18.9936 102.608 28.4856 95.7685C33.955 91.8328 38.1126 88.2251 42.3473 88.2251C46.582 88.2251 50.7396 91.8328 56.209 95.7685C65.701 102.598 83.537 98.8071 83.537 83.6238C83.5177 77.8843 80.8843 72.6463 76.7942 68.1705Z" fill="#41B6E6"/>
<path opacity="0.43" d="M83.7975 62.5178C83.7975 62.5178 175.688 60.386 185.093 59.7011C199.322 58.6496 212.913 57.2413 219.145 56.5564C225.376 55.8715 242.971 54.0869 250.447 43.6786C255.453 36.7139 256.756 23.6239 249.28 14.4117C244.968 9.10623 239.306 6.42456 239.306 6.42456C239.306 6.42456 244.968 6.52102 250.582 11.7011C257.074 17.7011 259.871 22.6979 259.862 30.1448C259.871 40.3217 258.396 45.8201 250.322 52.6786C245.228 57.0098 230.894 62.0837 209.749 62.3249C191.238 62.5275 83.7975 62.5178 83.7975 62.5178Z" fill="#41B6E6"/>
<path opacity="0.52" d="M228.077 65.4888C228.077 65.4888 242.199 64.6881 256.206 61.9389C270.212 59.1897 283.013 52.0997 287.132 48.5691C291.251 45.0289 293.084 40.7846 293.026 36.2894C292.949 29.7781 288.849 28.6109 285.54 29.1704C281.942 29.7878 280.813 32.1511 280.736 37.4662C280.736 37.4662 278.566 35.8167 279.627 29.6527C280.688 23.508 286.244 22.6978 288.048 22.6978C291.685 22.6978 298.109 23.5563 299.402 33.8006C300.791 44.7878 295.322 48.6174 290.99 52.5338C286.65 56.4502 272.894 65.1029 255.695 65.3441C244.37 65.5177 236.035 66.0482 228.077 65.4888Z" fill="#41B6E6"/>
<path opacity="0.52" d="M37.2733 62.9036C37.2733 62.9036 147.077 66.0676 175.804 66.9358C206.537 67.8618 244.534 65.5177 243.357 65.5853C243.357 65.5853 207.887 63.5692 187.486 63.2316C167.084 62.8939 37.2733 62.9036 37.2733 62.9036Z" fill="#41B6E6"/>
<path opacity="0.3" d="M81.8875 64.3989C81.8875 64.3989 172.524 73.1385 190.977 74.2864C204.521 75.1256 238.987 75.087 241.852 75.7044C244.717 76.3218 257.498 77.1417 259.823 84.6369C262.138 92.132 259.717 97.6015 257.074 100.023C257.074 100.023 264.463 98.0838 263.334 84.8587C262.408 73.9874 257.614 72.0484 253.254 69.9455C250.736 68.7301 241.891 66.9552 232.775 68.3057C223.833 69.6272 209.402 69.4632 197.228 68.952C153.135 67.0806 81.8875 64.3989 81.8875 64.3989Z" fill="#41B6E6"/>
<path opacity="0.52" d="M205.678 63.6271C205.678 63.6271 238.871 61.7364 247.129 60.3184C255.396 58.8907 263.064 55.8521 265.563 54.3956C267.463 53.2862 269.431 51.2509 269.315 49.7364C269.122 47.1705 267.087 46.9583 265.129 47.0547C263.103 47.1608 261.675 48.2605 261.849 50.0837C261.849 50.0837 260.257 49.6978 261.048 47.3248C261.839 44.9518 265.765 44.3345 266.749 44.5274C267.733 44.7107 271.167 44.7493 271.669 48.6946C272.199 52.8425 270.357 54.0579 267.714 55.6689C265.08 57.2798 256.698 60.0772 246.723 61.6303C233.884 63.6271 210.318 63.6271 205.678 63.6271Z" fill="#41B6E6"/>
<path opacity="0.52" d="M232.891 66.8201C232.891 66.8201 263.952 66.3571 271.736 67.2156C279.521 68.0741 286.833 70.6111 289.244 71.9133C291.077 72.9069 293.064 74.2284 292.987 76.3892C292.9 78.8104 291.048 79.3699 289.215 79.4085C287.325 79.4471 286.254 78.9841 286.003 76.5628C286.003 76.5628 285.019 77.1127 285.646 79.5628C286.254 81.9262 289.35 82.1866 290.865 81.8587C291.791 81.6657 294.974 81.3185 295.244 77.267C295.524 73.013 293.739 71.9037 291.193 70.4664C288.646 69.0291 280.688 66.7718 271.302 65.9037C259.196 64.7944 237.212 66.4825 232.891 66.8201Z" fill="#41B6E6"/>
<path opacity="0.31" d="M82.4277 76.6303C82.4277 76.6303 83.0547 80.3634 82.2926 82.2445C81.5306 84.1255 80.6817 84.8104 78.8296 84.3088C76.9775 83.8072 76.2155 81.0387 69.5788 77.0933C62.9325 73.148 53.1319 68.7107 42.4727 68.7107C31.8135 68.7107 22.0032 73.148 15.3666 77.0933C8.72029 81.0387 7.96788 83.8072 6.11579 84.3088C4.2637 84.8104 3.41482 84.1255 2.65277 82.2445C1.89071 80.3634 2.51772 76.6303 2.51772 76.6303C-0.848842 89.238 4.55309 91.9679 7.10936 94.1962C9.66563 96.4245 16.0804 97.8811 23.9132 91.8618C31.746 85.8425 42.4823 86.1705 42.4823 86.1705C42.4823 86.1705 53.2187 85.8522 61.0515 91.8618C68.8843 97.8715 75.2991 96.4245 77.8553 94.1962C80.4116 91.9679 85.8039 89.238 82.4277 76.6303Z" fill="white"/>
<path opacity="0.42" d="M71.4309 76.0225C62.1029 68.2379 53.5274 64.8617 42.357 65.016C31.1865 64.8617 22.6013 68.2379 13.2733 76.0225C5.43091 82.582 2.26692 89.6913 9.48235 93.8681C12.9261 95.8649 20.2669 93.2893 25.6592 89.3537C31.0129 85.4469 33.3955 84.8006 42.357 84.8006C51.3184 84.8006 53.701 85.4469 59.0547 89.3537C64.447 93.2893 71.7782 95.8649 75.2316 93.8681C82.447 89.6913 79.283 82.582 71.4309 76.0225Z" fill="white"/>
<path d="M28.4952 66.1543L33.3859 87.434L26.7589 91.0514L19.3602 80.5852L24.1254 92.0739L17.0933 96.2508L4.16724 84L8.37302 78.7717L16.582 85.9003L12.2315 75.9453L18.1158 71.4501L25.3505 80.1993L21.8393 69.5691L28.4952 66.1543Z" fill="#41B6E6"/>
<path d="M54.6464 73.7845L46.4277 73.7942C46.4277 73.7942 46.6303 69.8488 43.0612 69.8488C43.0612 69.8488 39.7525 69.2218 39.7525 73.418V76.6012C39.7525 80.7877 43.0998 80.5273 43.0998 80.5273C46.1866 80.5273 46.5339 78.4726 46.5339 76.254C46.6303 76.1672 54.6464 76.254 54.6464 76.254C54.6464 82.061 52.8136 87.0385 43.2638 87.0385C32.9326 87.0385 32.2477 80.7877 32.2477 77.0835V71.5273C32.2477 65.1897 35.9904 62.7395 42.2123 62.7395C51.9358 62.7395 54.6464 66.4437 54.6464 73.7845Z" fill="#41B6E6"/>
<path d="M60.1254 67.1479L69.0868 70.939C71.3151 72.1737 73.9968 73.8907 75.2508 78.029C75.955 80.3344 76.6592 84.955 74.4212 89.0161C71.9614 93.4727 67.2251 94.5917 62.8746 92.7203L52.2251 88.611L60.1254 67.1479ZM64.2733 77.1994L61.3216 84.2991C61.3216 84.2991 66.492 88.7074 68.9228 84.2316C71.7299 79.0611 65.0064 77.4888 64.2733 77.1994Z" fill="#41B6E6"/>
<path d="M17.9132 25.9775C17.9325 25.9196 17.9421 25.9003 17.9518 25.881C18.164 25.0996 18.3762 24.3086 18.5884 23.5273C18.7814 22.7942 18.9839 22.0611 19.1769 21.3376C19.1962 21.2701 19.2155 21.2508 19.2926 21.2701C19.5048 21.3279 19.7267 21.3858 19.9389 21.4437C21.0965 21.7524 22.254 22.0611 23.4116 22.3697C23.5756 22.418 23.7396 22.4566 23.9132 22.4951C23.9229 22.4855 23.9229 22.4759 23.9325 22.4662C22.7846 21.3183 21.6463 20.18 20.4791 19.0128C21.6367 17.8553 22.7846 16.717 23.9421 15.5595C23.8939 15.5691 23.865 15.5787 23.836 15.5787C22.9968 15.8006 22.1576 16.0321 21.3087 16.254C20.6431 16.4276 19.9872 16.6109 19.3216 16.7942C19.2347 16.8135 19.2058 16.7942 19.1769 16.7074C19.0804 16.3312 18.9743 15.955 18.8778 15.5787C18.5788 14.4694 18.2798 13.3697 17.9807 12.2604C17.9711 12.2122 17.9518 12.164 17.9421 12.1157C17.9132 12.1543 17.8939 12.1929 17.8843 12.2315C17.7396 12.7813 17.5949 13.3215 17.4405 13.8714C17.1897 14.807 16.9389 15.7427 16.6881 16.6784C16.6495 16.8231 16.6495 16.8231 16.5048 16.7845C15.9743 16.6398 15.4341 16.4951 14.8939 16.3504C13.9582 16.0996 13.0225 15.8488 12.0965 15.598C12.0483 15.5884 12 15.5787 11.9229 15.5691C11.9614 15.6173 11.9807 15.6366 12 15.6559C12.2605 15.9164 12.5209 16.1768 12.7814 16.4469C13.6206 17.2861 14.4695 18.135 15.3087 18.9742C15.3666 19.0321 15.3569 19.0611 15.3087 19.1093C15.2122 19.1961 15.1254 19.2926 15.0386 19.3794C14.0257 20.3922 13.0225 21.3955 12.0097 22.4083C11.9807 22.4373 11.9614 22.4662 11.9229 22.5048C11.9807 22.4951 12.0097 22.4951 12.0386 22.4855C12.7814 22.2926 13.5241 22.09 14.2669 21.8874C15.0193 21.6849 15.7621 21.4823 16.5145 21.2797C16.6688 21.2411 16.6688 21.2411 16.7074 21.3955C16.7749 21.6656 16.8521 21.926 16.9196 22.1961C17.1994 23.2379 17.4791 24.2797 17.7589 25.3215C17.7878 25.5337 17.8457 25.7459 17.9132 25.9775Z" fill="#ED2124"/>
<path opacity="0.07" d="M75.1833 78.3183C61.5145 66.926 51.0289 64.8134 42.9453 64.9871C34.8714 64.8134 24.3762 66.9356 10.717 78.3183C3.95497 83.9517 2.00642 87.8488 9.86815 87.2314C13.6206 86.9421 20.7588 83.5851 25.7556 80.3054C30.7138 77.045 34.4855 73.0321 42.9453 73.2057C51.4051 73.0224 55.1768 77.045 60.135 80.3054C65.1318 83.5851 72.2701 86.9421 76.0225 87.2314C83.8842 87.8392 81.9357 83.9517 75.1833 78.3183Z" fill="white"/>
<path opacity="0.19" d="M75.0386 66.7911C61.254 54.2123 47.4598 52.7654 42.4051 52.7654C28.746 52.7654 14.1704 61.9197 9.57878 66.5017C-0.733122 76.8233 16.1865 61.0901 33.299 58.4567C38.2379 57.6946 42.4051 57.6946 42.4051 57.6946C42.4051 57.6946 46.582 57.6946 51.5113 58.4567C68.6238 61.0901 85.8135 76.6303 75.0386 66.7911Z" fill="white"/>
<g opacity="0.29">
<mask id="mask0_402_163" style="mask-type:luminance" maskUnits="userSpaceOnUse" x="1" y="53" width="42" height="46">
<path d="M42.4437 53.1125C27.5884 53.1125 1.25403 65.1318 1.25403 82.9679C1.25403 98.1511 19.09 101.952 28.582 95.1126C34.0515 91.1769 38.209 87.5691 42.4437 87.5691" fill="white"/>
</mask>
<g mask="url(#mask0_402_163)">
<path d="M18.0771 68.1608C18.0964 68.1029 18.1061 68.0836 18.1157 68.0643C18.3279 67.283 18.5402 66.492 18.7524 65.7106C18.9453 64.9775 19.1479 64.2444 19.3408 63.5209C19.3601 63.4534 19.3794 63.4341 19.4566 63.4534C19.6688 63.5113 19.8906 63.5692 20.1029 63.627C21.2604 63.9357 22.418 64.2444 23.5755 64.5531C23.7395 64.6013 23.9035 64.6399 24.0771 64.6785C24.0868 64.6688 24.0868 64.6592 24.0964 64.6496C22.9485 63.5016 21.8103 62.3634 20.6431 61.1962C21.8006 60.0386 22.9485 58.9004 24.1061 57.7428C24.0579 57.7524 24.0289 57.7621 24 57.7621C23.1607 57.984 22.3215 58.2155 21.4726 58.4373C20.807 58.611 20.1511 58.7942 19.4855 58.9775C19.3987 58.9968 19.3698 58.9775 19.3408 58.8907C19.2443 58.5145 19.1382 58.1383 19.0418 57.7621C18.7427 56.6528 18.4437 55.5531 18.1447 54.4438C18.135 54.3955 18.1157 54.3473 18.1061 54.2991C18.0771 54.3377 18.0579 54.3762 18.0482 54.4148C17.9035 54.9647 17.7588 55.5049 17.6045 56.0547C17.3537 56.9904 17.1029 57.9261 16.8521 58.8618C16.8135 59.0065 16.8135 59.0065 16.6688 58.9679C16.1382 58.8232 15.598 58.6785 15.0579 58.5338C14.1222 58.283 13.1865 58.0322 12.2604 57.7814C12.2122 57.7717 12.164 57.7621 12.0868 57.7524C12.1254 57.8007 12.1447 57.82 12.164 57.8393C12.4244 58.0997 12.6849 58.3602 12.9453 58.6303C13.7845 59.4695 14.6334 60.3184 15.4726 61.1576C15.5305 61.2155 15.5209 61.2444 15.4726 61.2926C15.3762 61.3795 15.2894 61.4759 15.2025 61.5627C14.1897 62.5756 13.1865 63.5788 12.1736 64.5917C12.1447 64.6206 12.1254 64.6496 12.0868 64.6881C12.1447 64.6785 12.1736 64.6785 12.2025 64.6688C12.9453 64.4759 13.6881 64.2733 14.4308 64.0708C15.1833 63.8682 15.926 63.6656 16.6784 63.4631C16.8328 63.4245 16.8328 63.4245 16.8714 63.5788C16.9389 63.8489 17.0161 64.1094 17.0836 64.3795C17.3633 65.4213 17.6431 66.4631 17.9228 67.5049C17.9517 67.7171 18.0096 67.9196 18.0771 68.1608Z" fill="#ED2124"/>
</g>
</g>
<path d="M108.039 70.746C106.196 69.1351 103.621 68.3345 100.312 68.3345H92.701V87.0579H99.6753C103.273 87.0579 106.023 86.238 107.942 84.6078C109.862 82.9776 110.817 80.6142 110.817 77.5177C110.798 74.6142 109.881 72.357 108.039 70.746ZM103.987 82.4084C103.061 83.4695 101.634 84.0001 99.7043 84.0001H97.9872V71.3441H100.109C103.611 71.3441 105.367 73.4374 105.367 77.6239C105.367 79.7557 104.904 81.3473 103.987 82.4084Z" fill="black"/>
<path d="M125.913 74.2187C124.553 73.0901 122.691 72.521 120.328 72.521C117.801 72.521 115.823 73.1866 114.405 74.5081C112.987 75.8297 112.283 77.6721 112.283 80.0258C112.283 82.3506 113.064 84.1448 114.627 85.4085C116.19 86.6721 118.331 87.3088 121.042 87.3088C123.367 87.3088 125.354 86.9808 127.023 86.3249V83.5178C125.257 84.2123 123.531 84.5596 121.843 84.5596C120.521 84.5596 119.479 84.2509 118.727 83.6335C117.974 83.0162 117.579 82.0708 117.54 80.7975H127.958V78.9744C127.958 76.9294 127.273 75.3474 125.913 74.2187ZM117.617 78.3184C117.695 77.238 117.974 76.4374 118.457 75.9165C118.939 75.3956 119.547 75.1448 120.29 75.1448C121.081 75.1448 121.708 75.4149 122.161 75.9551C122.614 76.4953 122.855 77.2863 122.884 78.3281H117.617V78.3184Z" fill="black"/>
<path d="M139.997 72.791C138.096 78.4727 137.103 81.5113 136.997 81.9068C136.891 82.3119 136.794 82.746 136.698 83.2283C136.601 83.7106 136.543 84.0772 136.534 84.328H136.457C136.418 84 136.322 83.4695 136.158 82.7364C135.994 81.9936 135.859 81.4341 135.743 81.0483L132.974 72.791H127.601L133.264 87.0579H139.688L145.37 72.791H139.997Z" fill="black"/>
<path d="M157.177 81.2027C156.878 80.7204 156.453 80.2959 155.913 79.9197C155.363 79.5435 154.418 79.0901 153.068 78.5499C151.949 78.1062 151.187 77.73 150.781 77.431C150.376 77.1319 150.164 76.7943 150.164 76.4085C150.164 76.0708 150.328 75.7911 150.656 75.5596C150.984 75.3281 151.486 75.2123 152.142 75.2123C153.193 75.2123 154.418 75.4631 155.807 75.9551L157.505 73.5049C155.807 72.8393 153.994 72.5017 152.074 72.5017C149.865 72.5017 148.129 72.8586 146.865 73.5628C145.601 74.267 144.965 75.2316 144.965 76.447C144.965 77.3924 145.302 78.2123 145.987 78.9165C146.672 79.611 147.791 80.267 149.363 80.8843C150.54 81.357 151.36 81.7525 151.794 82.0708C152.238 82.3988 152.46 82.775 152.46 83.2091C152.46 83.6335 152.248 83.9808 151.823 84.2413C151.399 84.5017 150.791 84.6271 149.981 84.6271C149.257 84.6271 148.408 84.521 147.463 84.3088C146.508 84.0966 145.679 83.8265 144.965 83.4985V86.4599C146.363 87.0194 148.138 87.2895 150.28 87.2895C152.691 87.2895 154.524 86.9036 155.759 86.1223C157.003 85.3409 157.621 84.2509 157.621 82.8618C157.621 82.2445 157.476 81.685 157.177 81.2027Z" fill="black"/>
<path d="M118.572 42.3089L110.894 57.0388L110.576 42.3089H105.936L98.2379 57.0388L97.9196 42.2413C97.6784 42.2221 97.4469 42.2124 97.2154 42.2028C96.9839 42.1931 96.7331 42.1931 96.4534 42.1931C95.4309 42.1931 94.3987 42.2703 93.3762 42.4343C92.344 42.5983 91.3601 42.8201 90.4148 43.0999C89.4694 43.3893 88.582 43.7269 87.7524 44.1127C86.9228 44.5082 86.209 44.9327 85.5916 45.3957C84.9743 45.8587 84.4919 46.3507 84.1447 46.8619C83.7974 47.3828 83.6141 47.9037 83.6141 48.4343C83.6141 48.8684 83.701 49.2446 83.8746 49.534C84.0482 49.833 84.299 50.0741 84.627 50.2478C84.955 50.4311 85.3601 50.5565 85.8521 50.6433C86.344 50.7301 86.9035 50.7687 87.5305 50.7687C87.5305 50.7204 87.5016 50.6626 87.4534 50.6047C87.3955 50.5372 87.3473 50.4504 87.2797 50.3442C87.2219 50.2285 87.164 50.0741 87.1061 49.8812C87.0482 49.6883 87.0289 49.4375 87.0289 49.1385C87.0289 47.7976 87.5112 46.6786 88.4662 45.7815C89.4212 44.8844 90.762 44.2188 92.4791 43.7944L93.0675 60.2221H98.3344L105.28 47.9809L105.704 60.2221H110.971L121.148 42.2992H118.572V42.3089Z" fill="#41B6E6"/>
<path d="M180.54 55.9102C180.395 56.2189 180.231 56.4986 180.048 56.7591C179.865 57.0195 179.653 57.251 179.402 57.4343C179.151 57.6176 178.891 57.7719 178.592 57.878C178.293 57.9841 177.965 58.0324 177.608 58.0324C177.395 58.0324 177.222 58.0034 177.077 57.9456C176.942 57.8877 176.826 57.8105 176.749 57.714C176.662 57.6176 176.604 57.5018 176.566 57.3764C176.527 57.251 176.508 57.116 176.508 56.9809C176.508 56.7784 176.547 56.5758 176.614 56.3732L179.238 48.2028H173.971L171.492 55.9198C171.473 55.9777 171.453 56.0356 171.444 56.0935C171.424 56.1128 171.405 56.132 171.376 56.1513C171.135 56.3346 168.907 57.7816 168.608 57.8877C168.309 57.9938 167.971 58.042 167.614 58.042C167.103 58.042 166.727 57.9745 166.476 57.8491C166.235 57.7237 166.109 57.4825 166.109 57.1449C166.109 57.0195 166.119 56.8941 166.148 56.7591C166.167 56.6337 166.215 56.4986 166.273 56.3636L170.469 43.3796L165.058 43.862L163.273 49.3893V49.2928C163.273 48.9456 163.042 48.6562 162.569 48.4247C162.096 48.1931 161.344 48.0677 160.312 48.0677C159.251 48.0677 158.286 48.2028 157.399 48.4632C156.521 48.7237 155.73 49.0806 155.035 49.5243C154.341 49.9681 153.733 50.4793 153.212 51.0484C152.691 51.6176 152.267 52.2253 151.92 52.8523C151.572 53.4793 151.322 54.1063 151.148 54.7333C151.032 55.1578 150.965 55.5533 150.926 55.9391C150.733 56.2285 150.463 56.4214 150.27 56.6722C150.077 56.9327 149.469 57.2607 149.228 57.4439C148.987 57.6272 148.727 57.7719 148.428 57.878C148.129 57.9841 147.781 58.0324 147.395 58.0324C146.836 58.0324 146.45 57.9359 146.248 57.7526C146.045 57.5693 145.939 57.3185 145.939 57.0292C145.939 56.7976 145.987 56.5372 146.074 56.2382C146.161 55.9391 146.277 55.6111 146.402 55.2542C146.537 54.8973 146.672 54.5308 146.817 54.1546C146.961 53.7687 147.106 53.3829 147.231 52.997C147.367 52.6112 147.473 52.2253 147.559 51.8587C147.646 51.4825 147.695 51.1449 147.695 50.8169C147.695 50.3443 147.588 49.9295 147.395 49.5822C147.193 49.2349 146.913 48.9552 146.547 48.7333C146.18 48.5115 145.756 48.3571 145.254 48.251C144.752 48.1449 144.212 48.0967 143.633 48.0967C143.344 48.0967 143.045 48.116 142.717 48.1449C142.389 48.1739 142.042 48.2414 141.675 48.3282C141.309 48.4247 140.932 48.5597 140.537 48.7333C140.151 48.907 139.756 49.1385 139.37 49.4375L139.765 48.1931H134.498L132.347 54.8684C132.231 55.071 132.087 55.2735 131.932 55.4568C131.711 55.7173 129.502 57.2414 129.212 57.4343C128.923 57.6176 128.614 57.7719 128.277 57.878C127.939 57.9841 127.592 58.0324 127.235 58.0324C126.723 58.0324 126.347 57.9648 126.106 57.8394C125.865 57.714 125.749 57.4729 125.749 57.1353C125.749 57.0099 125.759 56.8845 125.778 56.7494C125.797 56.624 125.836 56.489 125.894 56.3539L128.518 48.1835H123.251L120.772 55.9005C120.675 56.2092 120.608 56.489 120.559 56.7494C120.511 57.0099 120.492 57.251 120.492 57.4729C120.492 57.9841 120.598 58.4182 120.791 58.7751C120.994 59.132 121.273 59.4311 121.621 59.6626C121.968 59.8941 122.383 60.0677 122.865 60.1835C123.338 60.2896 123.849 60.3475 124.399 60.3475C124.717 60.3475 125.084 60.3282 125.498 60.2896C125.913 60.251 126.338 60.1739 126.791 60.0677C127.244 59.9616 127.707 59.7976 128.19 59.5951C128.672 59.3925 129.145 59.1224 129.598 58.7944C129.859 58.6111 130.746 57.9745 131.537 57.3764L130.63 60.2028H135.897L138.376 52.4857C138.521 52.1771 138.685 51.8973 138.878 51.6176C139.071 51.3475 139.283 51.116 139.524 50.9134C139.765 50.7108 140.026 50.5565 140.305 50.4407C140.595 50.325 140.904 50.2671 141.231 50.2671C142.109 50.2671 142.553 50.6819 142.553 51.5018C142.553 51.8877 142.466 52.3411 142.293 52.8716C142.119 53.4021 141.936 53.952 141.733 54.5308C141.531 55.0999 141.347 55.6594 141.174 56.1996C141 56.7398 140.913 57.2221 140.913 57.6272C140.913 57.9745 140.99 58.3025 141.135 58.6304C141.28 58.9584 141.521 59.2478 141.859 59.4986C142.196 59.7494 142.63 59.952 143.18 60.1063C143.73 60.2607 144.405 60.3378 145.215 60.3378C145.707 60.3378 146.238 60.2896 146.817 60.1931C147.395 60.0967 147.984 59.8941 148.582 59.5854C149.18 59.2767 149.778 58.8234 150.367 58.2446C150.588 58.0227 150.81 57.7623 151.022 57.4825C151.09 57.7719 151.186 58.042 151.322 58.2735C151.592 58.7655 151.958 59.161 152.412 59.4697C152.865 59.7784 153.386 59.9906 153.965 60.1256C154.543 60.2607 155.151 60.3282 155.788 60.3282C156.434 60.3282 157.022 60.2607 157.572 60.1353C158.122 60.0099 158.614 59.8362 159.068 59.6337C159.511 59.4214 159.916 59.1899 160.264 58.9295C160.611 58.669 160.929 58.3989 161.199 58.1288C161.344 58.8137 161.72 59.325 162.338 59.6722C162.955 60.0195 163.775 60.1931 164.788 60.1931C165.106 60.1931 165.463 60.1739 165.859 60.1449C166.254 60.116 166.659 60.0485 167.093 59.9423C167.518 59.8362 167.961 59.6915 168.415 59.4986C168.781 59.3443 170.392 58.3121 171.231 57.7526C171.26 58.1385 171.357 58.4665 171.521 58.7558C171.723 59.1128 172.003 59.4118 172.35 59.6433C172.698 59.8748 173.113 60.0484 173.595 60.1642C174.068 60.2703 174.579 60.3282 175.129 60.3282C175.447 60.3282 175.785 60.3089 176.141 60.28C176.498 60.2414 176.865 60.1738 177.251 60.0774C177.627 59.9809 178.022 59.8362 178.408 59.6626C178.804 59.4793 179.19 59.2478 179.585 58.9488L179.209 60.0099C178.331 60.1835 177.502 60.3571 176.74 60.5404C175.968 60.7237 175.302 60.9456 174.733 61.2156C174.164 61.4857 173.711 61.8041 173.383 62.1899C173.055 62.5758 172.891 63.0485 172.891 63.6079C172.891 64.0034 173.016 64.3507 173.257 64.669C173.498 64.9874 173.826 65.2575 174.222 65.489C174.617 65.7205 175.08 65.8941 175.601 66.0195C176.122 66.1449 176.653 66.2028 177.203 66.2028C177.801 66.2028 178.428 66.1546 179.103 66.0484C179.778 65.9423 180.415 65.7494 181.032 65.4504C181.649 65.1513 182.199 64.7365 182.711 64.206C183.212 63.6755 183.598 62.9809 183.859 62.1128L188.325 48.1642H183.019L180.54 55.9102ZM161.161 55.9102V56.0356C161.045 56.3732 160.862 56.6626 160.63 56.9134C160.399 57.1642 160.138 57.3764 159.858 57.5404C159.579 57.7044 159.289 57.8298 158.981 57.907C158.682 57.9938 158.402 58.0324 158.151 58.0324C157.987 58.0324 157.794 58.0227 157.582 57.9938C157.37 57.9745 157.167 57.8973 156.984 57.7719C156.801 57.6465 156.646 57.4632 156.511 57.2124C156.376 56.9616 156.318 56.6047 156.318 56.1417C156.318 55.7655 156.376 55.3411 156.482 54.8684C156.588 54.3957 156.743 53.9134 156.955 53.4214C157.167 52.9295 157.418 52.4568 157.717 51.9938C158.016 51.5308 158.354 51.116 158.73 50.7591C159.106 50.3925 159.531 50.1031 159.984 49.8812C160.437 49.6594 160.929 49.5533 161.44 49.5533C161.73 49.5533 161.961 49.5822 162.145 49.6401C162.328 49.698 162.473 49.7751 162.579 49.862C162.685 49.9488 162.762 50.0452 162.82 50.1417C162.878 50.2382 162.916 50.3153 162.936 50.3925L161.161 55.9102ZM178.514 62.2189C178.399 62.5758 178.254 62.8845 178.09 63.1256C177.926 63.3668 177.743 63.5597 177.55 63.7044C177.357 63.8491 177.154 63.9456 176.942 64.0131C176.73 64.071 176.537 64.0999 176.363 64.0999C176.151 64.0999 175.949 64.071 175.775 64.0227C175.592 63.9745 175.437 63.907 175.312 63.8394C175.177 63.7623 175.08 63.6851 175.013 63.5886C174.945 63.4922 174.907 63.4054 174.907 63.3089C174.907 62.9906 175.013 62.7012 175.215 62.4407C175.428 62.1899 175.707 61.9584 176.074 61.7558C176.441 61.5533 176.865 61.3796 177.367 61.2253C177.868 61.071 178.399 60.9263 178.977 60.8009L178.514 62.2189Z" fill="#41B6E6"/>
<path d="M256.418 48.2028L253.939 55.9198C253.794 56.2285 253.63 56.5082 253.447 56.7687C253.264 57.0291 253.051 57.2606 252.801 57.4439C252.55 57.6272 252.289 57.7815 251.99 57.8876C251.691 57.9938 251.363 58.042 251.006 58.042C250.794 58.042 250.621 58.013 250.476 57.9552C250.341 57.8973 250.225 57.8201 250.148 57.7237C250.061 57.6272 250.003 57.5114 249.974 57.386C249.936 57.2606 249.916 57.1256 249.916 56.9905C249.916 56.788 249.955 56.5854 250.022 56.3828L252.646 48.2124H247.379L245.489 54.0774C245.161 54.3957 244.775 54.7429 244.611 54.8587C244.322 55.042 240.762 57.7912 240.424 57.8973C240.087 58.0034 239.74 58.0516 239.383 58.0516C238.871 58.0516 238.495 57.9841 238.254 57.8587C238.013 57.7333 237.897 57.4921 237.897 57.1545C237.897 57.0291 237.907 56.9037 237.926 56.7687C237.945 56.6433 237.984 56.5082 238.042 56.3732L240.376 49.1674H242.576L242.865 48.2028H240.675L241.929 44.4021L236.518 44.8844L235.408 48.2028H234.212L233.904 49.1674H235.119L232.92 55.9198C232.881 56.0452 232.842 56.161 232.813 56.2864C231.531 57.0388 229.495 58.2156 229.235 58.2928C228.858 58.4085 228.482 58.4664 228.087 58.4664C227.518 58.4664 227.113 58.3989 226.852 58.2542C226.592 58.1095 226.457 57.8587 226.457 57.5018C226.457 57.3667 226.466 57.2317 226.485 57.087C226.505 56.952 226.553 56.8073 226.611 56.6626L229.505 47.8265H223.707L221.643 54.1256C220.1 55.0806 214.939 57.2896 213.82 57.6754C212.595 58.0999 211.264 58.3121 209.817 58.3121C208.92 58.3121 208.196 58.2253 207.627 58.0323C207.058 57.8491 206.614 57.5886 206.286 57.2606C205.958 56.9327 205.736 56.5372 205.611 56.0838C205.486 55.6208 205.428 55.1192 205.428 54.5597C205.428 53.7494 205.524 52.9005 205.717 52.0227C205.91 51.1449 206.17 50.296 206.498 49.4664C206.836 48.6368 207.231 47.8458 207.704 47.1031C208.177 46.3603 208.688 45.7044 209.257 45.1449C209.826 44.5854 210.424 44.1417 211.061 43.8137C211.698 43.4857 212.354 43.3217 213.039 43.3217C213.444 43.3217 213.791 43.3603 214.071 43.4471C214.36 43.5339 214.592 43.6401 214.765 43.7751C214.949 43.9101 215.074 44.0645 215.151 44.2478C215.228 44.4311 215.267 44.6143 215.267 44.7976C215.267 45.0291 215.219 45.2703 215.122 45.5018C215.026 45.7333 214.9 45.9552 214.746 46.1577C214.592 46.3603 214.408 46.5339 214.206 46.6883C214.003 46.8426 213.791 46.9487 213.579 47.0259C213.926 47.296 214.283 47.4696 214.659 47.5468C215.035 47.6143 215.363 47.6529 215.653 47.6529C216.116 47.6529 216.511 47.595 216.839 47.4889C217.167 47.3828 217.437 47.2285 217.64 47.0259C217.852 46.8233 217.997 46.5918 218.084 46.3217C218.17 46.0516 218.219 45.7526 218.219 45.4343C218.219 44.8651 218.064 44.3732 217.746 43.968C217.428 43.5629 216.994 43.2253 216.444 42.9648C215.894 42.7044 215.238 42.5211 214.495 42.3957C213.752 42.2703 212.961 42.2124 212.113 42.2124C210.907 42.2124 209.807 42.3282 208.813 42.5693C207.81 42.8105 206.903 43.1384 206.084 43.5532C205.264 43.968 204.521 44.46 203.875 45.0195C203.219 45.579 202.64 46.1867 202.138 46.833C201.637 47.4793 201.212 48.1545 200.865 48.8491C200.518 49.5436 200.228 50.2381 199.997 50.923C199.775 51.6079 199.611 52.2831 199.505 52.9294C199.399 53.5757 199.35 54.1738 199.35 54.7237C199.35 55.804 199.514 56.7204 199.842 57.4729C200.17 58.2253 200.662 58.833 201.328 59.3056C201.984 59.7783 202.823 60.1159 203.817 60.3282C204.82 60.5404 205.997 60.6465 207.347 60.6465C208.196 60.6465 209.113 60.5597 210.125 60.3957C211.129 60.2317 212.122 59.9712 213.087 59.6143C214.061 59.2574 214.958 58.7944 215.788 58.2253C216.376 57.8298 219.376 56.3635 221.267 55.2542L220.968 56.1803C220.862 56.5082 220.785 56.8169 220.736 57.0966C220.688 57.3764 220.659 57.6368 220.659 57.878C220.659 58.4278 220.775 58.9005 220.997 59.2864C221.219 59.6722 221.527 60.0002 221.913 60.251C222.299 60.5018 222.752 60.6947 223.283 60.8105C223.804 60.9262 224.373 60.9841 224.971 60.9841C225.328 60.9841 225.723 60.9648 226.177 60.9166C226.63 60.878 227.103 60.7912 227.604 60.6754C228.106 60.5597 228.617 60.386 229.148 60.1642C229.678 59.9423 230.199 59.6529 230.701 59.296C230.913 59.1513 231.752 58.6111 232.678 57.9938C232.727 58.2928 232.813 58.5629 232.949 58.7944C233.151 59.1513 233.431 59.4503 233.778 59.6819C234.125 59.9134 234.54 60.087 235.022 60.2028C235.495 60.3089 236.006 60.3667 236.556 60.3667C236.875 60.3667 237.241 60.3475 237.656 60.3089C238.071 60.2703 238.495 60.1931 238.949 60.087C239.402 59.9809 239.865 59.8169 240.347 59.6143C240.83 59.4118 242.595 57.8491 243.058 57.5114C243.27 57.3571 244.042 56.7687 244.842 56.1417C244.785 56.3635 244.727 56.5661 244.698 56.7687C244.649 57.0291 244.63 57.2703 244.63 57.4921C244.63 58.0034 244.736 58.4375 244.929 58.7944C245.132 59.1513 245.412 59.4503 245.759 59.6819C246.106 59.9134 246.521 60.087 247.003 60.2028C247.476 60.3089 247.987 60.3667 248.537 60.3667C248.855 60.3667 249.193 60.3474 249.55 60.3185C249.907 60.2799 250.273 60.2124 250.659 60.1159C251.035 60.0195 251.431 59.8748 251.817 59.7012C252.212 59.5179 252.598 59.2864 252.994 58.9873L252.617 60.0484C251.74 60.222 250.91 60.3957 250.148 60.579C249.376 60.7622 248.711 60.9841 248.141 61.2542C247.572 61.5243 247.119 61.8426 246.791 62.2285C246.463 62.6143 246.299 63.087 246.299 63.6465C246.299 64.042 246.424 64.3892 246.666 64.7076C246.907 65.0259 247.235 65.296 247.63 65.5275C248.026 65.759 248.489 65.9327 249.01 66.0581C249.531 66.1835 250.061 66.2413 250.611 66.2413C251.209 66.2413 251.836 66.1931 252.511 66.087C253.186 65.9809 253.823 65.788 254.44 65.4889C255.058 65.1899 255.617 64.7751 256.119 64.2446C256.621 63.714 257.006 63.0195 257.267 62.1513L261.733 48.2028H256.418ZM251.923 62.2188C251.807 62.5757 251.662 62.8844 251.498 63.1256C251.334 63.3667 251.151 63.5597 250.958 63.7044C250.765 63.8491 250.563 63.9455 250.35 64.013C250.138 64.0709 249.945 64.0999 249.772 64.0999C249.559 64.0999 249.357 64.0709 249.183 64.0227C249.01 63.9745 248.846 63.9069 248.72 63.8394C248.585 63.7622 248.489 63.6851 248.421 63.5886C248.354 63.4921 248.315 63.4053 248.315 63.3089C248.315 62.9905 248.421 62.7011 248.624 62.4407C248.836 62.1899 249.116 61.9584 249.482 61.7558C249.849 61.5532 250.273 61.3796 250.775 61.2253C251.276 61.0709 251.807 60.9262 252.386 60.8008L251.923 62.2188Z" fill="#41B6E6"/>
<path d="M226.813 47.0934C226.833 47.0452 226.842 47.0259 226.842 47.0066C227.035 46.3024 227.219 45.5982 227.412 44.8844C227.585 44.2284 227.759 43.5725 227.932 42.9165C227.952 42.8587 227.971 42.8394 228.029 42.8587C228.222 42.9165 228.415 42.9648 228.608 43.013C229.649 43.2928 230.682 43.5725 231.723 43.8522C231.868 43.8908 232.022 43.9294 232.167 43.968C232.167 43.9583 232.177 43.9487 232.177 43.9487C231.145 42.9165 230.122 41.894 229.08 40.8426C230.122 39.8008 231.154 38.7783 232.196 37.7365C232.148 37.7461 232.129 37.7461 232.1 37.7558C231.347 37.9583 230.585 38.1609 229.833 38.3635C229.235 38.5275 228.646 38.6818 228.048 38.8458C227.971 38.8651 227.942 38.8458 227.923 38.7686C227.836 38.431 227.739 38.0934 227.653 37.7461C227.383 36.7526 227.122 35.759 226.852 34.7654C226.842 34.7172 226.823 34.6786 226.813 34.6304C226.785 34.669 226.765 34.6979 226.765 34.7365C226.63 35.2284 226.505 35.7204 226.37 36.2027C226.148 37.0419 225.916 37.8812 225.694 38.73C225.656 38.8555 225.656 38.8555 225.53 38.8265C225.048 38.7011 224.566 38.5661 224.084 38.4407C223.244 38.2188 222.405 37.9873 221.566 37.7654C221.527 37.7558 221.479 37.7461 221.412 37.7365C221.45 37.7751 221.46 37.7944 221.479 37.8137C221.711 38.0452 221.942 38.2863 222.183 38.5178C222.936 39.2702 223.698 40.0323 224.45 40.7847C224.498 40.8329 224.489 40.8619 224.45 40.9101C224.363 40.9873 224.286 41.0741 224.209 41.1513C223.302 42.058 222.395 42.9648 221.489 43.8715C221.469 43.8908 221.44 43.9198 221.402 43.9583C221.45 43.9487 221.479 43.9487 221.498 43.9391C222.164 43.7654 222.83 43.5821 223.495 43.4085C224.17 43.2252 224.836 43.0419 225.511 42.8683C225.646 42.8297 225.646 42.8297 225.685 42.9648C225.752 43.2059 225.81 43.4471 225.878 43.6882C226.129 44.6239 226.379 45.5596 226.63 46.4953C226.698 46.6882 226.756 46.8812 226.813 47.0934Z" fill="#ED2124"/>
<path d="M126.232 47.0934C126.251 47.0452 126.26 47.0259 126.26 47.0066C126.453 46.3024 126.637 45.5982 126.83 44.8844C127.003 44.2284 127.177 43.5725 127.35 42.9165C127.37 42.8587 127.389 42.8394 127.447 42.8587C127.64 42.9165 127.833 42.9648 128.026 43.013C129.068 43.2928 130.1 43.5725 131.141 43.8522C131.286 43.8908 131.441 43.9294 131.585 43.968C131.585 43.9583 131.595 43.9487 131.595 43.9487C130.563 42.9165 129.54 41.894 128.498 40.8426C129.54 39.8008 130.572 38.7783 131.614 37.7365C131.566 37.7461 131.547 37.7461 131.518 37.7558C130.765 37.9583 130.003 38.1609 129.251 38.3635C128.653 38.5275 128.064 38.6818 127.466 38.8458C127.389 38.8651 127.36 38.8458 127.341 38.7686C127.254 38.431 127.158 38.0934 127.071 37.7461C126.801 36.7526 126.54 35.759 126.27 34.7654C126.26 34.7172 126.241 34.6786 126.232 34.6304C126.203 34.669 126.183 34.6979 126.183 34.7365C126.048 35.2284 125.923 35.7204 125.788 36.2027C125.566 37.0419 125.334 37.8812 125.113 38.73C125.074 38.8555 125.074 38.8555 124.949 38.8265C124.466 38.7011 123.984 38.5661 123.502 38.4407C122.662 38.2188 121.823 37.9873 120.984 37.7654C120.945 37.7558 120.897 37.7461 120.83 37.7365C120.868 37.7751 120.878 37.7944 120.897 37.8137C121.129 38.0452 121.36 38.2863 121.601 38.5178C122.354 39.2702 123.116 40.0323 123.868 40.7847C123.916 40.8329 123.907 40.8619 123.868 40.9101C123.781 40.9873 123.704 41.0741 123.627 41.1513C122.72 42.058 121.814 42.9648 120.907 43.8715C120.887 43.8908 120.859 43.9198 120.82 43.9583C120.868 43.9487 120.897 43.9487 120.916 43.9391C121.582 43.7654 122.248 43.5821 122.913 43.4085C123.588 43.2252 124.254 43.0419 124.929 42.8683C125.064 42.8297 125.064 42.8297 125.103 42.9648C125.17 43.2059 125.228 43.4471 125.296 43.6882C125.547 44.6239 125.797 45.5596 126.048 46.4953C126.125 46.6882 126.174 46.8812 126.232 47.0934Z" fill="#ED2124"/>
</svg>
