<?xml version="1.0" standalone="no"?>
<!DOCTYPE svg PUBLIC "-//W3C//DTD SVG 20010904//EN"
 "http://www.w3.org/TR/2001/REC-SVG-20010904/DTD/svg10.dtd">
<svg version="1.0" xmlns="http://www.w3.org/2000/svg"
 width="1030.000000pt" height="1030.000000pt" viewBox="0 0 1030.000000 1030.000000"
 preserveAspectRatio="xMidYMid meet">
<metadata>
Created by potrace 1.14, written by Peter Selinger 2001-2017
</metadata>
<g transform="translate(0.000000,1030.000000) scale(0.100000,-0.100000)"
fill="#000000" stroke="none">
<path d="M792 10295 c3 -4 937 -7 2074 -8 l2069 -2 -2 -80 c-1 -44 -2 -122 -3
-172 -1 -64 -5 -93 -13 -93 -9 0 -9 -2 -1 -8 15 -9 15 -64 0 -55 -8 5 -8 3 0
-8 11 -14 11 -78 -1 -196 -3 -34 -7 -143 -8 -242 -2 -99 -6 -183 -9 -187 -4
-4 -2 -16 4 -27 8 -16 8 -22 -1 -25 -9 -3 -9 -8 1 -20 11 -13 11 -15 -2 -7
-11 6 -12 5 -5 -4 6 -6 9 -26 7 -44 l-4 -33 -74 1 c-43 1 -78 -3 -82 -9 -4 -6
-7 -706 -8 -1556 0 -850 -3 -1550 -7 -1556 -4 -7 -52 -11 -132 -10 -69 1 -133
-2 -142 -5 -11 -4 -17 -18 -17 -48 -1 -23 2 -45 6 -47 4 -3 4 -15 -1 -27 -9
-24 -8 -65 2 -90 3 -9 2 -19 -3 -22 -6 -4 -8 -20 -5 -37 8 -41 8 -42 5 -48 -6
-14 -5 -90 2 -90 4 0 4 -10 -1 -22 -9 -26 -7 -99 3 -116 3 -6 2 -13 -2 -16 -5
-3 -8 -24 -6 -46 2 -26 -1 -40 -9 -40 -7 0 -4 -5 5 -11 10 -5 15 -16 11 -25
-10 -26 -10 -78 -1 -96 4 -9 4 -19 0 -22 -4 -2 -7 -45 -6 -95 1 -61 -3 -91
-10 -92 -6 -1 -22 -2 -36 -3 -14 0 -28 -5 -32 -11 -5 -7 -8 -7 -9 0 0 6 -2 35
-5 65 -11 138 -11 160 0 160 6 0 5 4 -2 9 -8 4 -13 17 -12 27 1 11 2 21 1 24
-1 3 -3 37 -4 75 -2 39 -6 76 -10 83 -5 6 -4 12 2 12 7 0 7 8 1 25 -7 18 -6
25 3 25 7 0 8 3 2 8 -5 4 -11 27 -12 52 -6 149 -12 230 -18 239 -3 6 -1 11 5
11 6 0 8 4 5 10 -3 5 -8 49 -11 97 -2 49 -6 105 -9 126 -3 26 0 35 7 31 7 -5
8 -2 3 7 -11 17 -12 28 -20 164 -3 61 -8 144 -11 185 -9 156 -17 307 -18 367
-1 35 -3 63 -6 63 -3 0 -6 33 -6 73 -2 107 -14 290 -20 310 -3 9 0 17 7 17 8
0 8 4 2 13 -6 6 -11 36 -12 66 -1 30 -3 56 -4 57 -1 1 -38 4 -82 6 l-80 3 -2
35 c-8 97 -7 180 2 183 6 3 6 9 -2 18 -6 8 -10 28 -9 46 1 17 -1 30 -5 27 -4
-2 -7 38 -8 88 -1 51 -4 94 -6 97 -3 2 0 10 6 18 8 9 8 13 0 13 -7 0 -8 8 -1
25 6 16 6 25 0 25 -12 0 -9 22 5 32 7 5 7 8 0 8 -6 0 -11 62 -12 163 -2 260
-1 247 -18 247 -15 0 -21 -50 -15 -119 1 -17 -2 -21 -12 -15 -10 6 -11 5 -2
-7 7 -9 9 -71 7 -174 -1 -88 -3 -209 -3 -269 0 -60 -4 -114 -8 -120 -4 -6 -8
-45 -9 -86 0 -41 -2 -75 -3 -75 -1 0 -2 -36 -3 -80 l-2 -80 -121 -3 -120 -3
-1 43 c-1 24 -2 52 -2 63 -1 11 -1 27 -1 35 1 8 -2 42 -4 75 -5 52 -8 111 -19
335 -2 25 1 51 6 58 6 7 6 12 1 12 -13 0 -11 143 1 152 7 5 6 8 0 8 -16 0 -18
70 -3 70 10 0 10 2 0 9 -8 4 -13 14 -12 22 7 46 -1 119 -13 119 -17 0 -18 -18
-20 -282 -1 -126 -5 -228 -9 -228 -4 0 -5 -6 -2 -13 8 -22 10 -97 2 -97 -3 0
-3 -12 1 -28 5 -15 4 -38 -1 -52 -9 -22 -15 -121 -17 -258 -1 -28 -5 -42 -13
-41 -7 1 -48 1 -90 0 l-78 -1 0 -61 c0 -45 -3 -58 -12 -53 -10 6 -10 4 -2 -7
8 -11 12 -74 5 -74 -2 0 -10 -157 -15 -287 -2 -53 -7 -101 -11 -107 -3 -6 0
-11 7 -11 8 0 9 -3 3 -8 -6 -4 -11 -32 -13 -62 -1 -30 -3 -81 -4 -112 -2 -31
-6 -60 -10 -63 -4 -4 -3 -16 3 -27 5 -10 7 -23 4 -29 -4 -6 -9 -56 -11 -112
-5 -133 -11 -204 -19 -217 -3 -5 -2 -10 3 -10 5 0 6 -17 2 -39 -4 -25 -3 -44
3 -50 8 -8 8 -11 0 -11 -6 0 -11 -15 -10 -32 0 -69 -13 -249 -18 -258 -4 -6
-1 -10 5 -10 6 0 8 -5 3 -12 -4 -7 -8 -40 -9 -73 -4 -117 -13 -220 -19 -237
-4 -11 -3 -18 5 -18 6 0 8 -5 4 -11 -8 -13 -12 -64 -13 -167 -1 -55 -4 -71
-13 -66 -10 6 -10 4 -1 -7 16 -16 17 -33 2 -23 -8 5 -8 1 0 -13 6 -11 8 -23 5
-26 -3 -2 -7 -47 -9 -98 -8 -181 -15 -270 -20 -280 -4 -5 -1 -9 6 -9 8 0 9 -4
0 -13 -6 -8 -9 -23 -6 -35 2 -12 -1 -22 -6 -22 -6 0 -7 -4 -4 -10 3 -5 -1 -10
-9 -10 -9 0 -16 -4 -16 -9 0 -6 -8 -9 -18 -8 -18 1 -27 27 -10 27 4 0 8 -5 8
-12 0 -6 2 -9 5 -6 9 8 -6 38 -16 32 -5 -3 -9 -1 -9 5 0 5 5 13 11 16 7 5 4
14 -7 26 -9 10 -13 19 -8 19 11 0 12 90 1 108 -5 6 -4 12 0 12 10 0 11 96 1
106 -4 4 -4 14 1 23 4 9 6 34 4 56 -2 22 -4 45 -3 50 5 89 4 115 -5 115 -5 0
-1 7 9 15 11 8 15 15 9 15 -5 0 -11 18 -12 40 -2 56 -2 61 2 95 2 17 0 42 -4
57 -4 14 -5 29 -1 32 9 9 9 97 0 102 -4 3 -4 13 0 22 5 9 8 24 7 32 -1 8 4 21
9 29 8 11 8 13 -1 7 -12 -7 -20 23 -13 49 7 27 5 105 -3 105 -5 0 -5 5 0 12
20 25 4 51 -84 135 -88 85 -233 224 -434 417 -58 55 -119 114 -136 129 l-31
29 0 -100 c0 -55 -3 -105 -6 -111 -4 -6 -4 -11 1 -11 4 0 7 -26 6 -57 -1 -32
-3 -67 -3 -78 -1 -11 1 -35 3 -52 2 -18 -1 -33 -6 -33 -4 0 -5 -5 -1 -12 8
-13 7 -185 -1 -199 -3 -4 -21 -8 -40 -7 -34 1 -35 3 -36 42 0 23 -2 56 -3 74
-1 17 0 32 4 32 3 0 6 9 6 20 0 11 -3 20 -6 20 -6 0 -3 208 4 226 3 8 2 14 -2
14 -4 0 -7 52 -6 115 l1 114 -31 -27 c-17 -15 -49 -45 -72 -67 -35 -35 -238
-230 -503 -483 l-84 -81 0 -1121 c-1 -1072 -1 -1122 -19 -1134 -10 -7 -16 -16
-13 -19 3 -4 2 -5 -2 -2 -3 3 -12 -4 -20 -15 -8 -11 -19 -20 -25 -20 -7 0 -6
6 2 15 7 9 8 15 2 15 -14 0 -23 -28 -11 -36 6 -3 -3 -19 -20 -35 -17 -16 -31
-34 -31 -39 0 -6 -7 -10 -15 -10 -8 0 -15 -5 -15 -11 0 -6 -7 -18 -16 -26 -9
-9 -34 -40 -56 -70 -22 -29 -45 -53 -51 -53 -6 0 -8 -3 -5 -6 5 -5 -53 -89
-108 -157 -8 -9 -14 -20 -14 -23 0 -3 -14 -25 -30 -49 -17 -24 -30 -46 -30
-49 0 -3 -11 -21 -24 -41 -35 -51 -149 -289 -175 -365 -13 -36 -26 -72 -29
-80 -8 -23 -13 -42 -19 -73 -3 -15 -9 -27 -12 -27 -4 0 -8 -6 -8 -12 0 -7 -4
-29 -8 -48 -4 -19 -10 -51 -14 -70 -5 -26 -11 -35 -26 -35 -13 0 -19 6 -17 18
3 18 -13 23 -23 7 -4 -6 -11 -7 -17 -4 -7 4 -8 2 -4 -4 4 -7 3 -12 -3 -12 -10
0 -9 -25 2 -36 10 -11 8 -26 -2 -19 -5 3 -13 0 -17 -6 -4 -7 -3 -9 4 -5 6 3
13 2 17 -4 3 -5 -2 -10 -12 -11 -14 0 -14 -2 4 -9 13 -5 23 -14 23 -20 0 -12
-22 -9 -32 5 -4 6 -6 -5 -3 -22 2 -18 -1 -33 -6 -33 -5 0 -9 -5 -9 -11 0 -8 6
-7 16 2 15 12 16 11 10 -9 -5 -14 -3 -22 4 -22 6 0 9 -4 5 -10 -3 -5 -11 -8
-18 -6 -7 1 -9 1 -4 -1 4 -3 7 -9 7 -14 0 -6 -4 -8 -8 -5 -4 2 -8 -6 -8 -20 0
-13 5 -24 10 -24 6 0 5 -5 -2 -12 -18 -18 -15 -31 6 -24 14 5 14 4 -2 -9 -11
-8 -14 -15 -7 -15 7 0 9 -5 4 -12 -14 -23 -13 -48 1 -48 8 0 18 -5 22 -11 4
-8 -1 -9 -17 -4 -13 3 -19 3 -14 -2 6 -4 10 -24 10 -43 -1 -19 1 -39 4 -45 10
-18 9 -35 0 -35 -6 0 -6 -7 -1 -17 5 -10 8 -30 7 -45 -1 -15 2 -25 6 -22 4 2
10 0 14 -6 3 -5 0 -10 -7 -10 -9 -1 -7 -5 4 -14 25 -19 22 -29 -4 -16 -22 11
-22 11 1 -8 18 -15 21 -21 11 -27 -10 -6 -7 -11 11 -18 l24 -9 -22 -9 c-28
-10 -30 -19 -4 -12 10 3 22 0 25 -6 4 -7 1 -8 -8 -5 -9 3 -16 1 -16 -5 0 -6 3
-10 8 -10 19 3 22 -3 11 -22 -7 -13 -7 -19 -1 -15 6 3 13 2 17 -4 3 -5 0 -10
-7 -10 -7 -1 -2 -7 12 -15 15 -9 19 -14 10 -15 -13 0 -13 -1 0 -10 20 -13 30
-12 30 1 0 5 -4 8 -8 5 -5 -3 -9 1 -9 9 0 21 13 19 22 -2 13 -34 15 -63 5 -63
-6 0 -9 4 -5 9 3 5 1 12 -5 16 -15 9 -54 15 -46 7 4 -4 12 -8 17 -8 5 -1 13
-2 18 -3 6 0 8 -9 6 -19 -5 -26 8 -43 33 -45 12 0 19 -3 17 -5 -2 -3 0 -14 6
-26 9 -19 9 -19 -8 2 -18 22 -19 22 -19 3 0 -11 2 -18 5 -16 6 7 39 -34 46
-56 4 -11 11 -19 16 -19 5 0 9 -9 9 -20 0 -11 5 -20 11 -20 5 0 7 -4 4 -10 -3
-5 -1 -10 5 -10 6 0 8 -4 5 -10 -3 -5 -1 -10 5 -10 6 0 9 -4 6 -9 -4 -5 -3
-11 1 -13 12 -5 64 -88 56 -88 -4 0 3 -7 15 -16 12 -8 20 -20 17 -25 -4 -5 -1
-9 5 -9 6 0 8 -4 5 -10 -3 -5 1 -10 9 -10 8 0 21 -10 27 -22 7 -13 23 -33 36
-46 13 -12 21 -27 17 -34 -4 -7 -3 -8 4 -4 7 4 12 3 12 -3 0 -5 9 -13 20 -16
11 -3 20 -11 20 -16 0 -14 26 -39 39 -39 10 0 15 -14 12 -32 0 -4 6 -5 14 -2
8 4 15 1 15 -5 0 -6 6 -11 13 -11 18 0 59 -45 50 -54 -4 -4 0 -4 10 0 11 4 19
0 23 -10 3 -9 10 -14 14 -11 5 3 15 -4 23 -15 7 -11 17 -17 20 -13 4 3 7 1 7
-5 0 -7 3 -11 8 -10 4 1 18 -4 31 -11 17 -9 20 -15 11 -21 -9 -5 -9 -9 -1 -14
6 -4 11 -2 11 3 0 6 7 11 16 11 9 0 14 -6 11 -13 -3 -9 3 -13 17 -13 11 1 20
-4 19 -10 -1 -7 6 -10 17 -7 11 3 20 0 20 -6 0 -6 9 -11 20 -11 11 0 20 -5 20
-11 0 -5 4 -7 10 -4 5 3 10 1 10 -5 0 -6 3 -9 8 -7 4 3 25 -3 46 -14 22 -10
46 -19 53 -19 7 0 13 -4 13 -8 0 -4 12 -9 27 -10 15 -1 30 -8 35 -15 4 -6 8
-8 8 -3 0 5 6 3 13 -3 8 -6 17 -8 20 -5 3 4 14 3 24 -1 10 -5 23 -9 28 -9 6
-1 9 -10 8 -21 -2 -20 -1 -20 13 0 9 12 17 16 22 9 4 -5 17 -11 30 -11 13 -1
49 -7 80 -14 31 -7 69 -12 85 -12 15 1 27 -3 27 -8 0 -6 4 -8 9 -5 5 4 12 0
14 -6 4 -10 6 -10 6 0 1 6 6 12 12 12 5 0 8 -3 6 -7 -3 -5 32 -8 78 -8 46 0
82 -3 79 -6 -2 -4 4 -13 14 -20 15 -13 16 -12 3 4 -7 9 -12 17 -10 18 26 6
129 2 129 -6 0 -7 3 -7 8 0 4 6 30 10 57 10 28 0 54 1 58 3 5 3 30 6 55 7 26
2 60 6 76 10 23 5 27 3 20 -7 -5 -8 -2 -6 7 4 9 9 19 15 21 13 2 -3 29 2 59 9
35 9 56 11 60 4 3 -5 9 -2 13 8 6 16 8 16 16 4 6 -8 10 -10 10 -4 0 10 69 35
105 38 6 1 20 7 32 14 12 7 26 11 30 10 4 0 31 9 58 22 28 13 53 24 57 24 3 1
10 4 14 8 4 5 16 8 26 8 10 0 18 5 18 11 0 6 9 9 20 6 11 -3 18 -2 15 2 -7 12
41 35 54 26 7 -4 10 -1 9 7 -2 7 5 12 14 12 10 -1 16 2 15 6 -1 4 2 8 7 8 5 0
12 5 15 10 3 6 13 12 21 14 8 2 23 12 33 22 9 10 17 16 17 13 0 -4 8 1 18 11
25 23 69 54 76 53 5 -1 15 7 67 54 9 8 21 15 27 15 7 0 12 5 12 10 0 6 5 10
11 10 5 0 7 -5 3 -12 -4 -7 -3 -8 5 -4 6 4 9 12 5 17 -3 6 3 13 15 16 11 3 18
10 14 16 -4 6 0 8 10 4 10 -4 16 -2 14 5 -1 6 9 15 23 19 14 4 21 8 15 8 -5 1
-2 6 8 12 9 5 21 8 26 4 5 -3 13 0 17 6 5 8 3 9 -6 4 -8 -5 -11 -3 -8 6 2 7
15 16 29 20 13 4 20 7 14 8 -5 1 3 10 19 20 17 11 34 18 38 15 5 -3 7 -1 6 4
-3 10 108 96 148 114 13 6 21 15 17 21 -3 6 -1 7 5 3 7 -4 12 -2 12 3 0 6 9
11 19 11 10 0 22 7 25 16 4 9 13 14 22 10 8 -3 13 -2 10 3 -3 5 1 14 9 21 8 7
15 9 15 4 0 -4 11 3 24 15 13 12 27 21 32 19 5 -2 19 7 32 20 12 12 27 20 32
17 6 -4 10 0 10 7 0 7 14 19 30 27 26 11 33 11 48 -1 15 -12 16 -11 4 4 -9 11
-10 18 -2 23 5 3 10 3 10 -1 0 -3 7 -1 15 6 8 6 19 9 25 5 6 -4 9 -1 8 7 -2 8
4 12 16 10 12 -2 16 1 10 9 -5 9 -2 10 9 6 10 -3 17 -3 17 2 0 7 15 14 50 22
3 0 11 5 17 11 7 6 19 8 28 5 8 -4 18 0 22 7 9 16 52 24 70 13 9 -6 11 -3 6
10 -3 10 -3 15 2 11 4 -4 16 -3 25 2 10 5 40 10 67 11 26 1 56 6 66 11 11 6
17 5 17 -3 0 -8 4 -8 15 1 11 9 15 9 15 1 0 -8 5 -9 19 -1 14 7 21 6 24 -3 3
-9 7 -9 20 2 13 10 17 10 17 1 0 -7 7 -10 15 -7 8 4 17 2 21 -4 4 -6 11 -6 20
2 12 10 18 6 16 -12 -1 -3 5 -6 13 -6 8 0 12 4 9 9 -3 4 -1 8 5 8 5 0 15 -8
20 -17 6 -10 11 -13 11 -6 0 9 8 9 33 1 17 -5 38 -10 45 -11 7 0 10 -7 7 -15
-4 -12 -3 -13 10 -2 11 9 15 9 15 1 0 -7 4 -10 9 -7 14 9 63 -13 56 -24 -4 -6
-11 -8 -16 -5 -5 4 -9 1 -9 -4 0 -14 13 -14 27 0 9 9 21 8 47 -5 20 -9 53 -24
74 -33 20 -9 39 -19 42 -23 3 -3 30 -17 60 -32 30 -15 48 -28 40 -28 -8 -1 1
-7 20 -13 23 -8 35 -18 34 -30 -2 -14 1 -15 11 -7 8 7 15 7 19 1 3 -5 0 -12
-6 -15 -7 -3 -4 -4 8 -1 19 5 29 -1 80 -44 7 -5 15 -7 18 -4 3 4 6 1 6 -6 0
-7 4 -9 10 -6 5 3 10 -1 10 -10 0 -10 5 -13 12 -9 8 5 9 2 5 -10 -4 -10 -3
-15 3 -11 12 7 70 -22 70 -35 0 -6 7 -10 15 -10 8 0 15 -3 15 -8 0 -4 14 -13
31 -21 18 -8 28 -18 25 -27 -3 -7 0 -16 6 -20 7 -4 8 -3 4 4 -4 7 -2 12 3 12
6 0 11 -5 11 -12 0 -6 3 -9 6 -5 8 8 38 -22 40 -40 2 -8 6 -18 10 -21 4 -4 4
1 1 10 -9 25 4 22 35 -7 15 -14 31 -25 37 -25 5 0 11 -4 13 -8 2 -5 24 -23 50
-41 27 -17 48 -37 48 -42 0 -6 4 -8 8 -5 5 3 20 -6 35 -20 15 -14 27 -21 27
-17 0 4 5 0 11 -9 5 -10 15 -18 21 -18 6 0 22 -12 36 -28 13 -15 21 -20 17
-12 -6 13 -5 13 7 0 14 -15 32 -27 101 -64 20 -11 37 -23 37 -28 0 -4 8 -8 19
-8 10 0 30 -9 44 -20 14 -11 32 -20 41 -20 9 0 16 -5 16 -10 0 -6 3 -9 8 -8
11 4 72 -24 68 -31 -2 -3 9 -7 26 -7 17 -1 33 -5 37 -10 3 -5 15 -10 26 -12
11 -2 27 -6 35 -9 8 -3 26 -8 40 -10 14 -2 31 -11 38 -20 9 -13 12 -14 12 -2
0 8 3 10 8 4 4 -5 18 -11 32 -11 42 -3 46 -4 32 -13 -11 -7 -11 -9 2 -14 9 -4
15 -3 13 1 -2 7 8 13 18 11 3 -1 15 -2 28 -3 16 -1 21 -7 19 -21 -2 -18 -1
-18 8 -4 8 13 17 15 44 9 19 -4 37 -5 40 -2 6 6 10 -15 6 -33 -1 -5 2 -6 7 -2
4 5 8 14 8 20 1 7 7 10 15 8 18 -5 55 -9 93 -10 20 -1 26 -5 21 -13 -6 -10 -4
-10 7 -2 17 14 49 14 49 1 0 -5 8 -3 17 4 15 12 16 12 8 -1 -8 -13 -7 -13 8
-1 12 9 17 10 17 2 0 -7 5 -9 11 -6 16 10 79 12 79 2 0 -4 10 -3 21 4 17 9 20
8 13 -3 -6 -11 -5 -11 9 1 14 11 17 11 17 0 0 -9 3 -10 8 -4 4 6 23 10 42 10
19 0 38 5 42 10 5 6 8 5 8 -3 0 -10 5 -10 20 -2 11 6 20 7 20 3 0 -4 5 -1 10
7 7 11 10 11 10 2 0 -9 5 -10 18 -4 9 5 30 8 45 7 15 -1 30 2 33 7 3 4 10 8
15 8 6 0 7 -6 3 -12 -5 -8 -1 -8 10 1 9 8 33 16 53 18 20 2 44 8 54 14 13 7
19 6 19 -1 0 -6 7 -4 16 4 8 9 26 16 39 16 13 0 26 6 28 13 4 9 6 8 6 -2 1
-12 4 -12 18 1 10 8 46 23 81 33 34 10 62 22 62 27 0 5 5 6 10 3 8 -5 7 -12
-2 -23 -12 -15 -11 -16 4 -3 10 7 16 17 13 21 -6 10 24 22 36 14 5 -3 8 0 7 7
-2 7 2 14 7 14 24 2 55 17 55 26 0 6 5 7 10 4 6 -4 7 -11 4 -17 -4 -7 -2 -8 5
-4 6 4 9 11 7 15 -7 11 141 94 153 87 5 -4 13 -1 17 5 4 7 3 9 -4 5 -6 -3 -13
-2 -16 3 -4 5 4 13 16 17 12 3 31 15 42 25 11 11 26 17 33 15 7 -3 10 1 7 9
-3 8 4 19 18 26 13 6 31 20 41 31 10 10 23 16 28 12 5 -3 8 0 7 7 -2 7 8 18
22 26 14 7 19 13 12 13 -7 0 -10 5 -7 10 4 6 10 8 14 6 3 -3 17 11 30 30 13
19 30 34 39 34 8 0 12 3 9 6 -5 6 43 77 63 94 4 3 15 20 25 37 15 25 24 32 40
27 20 -6 20 -6 0 10 -11 8 -15 16 -10 16 6 0 22 25 35 55 13 30 30 55 37 55 7
0 10 6 7 14 -3 8 6 35 20 60 14 25 24 46 21 46 -2 0 1 13 6 30 6 16 14 28 19
25 4 -2 5 6 3 19 -3 13 0 27 6 30 6 4 11 20 11 35 0 15 3 31 7 35 7 7 11 24
15 63 1 13 5 23 9 23 3 0 5 11 4 25 -2 14 1 27 5 30 5 3 7 12 4 19 -3 8 -1 17
5 20 7 4 7 15 1 31 -7 18 -5 28 6 40 9 8 11 15 6 15 -5 0 -8 17 -6 38 8 84 2
275 -11 377 -3 28 -8 64 -10 80 -2 17 -6 37 -9 45 -5 14 -7 24 -21 95 -3 17
-10 41 -15 55 -5 14 -11 34 -13 45 -2 11 -7 29 -11 40 -5 11 -15 38 -23 60 -8
22 -16 47 -18 56 -2 9 -13 35 -24 57 -11 22 -17 42 -14 46 4 3 1 6 -5 6 -7 0
-11 3 -10 8 2 9 -35 87 -91 187 -86 155 -225 356 -316 459 -5 6 -31 36 -57 67
l-47 57 0 111 c1 75 5 111 13 111 8 0 8 2 0 8 -17 10 -17 472 -1 472 9 0 9 2
1 8 -16 10 -16 464 0 474 8 6 8 8 -1 8 -16 0 -16 382 1 392 8 6 7 8 -2 8 -10
0 -13 15 -12 52 1 29 1 72 1 96 l-1 42 -117 -1 c-65 0 -124 0 -130 0 -9 1 -12
53 -13 212 0 205 -2 235 -20 224 -13 -8 -40 6 -40 21 0 8 6 14 13 14 7 0 8 3
2 8 -16 11 -17 42 -3 60 11 13 11 14 0 8 -10 -6 -13 -3 -10 10 3 14 -15 33
-66 72 -38 28 -77 53 -85 53 -9 1 -144 2 -301 3 l-285 2 -35 -26 c-19 -14 -52
-37 -72 -50 -33 -22 -41 -37 -37 -66 0 -4 -5 -11 -13 -15 -7 -5 -8 -9 -3 -9 6
0 10 -19 10 -42 0 -35 -4 -42 -23 -43 -12 -1 -25 -4 -28 -7 -3 -3 -6 -101 -6
-217 -1 -207 -1 -211 -22 -212 -12 0 -69 0 -128 0 l-108 0 -1 -37 c-1 -20 0
-43 1 -51 1 -8 -4 -18 -12 -22 -8 -5 -9 -9 -2 -9 7 0 12 -21 12 -55 0 -34 -5
-55 -12 -55 -8 0 -8 -3 0 -8 13 -9 13 -231 0 -251 -6 -9 -5 -12 1 -8 6 4 10
-4 10 -18 1 -14 -5 -25 -11 -25 -8 0 -8 -2 0 -8 12 -8 15 -152 3 -152 -4 0
-14 6 -21 13 -7 6 -20 13 -28 15 -8 2 -29 10 -46 18 -27 13 -32 21 -30 47 0
18 6 35 11 39 6 5 5 8 -3 8 -9 0 -10 5 -3 18 6 10 6 24 1 32 -5 8 -6 18 -3 23
3 5 7 55 8 110 2 56 7 170 10 252 10 211 10 411 0 470 -4 28 -8 69 -9 92 -1
24 -4 43 -8 43 -4 0 -8 10 -8 23 0 12 -1 39 -3 60 -2 20 -1 37 2 37 4 0 6 16
6 35 -1 19 1 35 4 35 3 0 7 24 9 52 2 29 9 56 15 60 9 6 9 8 -1 8 -9 0 -10 5
-3 18 10 19 8 97 -4 167 -3 22 -8 56 -10 75 -2 19 -4 35 -5 35 -14 0 -16 161
-2 178 8 10 9 17 3 21 -6 4 -8 12 -6 19 3 7 7 30 9 52 3 22 5 40 6 40 1 0 3
18 4 40 1 22 4 45 7 50 5 9 5 140 0 140 -3 0 -10 75 -15 141 -2 28 -5 55 -8
60 -2 5 -5 25 -7 45 -1 19 -4 44 -5 55 -2 10 2 25 8 33 8 12 8 13 -2 7 -10 -6
-11 -1 -6 21 4 15 7 36 6 46 0 11 4 15 11 10 9 -5 9 -3 1 8 -6 8 -10 23 -7 34
2 11 6 58 9 105 4 47 10 92 15 101 5 10 3 21 -3 27 -8 8 -8 12 -1 12 11 0 11
193 -1 300 -10 95 -18 212 -19 287 -1 40 -6 73 -10 73 -5 0 -5 5 -2 10 4 6 4
23 0 38 l-6 27 -164 0 c-105 0 -165 -3 -166 -10 -1 -5 -3 -30 -5 -55 -2 -25
-6 -65 -9 -90 -3 -25 -7 -65 -9 -90 -2 -25 -7 -81 -11 -125 -4 -44 -9 -96 -10
-115 -2 -19 -4 -37 -5 -40 -1 -3 -2 -21 -2 -40 0 -19 -5 -38 -12 -42 -6 -4 -7
-8 -1 -8 6 0 10 -21 9 -47 0 -27 4 -54 9 -60 6 -9 5 -13 -4 -13 -9 0 -10 -3
-4 -8 6 -4 11 -18 12 -32 3 -62 15 -198 18 -225 2 -16 7 -51 10 -77 l6 -48
-48 -1 c-116 -1 -148 -5 -147 -14 1 -5 5 -42 8 -80 4 -39 8 -81 11 -95 2 -14
6 -45 9 -69 3 -24 8 -46 11 -49 2 -3 0 -11 -6 -19 -7 -8 -8 -13 -1 -13 6 0 9
-23 7 -57 -1 -32 -3 -58 -4 -58 -1 0 -4 -18 -6 -40 -1 -22 -6 -53 -9 -70 -3
-16 -8 -52 -11 -80 -3 -27 -7 -59 -9 -70 -3 -11 -5 -23 -5 -26 -1 -3 -53 -5
-117 -5 -64 1 -120 -1 -124 -4 -8 -5 -13 -38 -27 -190 -10 -109 -5 -320 7
-320 9 0 9 -174 1 -185 -4 -5 -8 -26 -10 -45 -2 -19 -7 -40 -12 -46 -5 -6 -7
-13 -4 -15 2 -3 -1 -22 -6 -44 -5 -22 -11 -51 -13 -64 -4 -28 -26 -44 -42 -31
-6 6 -14 7 -17 4 -4 -4 -46 -6 -95 -5 -67 1 -89 -1 -90 -11 -1 -14 -8 -58 -16
-98 -3 -14 -8 -46 -11 -70 -9 -69 -12 -92 -19 -135 -4 -22 -9 -53 -11 -70 -7
-48 -10 -59 -19 -74 -7 -10 -5 -12 3 -6 10 6 11 3 2 -12 -6 -11 -7 -23 -4 -27
12 -12 -23 -6 -36 6 -11 11 -12 10 -6 0 6 -11 3 -12 -12 -3 -11 6 -23 7 -27 4
-8 -8 -8 -13 -10 287 0 140 3 263 7 274 5 10 5 16 0 13 -4 -3 -8 84 -7 194 1
137 -3 199 -10 200 -6 1 -36 2 -66 4 -30 1 -59 3 -65 3 -7 1 -10 313 -9 915 0
501 -2 920 -4 929 -4 15 -19 18 -100 20 l-96 3 -2 58 c-1 36 2 57 10 57 7 0 8
3 1 8 -15 10 -15 544 0 554 6 5 6 8 0 8 -14 0 -15 303 -1 312 8 5 8 8 1 8 -7
0 -10 39 -10 108 1 159 7 149 -81 147 -81 -1 -100 5 -91 29 4 9 1 16 -6 16 -7
0 -8 3 -2 8 12 8 13 32 2 49 -4 6 -3 14 2 18 6 3 8 12 5 19 -9 23 -10 217 -2
222 5 3 5 11 1 17 -4 7 -9 50 -10 97 -1 47 -6 108 -11 137 -5 29 -5 58 -1 64
4 7 5 17 2 22 -3 5 -7 55 -8 111 -5 186 -8 226 -16 226 -17 0 -22 -28 -24
-142 -1 -65 -5 -121 -8 -125 -4 -3 -2 -12 4 -20 6 -7 8 -13 3 -13 -5 0 -7 -27
-6 -60 2 -34 0 -69 -4 -78 -8 -17 -12 -119 -17 -417 -1 -88 -5 -165 -9 -170
-4 -6 -49 -11 -110 -10 l-103 0 -2 50 c-1 28 -2 55 -3 60 -5 26 -4 52 2 77 3
14 3 29 0 33 -10 10 -9 29 3 37 6 5 6 8 0 8 -6 0 -11 66 -12 176 -2 98 -7 182
-13 189 -6 8 -6 15 2 23 7 7 8 12 3 12 -6 0 -11 71 -11 173 -1 94 -3 208 -4
252 -1 44 -1 88 -1 97 1 16 135 17 2265 17 l2264 0 0 -62 c0 -87 1 -97 10 -97
4 0 6 38 4 85 l-3 85 -4361 0 c-2399 0 -4359 -2 -4356 -5z m124 -8073 c-2 -4
2 -16 10 -27 8 -10 14 -13 14 -6 0 7 5 9 10 6 16 -10 12 -45 -6 -45 -8 0 -12
-5 -9 -10 4 -6 11 -7 17 -4 7 5 8 2 2 -7 -5 -8 -9 -17 -10 -21 -1 -5 -3 -11
-4 -15 -1 -5 -3 -26 -4 -48 -1 -28 -5 -39 -15 -37 -9 2 -11 -3 -6 -15 16 -39
18 -56 7 -49 -7 4 -12 2 -12 -3 0 -6 4 -11 9 -11 12 0 9 -53 -4 -62 -7 -6 -7
-10 0 -15 6 -5 11 -23 12 -41 0 -25 -3 -32 -14 -28 -9 4 -11 2 -7 -6 5 -7 3
-8 -6 -3 -8 5 -11 4 -6 -3 4 -6 13 -9 21 -6 9 4 13 -1 12 -15 -1 -12 -5 -21
-10 -21 -4 0 -5 -5 -2 -10 4 -6 11 -7 17 -4 7 4 8 2 4 -5 -4 -6 -12 -9 -17 -6
-14 9 -11 -5 5 -21 17 -16 15 -68 -2 -104 -12 -22 -11 -23 1 -7 20 24 24 22
24 -15 1 -29 9 -73 13 -73 2 0 10 -55 12 -82 1 -7 6 -13 12 -13 6 0 3 -5 -7
-11 -10 -6 -21 -8 -24 -5 -4 3 0 6 8 6 12 0 12 2 0 9 -8 5 -15 22 -16 38 -2
15 -3 29 -4 31 -1 1 -1 5 -2 10 0 4 -6 14 -13 22 -8 8 -12 24 -10 35 1 10 -2
25 -8 32 -6 7 -7 13 -3 13 4 0 1 7 -6 16 -8 9 -14 40 -15 68 -1 28 -3 52 -4
54 -9 9 -3 69 9 78 12 9 11 13 -5 25 -17 12 -22 28 -14 44 1 3 4 10 5 15 1 6
3 12 4 15 3 11 -5 20 -14 17 -5 -2 -5 2 2 8 13 15 36 3 30 -14 -3 -7 0 -13 7
-13 6 0 12 8 12 18 0 10 -3 16 -6 14 -3 -2 -6 5 -7 15 -1 11 2 22 7 25 5 3 7
12 4 20 -5 11 -9 10 -23 -3 -11 -11 -13 -20 -7 -24 6 -4 7 -10 3 -15 -5 -4
-12 -1 -17 7 -6 9 -2 23 11 41 12 18 16 30 9 34 -6 4 -8 11 -4 16 3 5 0 16 -6
24 -10 11 -10 15 -1 15 7 0 9 5 5 12 -4 6 -3 8 4 4 14 -9 26 12 15 27 -16 21
-9 40 14 42 13 1 26 5 30 10 5 4 -3 4 -16 0 -16 -5 -21 -4 -17 4 4 7 1 9 -7 5
-22 -8 -28 10 -11 34 14 20 31 32 20 14z m104 -954 c0 -4 -4 -8 -9 -8 -6 0
-12 4 -15 8 -3 5 1 9 9 9 8 0 15 -4 15 -9z"/>
<path d="M904 2134 c1 -9 8 -19 14 -23 9 -5 7 -12 -7 -25 -23 -21 -22 -68 3
-72 9 -1 16 2 16 7 0 5 -4 9 -10 9 -5 0 -10 5 -10 11 0 5 4 8 8 5 5 -3 8 5 7
17 -1 12 0 27 4 32 12 21 9 36 -9 45 -14 8 -18 6 -16 -6z m9 -69 c-3 -9 -8
-14 -10 -11 -3 3 -2 9 2 15 9 16 15 13 8 -4z"/>
<path d="M887 1867 c3 -5 -1 -13 -8 -18 -11 -7 -11 -9 -1 -9 7 0 11 -4 8 -9
-3 -4 3 -16 13 -25 17 -15 18 -15 17 6 -1 13 -5 29 -9 36 -5 6 -6 16 -3 20 3
5 -1 9 -9 9 -8 0 -11 -5 -8 -10z m19 -43 c1 -9 0 -13 -4 -10 -3 4 -7 14 -8 22
-1 9 0 13 4 10 3 -4 7 -14 8 -22z"/>
<path d="M885 1733 c0 -13 4 -23 8 -23 4 0 6 1 5 3 -1 1 4 11 10 22 9 17 7 21
-7 21 -12 0 -17 -8 -16 -23z"/>
<path d="M900 1670 c-11 -7 -11 -11 -1 -24 8 -9 18 -16 24 -16 6 0 2 7 -9 15
-16 13 -16 14 -1 9 9 -3 17 -1 17 4 0 16 -14 22 -30 12z"/>
<path d="M901 1611 c-10 -7 -10 -10 -1 -16 6 -4 16 -3 22 3 13 13 -4 23 -21
13z"/>
<path d="M923 1519 c2 -8 7 -21 12 -29 5 -8 10 -18 10 -22 0 -3 3 -9 7 -13 5
-6 3 25 -2 33 -2 1 -3 6 -4 12 0 5 -6 14 -13 21 -9 9 -11 8 -10 -2z"/>
<path d="M796 10255 c-3 -9 0 -15 9 -15 9 0 12 6 9 15 -4 8 -7 15 -9 15 -2 0
-5 -7 -9 -15z"/>
<path d="M800 10210 c-5 -76 -1 -312 5 -318 4 -4 5 19 3 51 -1 32 1 57 6 57 6
0 5 5 -1 11 -8 8 -8 20 -3 34 5 13 6 25 3 28 -7 8 -9 116 -2 120 4 1 3 11 -2
22 -7 18 -8 18 -9 -5z"/>
<path d="M9497 9987 c0 -72 5 -133 10 -134 4 -2 6 40 3 92 -3 52 -3 95 0 95
10 0 5 70 -5 74 -6 2 -9 -44 -8 -127z"/>
<path d="M799 9878 c-5 -19 -4 -48 2 -48 11 0 18 39 8 46 -5 3 -9 4 -10 2z"/>
<path d="M9497 9760 c2 -109 2 -110 11 -110 4 0 6 43 4 95 -2 52 -6 95 -10 95
-4 0 -6 -36 -5 -80z"/>
<path d="M799 9798 c-4 -147 -3 -178 8 -178 8 0 9 9 3 30 -6 21 -5 30 3 30 8
0 8 3 0 11 -8 8 -8 20 -3 35 5 13 6 26 1 28 -4 3 -6 19 -3 36 2 16 2 30 -2 30
-3 0 -6 -10 -7 -22z"/>
<path d="M9497 9507 c0 -72 5 -133 10 -134 4 -2 6 40 3 92 -3 52 -3 95 0 95
10 0 5 70 -5 74 -6 2 -9 -44 -8 -127z"/>
<path d="M799 9608 c-1 -4 -1 -121 0 -135 1 -7 6 -13 12 -13 8 0 8 4 0 14 -8
10 -9 16 -1 21 6 3 7 12 3 18 -4 6 -6 30 -4 54 1 24 0 43 -3 43 -3 0 -6 -1 -7
-2z"/>
<path d="M795 9415 c2 -50 15 -56 15 -7 0 23 -4 42 -8 42 -4 0 -7 -16 -7 -35z"/>
<path d="M799 9338 c-4 -85 -1 -300 4 -305 3 -3 7 68 9 157 2 89 0 164 -4 167
-5 2 -8 -6 -9 -19z"/>
<path d="M9497 9280 c2 -109 2 -110 11 -110 4 0 6 43 4 95 -2 52 -6 95 -10 95
-4 0 -6 -36 -5 -80z"/>
<path d="M2544 9250 c-4 -22 -11 -40 -17 -40 -6 0 -8 -3 -5 -6 3 -3 -1 -29 -9
-57 -7 -29 -16 -63 -19 -76 -3 -14 -7 -28 -10 -33 -3 -5 -8 -21 -10 -36 -3
-15 -10 -45 -16 -67 -7 -22 -12 -43 -14 -47 -1 -5 -3 -10 -4 -13 -4 -8 -7 -24
-9 -40 -1 -11 -10 -14 -38 -9 -21 3 -41 8 -45 11 -8 4 -106 31 -142 38 -10 3
-44 12 -75 21 -31 9 -65 18 -77 20 -12 2 -40 10 -63 18 -34 13 -41 13 -41 2 0
-8 7 -17 16 -20 8 -3 12 -10 9 -16 -3 -5 -1 -10 5 -10 14 0 41 -26 34 -33 -3
-3 4 -8 15 -12 12 -3 21 -13 21 -21 0 -8 5 -12 10 -9 6 3 10 -1 10 -9 0 -9 7
-16 15 -16 17 0 19 -12 5 -26 -7 -7 -6 -11 4 -11 8 0 13 4 10 9 -3 4 -2 8 2 8
13 0 53 -54 47 -63 -3 -6 -1 -7 5 -3 7 4 12 2 12 -4 0 -6 5 -8 12 -4 8 5 9 2
5 -9 -3 -9 -3 -16 1 -16 23 4 34 -3 28 -17 -3 -8 -2 -12 4 -9 6 3 10 1 10 -4
0 -6 7 -11 16 -11 10 0 14 -6 11 -15 -4 -8 -1 -17 5 -21 7 -4 8 -3 4 4 -4 7
-3 12 2 12 6 0 12 -6 15 -14 4 -9 -58 -78 -170 -190 -119 -119 -169 -176 -156
-176 10 0 25 6 32 13 11 10 12 9 6 -3 -8 -13 -6 -13 8 -2 9 8 21 11 27 7 5 -3
10 -2 10 4 0 5 12 8 26 5 16 -3 23 -1 19 6 -4 6 -3 9 2 8 6 -2 39 5 123 27 3
1 12 4 20 8 44 18 90 25 90 14 0 -7 5 -4 11 6 6 9 15 15 20 12 5 -4 6 -12 3
-18 -4 -7 -3 -8 2 -4 5 5 9 14 9 20 0 6 15 12 33 14 31 4 39 -5 33 -39 0 -5 4
-8 11 -8 6 0 9 -3 6 -6 -4 -3 2 -34 12 -69 10 -35 16 -66 12 -69 -3 -3 0 -6 8
-6 10 0 10 -4 -1 -17 -10 -11 -10 -14 -1 -9 11 7 16 -6 15 -41 -1 -7 4 -13 9
-13 6 0 8 -9 5 -20 -3 -10 -1 -20 4 -22 7 -3 20 -54 22 -85 0 -7 4 -13 8 -13
4 0 6 -9 4 -20 -4 -19 11 -37 22 -27 3 3 7 22 9 42 2 20 8 43 15 51 6 8 8 14
4 14 -4 0 -3 6 2 13 6 6 9 22 8 35 -1 12 2 22 7 22 4 0 7 3 7 8 -1 4 0 10 1
15 4 13 6 21 14 60 5 20 12 37 18 37 5 0 6 5 3 10 -4 6 1 36 10 68 10 31 18
62 19 69 1 7 5 15 8 19 9 9 118 -17 118 -29 0 -5 7 -6 16 -3 10 4 13 2 8 -7
-5 -8 -2 -7 9 2 16 12 21 9 18 -12 -1 -4 8 -3 18 3 13 7 22 7 26 0 3 -5 15
-10 26 -10 11 0 18 -3 16 -7 -3 -5 11 -9 31 -10 19 -1 38 -7 42 -14 6 -8 9 -8
12 2 4 11 8 11 19 3 15 -12 69 -29 82 -26 4 1 17 -2 27 -8 11 -6 20 -8 20 -4
0 4 -60 66 -132 140 -73 73 -153 153 -177 177 l-43 45 32 36 c18 19 37 34 43
33 6 -1 11 3 12 8 0 15 75 91 86 87 5 -1 9 3 9 8 0 15 91 106 102 102 5 -1 7
2 4 7 -3 5 10 23 29 40 41 36 44 44 10 31 -14 -5 -25 -7 -25 -4 0 4 -7 1 -15
-6 -8 -7 -15 -10 -15 -6 0 3 -11 1 -25 -4 -14 -5 -36 -12 -48 -14 -12 -3 -91
-24 -175 -47 -84 -22 -156 -39 -159 -35 -4 3 -7 14 -8 24 0 9 -4 22 -7 28 -4
6 -9 21 -12 35 -3 13 -12 51 -22 84 -9 33 -19 71 -22 85 -2 14 -10 31 -16 39
-9 12 -8 13 2 7 11 -6 11 -2 -1 20 -8 16 -20 53 -27 82 -15 66 -28 74 -36 22z"/>
<path d="M9498 9120 c2 -22 7 -40 11 -40 4 0 7 10 5 23 -1 12 -3 30 -3 40 -1
9 -4 17 -9 17 -4 0 -6 -18 -4 -40z"/>
<path d="M9501 9060 c-5 -31 -3 -201 3 -207 11 -11 11 -1 5 112 -3 61 -6 103
-8 95z"/>
<path d="M797 9000 c-3 -11 -1 -23 4 -26 5 -3 9 6 9 20 0 31 -6 34 -13 6z"/>
<path d="M795 8935 c0 -14 3 -25 8 -25 4 0 7 7 7 15 0 8 0 18 1 22 0 4 -3 9
-8 10 -4 2 -8 -8 -8 -22z"/>
<path d="M799 8888 c-6 -82 -2 -228 6 -228 6 0 8 40 5 110 -3 65 -1 111 5 113
5 2 4 7 -3 11 -7 4 -12 2 -13 -6z"/>
<path d="M9497 8707 c0 -72 5 -133 10 -134 4 -2 6 40 3 92 -3 52 -3 95 0 95
10 0 5 70 -5 74 -6 2 -9 -44 -8 -127z"/>
<path d="M799 8648 c-1 -4 -1 -121 0 -135 1 -7 6 -13 12 -13 8 0 8 4 0 14 -8
10 -9 16 -1 21 6 3 7 12 3 18 -4 6 -6 30 -4 54 1 24 0 43 -3 43 -3 0 -6 -1 -7
-2z"/>
<path d="M9497 8480 c2 -109 2 -110 11 -110 4 0 6 43 4 95 -2 52 -6 95 -10 95
-4 0 -6 -36 -5 -80z"/>
<path d="M795 8455 c2 -50 15 -56 15 -7 0 23 -4 42 -8 42 -4 0 -7 -16 -7 -35z"/>
<path d="M798 8360 c-2 -22 -1 -47 3 -57 4 -11 8 4 10 35 5 62 -7 82 -13 22z"/>
<path d="M9497 8227 c0 -72 5 -133 10 -134 4 -2 6 40 3 92 -3 52 -3 95 0 95
10 0 5 70 -5 74 -6 2 -9 -44 -8 -127z"/>
<path d="M2395 8310 c10 -11 20 -20 23 -20 3 0 -3 9 -13 20 -10 11 -20 20 -23
20 -3 0 3 -9 13 -20z"/>
<path d="M2285 8300 c3 -5 8 -10 11 -10 2 0 4 5 4 10 0 6 -5 10 -11 10 -5 0
-7 -4 -4 -10z"/>
<path d="M2230 8296 c0 -2 8 -10 18 -17 15 -13 16 -12 3 4 -13 16 -21 21 -21
13z"/>
<path d="M799 8278 c-5 -19 -4 -48 2 -48 11 0 18 39 8 46 -5 3 -9 4 -10 2z"/>
<path d="M799 8193 c-3 -100 0 -215 6 -221 4 -4 5 19 3 51 -1 32 1 57 7 57 5
0 4 5 -2 11 -8 8 -8 20 -3 35 5 13 6 26 1 28 -4 3 -6 19 -3 36 2 16 2 30 -2
30 -3 0 -6 -12 -7 -27z"/>
<path d="M9497 8000 c2 -109 2 -110 11 -110 4 0 6 43 4 95 -2 52 -6 95 -10 95
-4 0 -6 -36 -5 -80z"/>
<path d="M799 7958 c-5 -19 -4 -48 2 -48 11 0 18 39 8 46 -5 3 -9 4 -10 2z"/>
<path d="M799 7873 c-4 -127 0 -435 5 -440 4 -4 6 68 4 160 -2 101 1 167 7
167 5 0 4 5 -2 11 -8 8 -8 20 -3 35 5 13 6 26 1 28 -4 3 -6 19 -3 36 2 16 2
30 -2 30 -3 0 -6 -12 -7 -27z"/>
<path d="M9498 7840 c2 -22 7 -40 11 -40 4 0 7 10 5 23 -1 12 -3 30 -3 40 -1
9 -4 17 -9 17 -4 0 -6 -18 -4 -40z"/>
<path d="M9501 7780 c-5 -31 -3 -201 3 -207 11 -11 11 -1 5 112 -3 61 -6 103
-8 95z"/>
<path d="M9497 7427 c0 -72 5 -133 10 -134 4 -2 6 40 3 92 -3 52 -3 95 0 95
10 0 5 70 -5 74 -6 2 -9 -44 -8 -127z"/>
<path d="M797 7400 c-3 -11 -1 -23 4 -26 5 -3 9 6 9 20 0 31 -6 34 -13 6z"/>
<path d="M795 7335 c0 -14 3 -25 8 -25 4 0 7 7 7 15 0 8 0 18 1 22 0 4 -3 9
-8 10 -4 2 -8 -8 -8 -22z"/>
<path d="M799 7288 c-4 -63 0 -490 5 -495 4 -4 5 104 4 240 -2 150 1 248 7
250 5 2 4 7 -3 11 -7 4 -12 2 -13 -6z"/>
<path d="M9497 7200 c2 -109 2 -110 11 -110 4 0 6 43 4 95 -2 52 -6 95 -10 95
-4 0 -6 -36 -5 -80z"/>
<path d="M9497 6947 c0 -72 5 -133 10 -134 4 -2 6 40 3 92 -3 52 -3 95 0 95
10 0 5 70 -5 74 -6 2 -9 -44 -8 -127z"/>
<path d="M9497 6720 c2 -109 2 -110 11 -110 4 0 6 43 4 95 -2 52 -6 95 -10 95
-4 0 -6 -36 -5 -80z"/>
<path d="M797 6760 c-3 -11 -1 -23 4 -26 5 -3 9 6 9 20 0 31 -6 34 -13 6z"/>
<path d="M795 6695 c0 -14 3 -25 8 -25 4 0 7 7 7 15 0 8 0 18 1 22 0 4 -3 9
-8 10 -4 2 -8 -8 -8 -22z"/>
<path d="M799 6648 c-4 -51 0 -271 6 -276 3 -4 5 55 3 131 -2 81 1 138 7 140
5 2 4 7 -3 11 -7 4 -12 2 -13 -6z"/>
<path d="M9498 6560 c2 -22 7 -40 11 -40 4 0 7 10 5 23 -1 12 -3 30 -3 40 -1
9 -4 17 -9 17 -4 0 -6 -18 -4 -40z"/>
<path d="M9501 6500 c-5 -31 -3 -201 3 -207 11 -11 11 -1 5 112 -3 61 -6 103
-8 95z"/>
<path d="M799 6358 c-5 -19 -4 -48 2 -48 11 0 18 39 8 46 -5 3 -9 4 -10 2z"/>
<path d="M799 6273 c-3 -100 0 -215 6 -221 4 -4 5 19 3 51 -1 32 1 57 7 57 5
0 4 5 -2 11 -8 8 -8 20 -3 35 5 13 6 26 1 28 -4 3 -6 19 -3 36 2 16 2 30 -2
30 -3 0 -6 -12 -7 -27z"/>
<path d="M9497 6147 c0 -72 5 -133 10 -134 4 -2 6 40 3 92 -3 52 -3 95 0 95
10 0 5 70 -5 74 -6 2 -9 -44 -8 -127z"/>
<path d="M799 6038 c-5 -19 -4 -48 2 -48 11 0 18 39 8 46 -5 3 -9 4 -10 2z"/>
<path d="M9497 5920 c2 -109 2 -110 11 -110 4 0 6 43 4 95 -2 52 -6 95 -10 95
-4 0 -6 -36 -5 -80z"/>
<path d="M799 5958 c-4 -147 -3 -178 8 -178 8 0 9 9 3 30 -6 21 -5 30 3 30 8
0 8 3 0 11 -8 8 -8 20 -3 35 5 13 6 26 1 28 -4 3 -6 19 -3 36 2 16 2 30 -2 30
-3 0 -6 -10 -7 -22z"/>
<path d="M9497 5667 c0 -72 5 -133 10 -134 4 -2 6 40 3 92 -3 52 -3 95 0 95
10 0 5 70 -5 74 -6 2 -9 -44 -8 -127z"/>
<path d="M799 5768 c-1 -4 -1 -121 0 -135 1 -7 6 -13 12 -13 8 0 8 4 0 14 -8
10 -9 16 -1 21 6 3 7 12 3 18 -4 6 -6 30 -4 54 1 24 0 43 -3 43 -3 0 -6 -1 -7
-2z"/>
<path d="M795 5575 c2 -50 15 -56 15 -7 0 23 -4 42 -8 42 -4 0 -7 -16 -7 -35z"/>
<path d="M799 5498 c-4 -85 -1 -300 4 -305 3 -3 7 68 9 157 2 89 0 164 -4 167
-5 2 -8 -6 -9 -19z"/>
<path d="M9497 5440 c2 -109 2 -110 11 -110 4 0 6 43 4 95 -2 52 -6 95 -10 95
-4 0 -6 -36 -5 -80z"/>
<path d="M9498 5280 c2 -22 7 -40 11 -40 4 0 7 10 5 23 -1 12 -3 30 -3 40 -1
9 -4 17 -9 17 -4 0 -6 -18 -4 -40z"/>
<path d="M9501 5220 c-5 -31 -3 -201 3 -207 11 -11 11 -1 5 112 -3 61 -6 103
-8 95z"/>
<path d="M797 5160 c-3 -11 -1 -23 4 -26 5 -3 9 6 9 20 0 31 -6 34 -13 6z"/>
<path d="M795 5095 c0 -14 3 -25 8 -25 4 0 7 7 7 15 0 8 0 18 1 22 0 4 -3 9
-8 10 -4 2 -8 -8 -8 -22z"/>
<path d="M799 5048 c-6 -82 -2 -228 6 -228 6 0 8 40 5 110 -3 65 -1 111 5 113
5 2 4 7 -3 11 -7 4 -12 2 -13 -6z"/>
<path d="M4410 5000 c0 -5 5 -10 11 -10 5 0 7 5 4 10 -3 6 -8 10 -11 10 -2 0
-4 -4 -4 -10z"/>
<path d="M9497 4867 c0 -72 5 -133 10 -134 4 -2 6 40 3 92 -3 52 -3 95 0 95
10 0 5 70 -5 74 -6 2 -9 -44 -8 -127z"/>
<path d="M4366 4978 c3 -4 9 -8 15 -8 5 0 9 4 9 8 0 5 -7 9 -15 9 -8 0 -12 -4
-9 -9z"/>
<path d="M4405 4970 c-3 -6 1 -7 9 -4 18 7 21 14 7 14 -6 0 -13 -4 -16 -10z"/>
<path d="M799 4808 c-1 -4 -1 -121 0 -135 1 -7 6 -13 12 -13 8 0 8 4 0 14 -8
10 -9 16 -1 21 6 3 7 12 3 18 -4 6 -6 30 -4 54 1 24 0 43 -3 43 -3 0 -6 -1 -7
-2z"/>
<path d="M9497 4640 c2 -109 2 -110 11 -110 4 0 6 43 4 95 -2 52 -6 95 -10 95
-4 0 -6 -36 -5 -80z"/>
<path d="M795 4615 c2 -50 15 -56 15 -7 0 23 -4 42 -8 42 -4 0 -7 -16 -7 -35z"/>
<path d="M3239 4648 c-6 -19 -4 -50 4 -55 6 -3 7 -1 3 5 -4 7 -2 12 5 12 8 0
9 3 0 13 -6 8 -8 17 -4 20 3 4 3 7 0 7 -4 0 -7 -1 -8 -2z"/>
<path d="M798 4520 c-2 -22 -1 -47 3 -57 4 -11 8 4 10 35 5 62 -7 82 -13 22z"/>
<path d="M9497 4387 c0 -72 5 -133 10 -134 4 -2 6 40 3 92 -3 52 -3 95 0 95
10 0 5 70 -5 74 -6 2 -9 -44 -8 -127z"/>
<path d="M799 4438 c-5 -19 -4 -48 2 -48 11 0 18 39 8 46 -5 3 -9 4 -10 2z"/>
<path d="M799 4353 c-3 -100 0 -215 6 -221 4 -4 5 19 3 51 -1 32 1 57 7 57 5
0 4 5 -2 11 -8 8 -8 20 -3 35 5 13 6 26 1 28 -4 3 -6 19 -3 36 2 16 2 30 -2
30 -3 0 -6 -12 -7 -27z"/>
<path d="M9497 4160 c2 -109 2 -110 11 -110 4 0 6 43 4 95 -2 52 -6 95 -10 95
-4 0 -6 -36 -5 -80z"/>
<path d="M799 4118 c-5 -19 -4 -48 2 -48 11 0 18 39 8 46 -5 3 -9 4 -10 2z"/>
<path d="M799 4033 c-4 -127 0 -435 5 -440 4 -4 6 68 4 160 -2 101 1 167 7
167 5 0 4 5 -2 11 -8 8 -8 20 -3 35 5 13 6 26 1 28 -4 3 -6 19 -3 36 2 16 2
30 -2 30 -3 0 -6 -12 -7 -27z"/>
<path d="M9498 4000 c2 -22 7 -40 11 -40 4 0 7 10 5 23 -1 12 -3 30 -3 40 -1
9 -4 17 -9 17 -4 0 -6 -18 -4 -40z"/>
<path d="M9501 3940 c-5 -31 -3 -201 3 -207 11 -11 11 -1 5 112 -3 61 -6 103
-8 95z"/>
<path d="M9497 3587 c0 -72 5 -133 10 -134 4 -2 6 40 3 92 -3 52 -3 95 0 95
10 0 5 70 -5 74 -6 2 -9 -44 -8 -127z"/>
<path d="M1713 3657 c-2 -45 -22 -68 -48 -55 -20 9 -20 9 0 -7 17 -14 18 -17
5 -25 -10 -7 -11 -10 -2 -10 6 0 12 -5 12 -11 0 -5 -4 -7 -10 -4 -5 3 -10 1
-10 -5 0 -21 25 -4 26 19 1 12 9 30 20 42 18 20 26 56 14 64 -4 2 -7 -1 -7 -8z"/>
<path d="M1666 3618 c3 -5 10 -6 15 -3 13 9 11 12 -6 12 -8 0 -12 -4 -9 -9z"/>
<path d="M1710 3579 c-7 -11 -9 -23 -6 -27 3 -3 6 0 6 7 0 7 4 10 8 7 4 -2 8
4 8 15 0 24 -3 24 -16 -2z"/>
<path d="M1630 3580 c0 -5 5 -10 10 -10 6 0 10 5 10 10 0 6 -4 10 -10 10 -5 0
-10 -4 -10 -10z"/>
<path d="M797 3560 c-3 -11 -1 -23 4 -26 5 -3 9 6 9 20 0 31 -6 34 -13 6z"/>
<path d="M1641 3549 c-1 -9 -11 -29 -23 -45 -13 -15 -17 -25 -10 -20 16 9 16
-5 0 -27 -14 -18 -29 -13 -46 18 -6 11 -12 15 -12 9 0 -7 8 -22 18 -35 17 -20
21 -21 40 -7 12 8 19 18 15 21 -3 4 0 7 7 7 11 0 11 3 3 11 -9 9 -8 18 4 35 8
13 13 29 10 36 -4 9 -6 8 -6 -3z"/>
<path d="M1597 3539 c7 -7 15 -10 18 -7 3 3 -2 9 -12 12 -14 6 -15 5 -6 -5z"/>
<path d="M1587 3515 c3 -8 9 -12 14 -9 12 7 11 11 -5 17 -10 4 -13 1 -9 -8z"/>
<path d="M795 3495 c0 -14 3 -25 8 -25 4 0 7 7 7 15 0 8 0 18 1 22 0 4 -3 9
-8 10 -4 2 -8 -8 -8 -22z"/>
<path d="M1560 3514 c0 -7 9 -22 21 -35 16 -19 18 -20 10 -4 -17 34 -31 51
-31 39z"/>
<path d="M799 3448 c-4 -63 0 -490 5 -495 4 -4 5 104 4 240 -2 150 1 248 7
250 5 2 4 7 -3 11 -7 4 -12 2 -13 -6z"/>
<path d="M1540 3435 c10 -12 9 -16 -4 -20 -9 -3 -24 -8 -33 -12 -10 -3 -21 -6
-24 -5 -3 0 -6 -5 -6 -13 0 -8 4 -12 8 -9 4 2 10 -2 12 -8 4 -10 6 -10 6 0 1
8 6 10 14 6 8 -5 8 -2 -2 9 -12 15 -11 17 7 17 12 0 24 5 27 10 4 6 16 8 28 5
21 -5 21 -5 0 6 -13 7 -23 16 -23 21 0 4 -5 8 -11 8 -8 0 -8 -5 1 -15z"/>
<path d="M1478 3433 c7 -3 16 -2 19 1 4 3 -2 6 -13 5 -11 0 -14 -3 -6 -6z"/>
<path d="M9497 3360 c2 -109 2 -110 11 -110 4 0 6 43 4 95 -2 52 -6 95 -10 95
-4 0 -6 -36 -5 -80z"/>
<path d="M1435 3390 c3 -5 8 -10 11 -10 2 0 4 5 4 10 0 6 -5 10 -11 10 -5 0
-7 -4 -4 -10z"/>
<path d="M1446 3349 c21 -23 23 -23 20 -2 -2 9 -11 17 -20 19 -17 2 -17 2 0
-17z"/>
<path d="M1428 3323 c7 -3 16 -2 19 1 4 3 -2 6 -13 5 -11 0 -14 -3 -6 -6z"/>
<path d="M1390 3301 c0 -6 4 -13 10 -16 6 -3 7 1 4 9 -7 18 -14 21 -14 7z"/>
<path d="M9497 3107 c0 -72 5 -133 10 -134 4 -2 6 40 3 92 -3 52 -3 95 0 95
10 0 5 70 -5 74 -6 2 -9 -44 -8 -127z"/>
<path d="M9497 2880 c2 -109 2 -110 11 -110 4 0 6 43 4 95 -2 52 -6 95 -10 95
-4 0 -6 -36 -5 -80z"/>
<path d="M797 2920 c-3 -11 -1 -23 4 -26 5 -3 9 6 9 20 0 31 -6 34 -13 6z"/>
<path d="M795 2855 c0 -14 3 -25 8 -25 4 0 7 7 7 15 0 8 0 18 1 22 0 4 -3 9
-8 10 -4 2 -8 -8 -8 -22z"/>
<path d="M799 2808 c-4 -51 0 -271 6 -276 3 -4 5 55 3 131 -2 81 1 138 7 140
5 2 4 7 -3 11 -7 4 -12 2 -13 -6z"/>
<path d="M9498 2720 c2 -22 7 -40 11 -40 4 0 7 10 5 23 -1 12 -3 30 -3 40 -1
9 -4 17 -9 17 -4 0 -6 -18 -4 -40z"/>
<path d="M9501 2660 c-5 -31 -3 -201 3 -207 11 -11 11 -1 5 112 -3 61 -6 103
-8 95z"/>
<path d="M799 2518 c-5 -19 -4 -48 2 -48 11 0 18 39 8 46 -5 3 -9 4 -10 2z"/>
<path d="M926 2458 c3 -4 9 -8 15 -8 5 0 9 4 9 8 0 5 -7 9 -15 9 -8 0 -12 -4
-9 -9z"/>
<path d="M798 2431 c-5 -34 0 -51 15 -51 8 0 8 3 0 11 -8 8 -8 20 -3 35 5 13
5 26 1 29 -5 2 -11 -8 -13 -24z"/>
<path d="M919 2434 c0 -5 -2 -17 -4 -26 -2 -9 3 -19 10 -21 8 -4 11 3 9 20 -2
25 -13 45 -15 27z"/>
<path d="M9498 2400 c2 -22 7 -40 11 -40 4 0 7 10 5 23 -1 12 -3 30 -3 40 -1
9 -4 17 -9 17 -4 0 -6 -18 -4 -40z"/>
<path d="M800 2360 c-7 -55 -4 -120 6 -120 8 0 9 13 4 40 -4 21 -4 41 0 42 3
2 3 14 -1 28 -4 14 -8 18 -9 10z"/>
<path d="M915 2354 c-16 -12 -18 -18 -7 -34 6 -10 8 -22 3 -25 -5 -3 -11 0
-13 7 -3 7 -5 -4 -6 -25 -1 -37 4 -43 23 -29 13 9 16 72 4 72 -5 0 -9 5 -9 11
0 5 5 7 12 3 6 -4 8 -3 4 4 -3 5 0 12 6 15 7 2 11 7 8 10 -3 3 -14 -1 -25 -9z
m1 -79 c-3 -20 -16 -31 -16 -13 0 13 8 28 16 28 1 0 1 -7 0 -15z"/>
<path d="M9501 2340 c-5 -27 -3 -171 2 -176 10 -11 12 13 6 101 -3 50 -6 83
-8 75z"/>
<path d="M800 2210 c-4 -38 -2 -81 4 -88 10 -10 11 2 5 58 -3 30 -7 44 -9 30z"/>
<path d="M9498 2145 c-6 -7 3 -65 11 -65 3 0 6 16 6 35 0 33 -5 42 -17 30z"/>
<path d="M797 2097 c-3 -9 -2 -19 4 -23 15 -9 18 -2 9 20 -6 17 -7 18 -13 3z"/>
<path d="M9497 2056 c-6 -14 0 -26 13 -26 3 0 6 9 6 20 0 23 -11 27 -19 6z"/>
<path d="M797 2048 c-5 -16 3 -48 12 -48 4 0 6 14 3 30 -5 33 -8 37 -15 18z"/>
<path d="M9499 2019 c-5 -29 -2 -324 3 -332 9 -15 9 -24 9 167 -1 88 -3 161
-6 164 -3 3 -5 3 -6 1z"/>
<path d="M799 1973 c0 -10 -2 -28 -3 -40 -2 -13 1 -23 6 -23 4 0 8 18 8 40 0
39 -9 58 -11 23z"/>
<path d="M799 1876 c0 -14 -1 -40 -2 -58 0 -17 4 -33 10 -35 8 -3 9 7 4 29 -5
19 -4 44 0 56 5 12 4 24 -1 27 -6 4 -10 -5 -11 -19z"/>
<path d="M799 1753 c0 -10 -2 -28 -3 -40 -2 -13 1 -23 6 -23 4 0 8 18 8 40 0
39 -9 58 -11 23z"/>
<path d="M835 1741 c-3 -5 -2 -12 3 -15 5 -3 9 1 9 9 0 17 -3 19 -12 6z"/>
<path d="M799 1663 c-4 -82 -3 -136 4 -140 4 -2 7 32 7 76 0 45 -2 81 -5 81
-3 0 -5 -8 -6 -17z"/>
<path d="M9499 1663 c-4 -42 -3 -93 2 -93 4 0 9 23 11 50 1 28 0 50 -4 50 -5
0 -8 -3 -9 -7z"/>
<path d="M9499 1538 c-3 -15 -2 -32 2 -40 12 -19 16 -7 9 32 -5 34 -6 34 -11
8z"/>
<path d="M799 1493 c0 -10 -2 -28 -3 -40 -1 -12 1 -28 5 -34 4 -6 8 11 10 40
2 28 1 51 -3 51 -5 0 -8 -8 -9 -17z"/>
<path d="M9496 1328 c1 -84 5 -153 10 -155 8 -3 8 49 4 290 0 9 -3 17 -7 17
-5 0 -8 -68 -7 -152z"/>
<path d="M797 1380 c-3 -11 -2 -22 3 -25 4 -3 10 4 13 15 3 11 2 22 -3 25 -4
3 -10 -4 -13 -15z"/>
<path d="M795 1330 c-3 -5 -2 -10 4 -10 5 0 13 5 16 10 3 6 2 10 -4 10 -5 0
-13 -4 -16 -10z"/>
<path d="M5050 1320 c0 -5 5 -10 11 -10 5 0 7 5 4 10 -3 6 -8 10 -11 10 -2 0
-4 -4 -4 -10z"/>
<path d="M799 1298 c-6 -87 -2 -318 6 -318 8 0 12 211 4 240 0 3 0 24 1 48 1
23 -1 42 -4 42 -3 0 -6 -6 -7 -12z"/>
<path d="M5695 1200 c3 -5 8 -10 11 -10 2 0 4 5 4 10 0 6 -5 10 -11 10 -5 0
-7 -4 -4 -10z"/>
<path d="M9497 1027 c0 -72 5 -133 10 -134 4 -2 6 40 3 92 -3 52 -3 95 0 95
10 0 5 70 -5 74 -6 2 -9 -44 -8 -127z"/>
<path d="M4573 1115 c0 -8 4 -12 9 -9 5 3 6 10 3 15 -9 13 -12 11 -12 -6z"/>
<path d="M799 968 c-1 -4 -1 -121 0 -135 1 -7 6 -13 12 -13 8 0 8 4 0 14 -8
10 -9 16 -1 21 6 3 7 12 3 18 -4 6 -6 30 -4 54 1 24 0 43 -3 43 -3 0 -6 -1 -7
-2z"/>
<path d="M6090 956 c0 -2 8 -10 18 -17 15 -13 16 -12 3 4 -13 16 -21 21 -21
13z"/>
<path d="M9497 800 c2 -109 2 -110 11 -110 4 0 6 43 4 95 -2 52 -6 95 -10 95
-4 0 -6 -36 -5 -80z"/>
<path d="M795 775 c2 -50 15 -56 15 -7 0 23 -4 42 -8 42 -4 0 -7 -16 -7 -35z"/>
<path d="M798 680 c-2 -22 -1 -47 3 -57 4 -11 8 4 10 35 5 62 -7 82 -13 22z"/>
<path d="M9497 547 c0 -72 5 -133 10 -134 4 -2 6 40 3 92 -3 52 -3 95 0 95 10
0 5 70 -5 74 -6 2 -9 -44 -8 -127z"/>
<path d="M8987 659 c7 -7 15 -10 18 -7 3 3 -2 9 -12 12 -14 6 -15 5 -6 -5z"/>
<path d="M799 598 c-5 -19 -4 -48 2 -48 11 0 18 39 8 46 -5 3 -9 4 -10 2z"/>
<path d="M799 513 c-3 -100 0 -215 6 -221 4 -4 5 19 3 51 -1 32 1 57 7 57 5 0
4 5 -2 11 -8 8 -8 20 -3 35 5 13 6 26 1 28 -4 3 -6 19 -3 36 2 16 2 30 -2 30
-3 0 -6 -12 -7 -27z"/>
<path d="M1615 501 c-3 -5 -2 -12 3 -15 5 -3 9 1 9 9 0 17 -3 19 -12 6z"/>
<path d="M9497 320 c2 -109 2 -110 11 -110 4 0 6 43 4 95 -2 52 -6 95 -10 95
-4 0 -6 -36 -5 -80z"/>
<path d="M1835 380 c-3 -5 -1 -10 4 -10 6 0 11 5 11 10 0 6 -2 10 -4 10 -3 0
-8 -4 -11 -10z"/>
<path d="M3450 376 c7 -7 13 -7 20 0 6 6 3 10 -10 10 -13 0 -16 -4 -10 -10z"/>
<path d="M8453 345 c0 -8 4 -15 9 -15 4 0 8 4 8 9 0 6 -4 12 -8 15 -5 3 -9 -1
-9 -9z"/>
<path d="M7090 319 c0 -5 5 -7 10 -4 6 3 10 8 10 11 0 2 -4 4 -10 4 -5 0 -10
-5 -10 -11z"/>
<path d="M2030 299 c0 -5 5 -7 10 -4 6 3 10 8 10 11 0 2 -4 4 -10 4 -5 0 -10
-5 -10 -11z"/>
<path d="M3270 306 c0 -2 7 -7 16 -10 8 -3 12 -2 9 4 -6 10 -25 14 -25 6z"/>
<path d="M799 278 c-5 -19 -4 -48 2 -48 11 0 18 39 8 46 -5 3 -9 4 -10 2z"/>
<path d="M2150 259 c0 -5 5 -7 10 -4 6 3 10 8 10 11 0 2 -4 4 -10 4 -5 0 -10
-5 -10 -11z"/>
<path d="M2236 258 c3 -5 10 -6 15 -3 13 9 11 12 -6 12 -8 0 -12 -4 -9 -9z"/>
<path d="M2335 240 c3 -5 8 -10 11 -10 2 0 4 5 4 10 0 6 -5 10 -11 10 -5 0 -7
-4 -4 -10z"/>
<path d="M2636 218 c3 -5 10 -6 15 -3 13 9 11 12 -6 12 -8 0 -12 -4 -9 -9z"/>
<path d="M2676 222 c-3 -5 1 -9 9 -9 8 0 12 4 9 9 -3 4 -7 8 -9 8 -2 0 -6 -4
-9 -8z"/>
<path d="M2750 220 c0 -5 5 -10 11 -10 5 0 7 5 4 10 -3 6 -8 10 -11 10 -2 0
-4 -4 -4 -10z"/>
<path d="M799 198 c0 -13 -1 -38 -2 -56 -1 -17 1 -32 4 -32 10 0 18 39 10 45
-4 2 -6 18 -3 35 2 16 2 30 -2 30 -3 0 -6 -10 -7 -22z"/>
<path d="M9498 160 c2 -22 7 -40 11 -40 4 0 7 10 5 23 -1 12 -3 30 -3 40 -1 9
-4 17 -9 17 -4 0 -6 -18 -4 -40z"/>
<path d="M9501 103 c-1 -7 -4 -12 -8 -12 -28 5 -155 -2 -149 -8 7 -8 155 -7
163 1 3 2 3 11 0 18 -4 10 -6 10 -6 1z"/>
<path d="M794 89 c-6 -10 50 -16 72 -8 13 4 6 8 -24 10 -24 3 -45 2 -48 -2z"/>
<path d="M7977 93 c-4 -3 -7 -11 -7 -17 0 -6 5 -5 12 2 6 6 9 14 7 17 -3 3 -9
2 -12 -2z"/>
<path d="M890 81 c0 -10 26 -9 36 2 4 4 -2 7 -14 7 -12 0 -22 -4 -22 -9z"/>
<path d="M944 81 c5 -8 56 -3 56 5 0 2 -14 4 -31 4 -16 0 -28 -4 -25 -9z"/>
<path d="M1010 81 c0 -10 26 -9 36 2 4 4 -2 7 -14 7 -12 0 -22 -4 -22 -9z"/>
<path d="M1064 81 c5 -8 56 -3 56 5 0 2 -14 4 -31 4 -16 0 -28 -4 -25 -9z"/>
<path d="M1130 81 c0 -10 26 -9 36 2 4 4 -2 7 -14 7 -12 0 -22 -4 -22 -9z"/>
<path d="M1184 81 c5 -8 56 -3 56 5 0 2 -14 4 -31 4 -16 0 -28 -4 -25 -9z"/>
<path d="M1250 81 c0 -10 26 -9 36 2 4 4 -2 7 -14 7 -12 0 -22 -4 -22 -9z"/>
<path d="M1304 81 c5 -8 56 -3 56 5 0 2 -14 4 -31 4 -16 0 -28 -4 -25 -9z"/>
<path d="M1370 81 c0 -10 26 -9 36 2 4 4 -2 7 -14 7 -12 0 -22 -4 -22 -9z"/>
<path d="M1424 81 c5 -8 56 -3 56 5 0 2 -14 4 -31 4 -16 0 -28 -4 -25 -9z"/>
<path d="M1490 81 c0 -10 26 -9 36 2 4 4 -2 7 -14 7 -12 0 -22 -4 -22 -9z"/>
<path d="M1544 81 c5 -8 56 -3 56 5 0 2 -14 4 -31 4 -16 0 -28 -4 -25 -9z"/>
<path d="M1610 81 c0 -10 26 -9 36 2 4 4 -2 7 -14 7 -12 0 -22 -4 -22 -9z"/>
<path d="M1664 81 c5 -8 56 -3 56 5 0 2 -14 4 -31 4 -16 0 -28 -4 -25 -9z"/>
<path d="M1730 81 c0 -10 26 -9 36 2 4 4 -2 7 -14 7 -12 0 -22 -4 -22 -9z"/>
<path d="M1784 81 c5 -8 56 -3 56 5 0 2 -14 4 -31 4 -16 0 -28 -4 -25 -9z"/>
<path d="M1850 81 c0 -10 26 -9 36 2 4 4 -2 7 -14 7 -12 0 -22 -4 -22 -9z"/>
<path d="M1904 81 c5 -8 56 -3 56 5 0 2 -14 4 -31 4 -16 0 -28 -4 -25 -9z"/>
<path d="M1970 81 c0 -10 26 -9 36 2 4 4 -2 7 -14 7 -12 0 -22 -4 -22 -9z"/>
<path d="M2024 81 c5 -8 56 -3 56 5 0 2 -14 4 -31 4 -16 0 -28 -4 -25 -9z"/>
<path d="M2090 81 c0 -10 26 -9 36 2 4 4 -2 7 -14 7 -12 0 -22 -4 -22 -9z"/>
<path d="M2144 81 c5 -8 56 -3 56 5 0 2 -14 4 -31 4 -16 0 -28 -4 -25 -9z"/>
<path d="M2210 81 c0 -10 26 -9 36 2 4 4 -2 7 -14 7 -12 0 -22 -4 -22 -9z"/>
<path d="M2264 81 c5 -8 56 -3 56 5 0 2 -14 4 -31 4 -16 0 -28 -4 -25 -9z"/>
<path d="M2330 81 c0 -10 26 -9 36 2 4 4 -2 7 -14 7 -12 0 -22 -4 -22 -9z"/>
<path d="M2384 81 c5 -8 56 -3 56 5 0 2 -14 4 -31 4 -16 0 -28 -4 -25 -9z"/>
<path d="M2450 81 c0 -10 26 -9 36 2 4 4 -2 7 -14 7 -12 0 -22 -4 -22 -9z"/>
<path d="M2504 81 c5 -8 56 -3 56 5 0 2 -14 4 -31 4 -16 0 -28 -4 -25 -9z"/>
<path d="M2570 81 c0 -10 26 -9 36 2 4 4 -2 7 -14 7 -12 0 -22 -4 -22 -9z"/>
<path d="M2624 81 c5 -8 56 -3 56 5 0 2 -14 4 -31 4 -16 0 -28 -4 -25 -9z"/>
<path d="M2690 81 c0 -10 26 -9 36 2 4 4 -2 7 -14 7 -12 0 -22 -4 -22 -9z"/>
<path d="M2744 81 c5 -8 56 -3 56 5 0 2 -14 4 -31 4 -16 0 -28 -4 -25 -9z"/>
<path d="M2810 81 c0 -10 26 -9 36 2 4 4 -2 7 -14 7 -12 0 -22 -4 -22 -9z"/>
<path d="M2864 81 c5 -8 56 -3 56 5 0 2 -14 4 -31 4 -16 0 -28 -4 -25 -9z"/>
<path d="M2930 81 c0 -10 26 -9 36 2 4 4 -2 7 -14 7 -12 0 -22 -4 -22 -9z"/>
<path d="M2980 82 c0 -5 14 -7 30 -4 17 2 30 6 30 8 0 2 -13 4 -30 4 -16 0
-30 -4 -30 -8z"/>
<path d="M3050 81 c0 -10 26 -9 36 2 4 4 -2 7 -14 7 -12 0 -22 -4 -22 -9z"/>
<path d="M3104 81 c5 -8 56 -3 56 5 0 2 -14 4 -31 4 -16 0 -28 -4 -25 -9z"/>
<path d="M3170 81 c0 -10 26 -9 36 2 4 4 -2 7 -14 7 -12 0 -22 -4 -22 -9z"/>
<path d="M3224 81 c5 -8 56 -3 56 5 0 2 -14 4 -31 4 -16 0 -28 -4 -25 -9z"/>
<path d="M3290 81 c0 -10 26 -9 36 2 4 4 -2 7 -14 7 -12 0 -22 -4 -22 -9z"/>
<path d="M3344 81 c5 -8 56 -3 56 5 0 2 -14 4 -31 4 -16 0 -28 -4 -25 -9z"/>
<path d="M3410 81 c0 -10 26 -9 36 2 4 4 -2 7 -14 7 -12 0 -22 -4 -22 -9z"/>
<path d="M3464 81 c5 -8 56 -3 56 5 0 2 -14 4 -31 4 -16 0 -28 -4 -25 -9z"/>
<path d="M3530 81 c0 -10 26 -9 36 2 4 4 -2 7 -14 7 -12 0 -22 -4 -22 -9z"/>
<path d="M3584 81 c5 -8 56 -3 56 5 0 2 -14 4 -31 4 -16 0 -28 -4 -25 -9z"/>
<path d="M3650 81 c0 -10 26 -9 36 2 4 4 -2 7 -14 7 -12 0 -22 -4 -22 -9z"/>
<path d="M3704 81 c5 -8 56 -3 56 5 0 2 -14 4 -31 4 -16 0 -28 -4 -25 -9z"/>
<path d="M3770 81 c0 -10 26 -9 36 2 4 4 -2 7 -14 7 -12 0 -22 -4 -22 -9z"/>
<path d="M3824 81 c5 -8 56 -3 56 5 0 2 -14 4 -31 4 -16 0 -28 -4 -25 -9z"/>
<path d="M3890 81 c0 -10 26 -9 36 2 4 4 -2 7 -14 7 -12 0 -22 -4 -22 -9z"/>
<path d="M3944 81 c5 -8 56 -3 56 5 0 2 -14 4 -31 4 -16 0 -28 -4 -25 -9z"/>
<path d="M4010 81 c0 -10 26 -9 36 2 4 4 -2 7 -14 7 -12 0 -22 -4 -22 -9z"/>
<path d="M4064 81 c5 -8 56 -3 56 5 0 2 -14 4 -31 4 -16 0 -28 -4 -25 -9z"/>
<path d="M4130 81 c0 -10 26 -9 36 2 4 4 -2 7 -14 7 -12 0 -22 -4 -22 -9z"/>
<path d="M4184 81 c5 -8 56 -3 56 5 0 2 -14 4 -31 4 -16 0 -28 -4 -25 -9z"/>
<path d="M4250 81 c0 -10 26 -9 36 2 4 4 -2 7 -14 7 -12 0 -22 -4 -22 -9z"/>
<path d="M4304 81 c5 -8 56 -3 56 5 0 2 -14 4 -31 4 -16 0 -28 -4 -25 -9z"/>
<path d="M4370 81 c0 -10 26 -9 36 2 4 4 -2 7 -14 7 -12 0 -22 -4 -22 -9z"/>
<path d="M4424 81 c5 -8 56 -3 56 5 0 2 -14 4 -31 4 -16 0 -28 -4 -25 -9z"/>
<path d="M4490 81 c0 -10 26 -9 36 2 4 4 -2 7 -14 7 -12 0 -22 -4 -22 -9z"/>
<path d="M4544 81 c5 -8 56 -3 56 5 0 2 -14 4 -31 4 -16 0 -28 -4 -25 -9z"/>
<path d="M4610 81 c0 -10 26 -9 36 2 4 4 -2 7 -14 7 -12 0 -22 -4 -22 -9z"/>
<path d="M4664 81 c5 -8 56 -3 56 5 0 2 -14 4 -31 4 -16 0 -28 -4 -25 -9z"/>
<path d="M4730 81 c0 -10 26 -9 36 2 4 4 -2 7 -14 7 -12 0 -22 -4 -22 -9z"/>
<path d="M4784 81 c5 -8 56 -3 56 5 0 2 -14 4 -31 4 -16 0 -28 -4 -25 -9z"/>
<path d="M4850 81 c0 -10 26 -9 36 2 4 4 -2 7 -14 7 -12 0 -22 -4 -22 -9z"/>
<path d="M4904 81 c5 -8 56 -3 56 5 0 2 -14 4 -31 4 -16 0 -28 -4 -25 -9z"/>
<path d="M4970 81 c0 -10 26 -9 36 2 4 4 -2 7 -14 7 -12 0 -22 -4 -22 -9z"/>
<path d="M5024 81 c5 -8 56 -3 56 5 0 2 -14 4 -31 4 -16 0 -28 -4 -25 -9z"/>
<path d="M5090 81 c0 -10 26 -9 36 2 4 4 -2 7 -14 7 -12 0 -22 -4 -22 -9z"/>
<path d="M5144 81 c5 -8 56 -3 56 5 0 2 -14 4 -31 4 -16 0 -28 -4 -25 -9z"/>
<path d="M5210 81 c0 -10 26 -9 36 2 4 4 -2 7 -14 7 -12 0 -22 -4 -22 -9z"/>
<path d="M5264 81 c5 -8 56 -3 56 5 0 2 -14 4 -31 4 -16 0 -28 -4 -25 -9z"/>
<path d="M5330 81 c0 -10 26 -9 36 2 4 4 -2 7 -14 7 -12 0 -22 -4 -22 -9z"/>
<path d="M5384 81 c5 -8 56 -3 56 5 0 2 -14 4 -31 4 -16 0 -28 -4 -25 -9z"/>
<path d="M5450 81 c0 -10 26 -9 36 2 4 4 -2 7 -14 7 -12 0 -22 -4 -22 -9z"/>
<path d="M5504 81 c5 -8 56 -3 56 5 0 2 -14 4 -31 4 -16 0 -28 -4 -25 -9z"/>
<path d="M5570 81 c0 -10 26 -9 36 2 4 4 -2 7 -14 7 -12 0 -22 -4 -22 -9z"/>
<path d="M5624 81 c5 -8 56 -3 56 5 0 2 -14 4 -31 4 -16 0 -28 -4 -25 -9z"/>
<path d="M5690 81 c0 -10 26 -9 36 2 4 4 -2 7 -14 7 -12 0 -22 -4 -22 -9z"/>
<path d="M5744 81 c5 -8 56 -3 56 5 0 2 -14 4 -31 4 -16 0 -28 -4 -25 -9z"/>
<path d="M5810 81 c0 -10 26 -9 36 2 4 4 -2 7 -14 7 -12 0 -22 -4 -22 -9z"/>
<path d="M5864 81 c5 -8 56 -3 56 5 0 2 -14 4 -31 4 -16 0 -28 -4 -25 -9z"/>
<path d="M5930 81 c0 -10 26 -9 36 2 4 4 -2 7 -14 7 -12 0 -22 -4 -22 -9z"/>
<path d="M5984 81 c5 -8 56 -3 56 5 0 2 -14 4 -31 4 -16 0 -28 -4 -25 -9z"/>
<path d="M6050 81 c0 -10 26 -9 36 2 4 4 -2 7 -14 7 -12 0 -22 -4 -22 -9z"/>
<path d="M6104 81 c5 -8 56 -3 56 5 0 2 -14 4 -31 4 -16 0 -28 -4 -25 -9z"/>
<path d="M6170 81 c0 -10 26 -9 36 2 4 4 -2 7 -14 7 -12 0 -22 -4 -22 -9z"/>
<path d="M6224 81 c5 -8 56 -3 56 5 0 2 -14 4 -31 4 -16 0 -28 -4 -25 -9z"/>
<path d="M6290 81 c0 -10 26 -9 36 2 4 4 -2 7 -14 7 -12 0 -22 -4 -22 -9z"/>
<path d="M6344 81 c5 -8 56 -3 56 5 0 2 -14 4 -31 4 -16 0 -28 -4 -25 -9z"/>
<path d="M6410 81 c0 -10 26 -9 36 2 4 4 -2 7 -14 7 -12 0 -22 -4 -22 -9z"/>
<path d="M6464 81 c5 -8 56 -3 56 5 0 2 -14 4 -31 4 -16 0 -28 -4 -25 -9z"/>
<path d="M6530 81 c0 -10 26 -9 36 2 4 4 -2 7 -14 7 -12 0 -22 -4 -22 -9z"/>
<path d="M6584 81 c5 -8 56 -3 56 5 0 2 -14 4 -31 4 -16 0 -28 -4 -25 -9z"/>
<path d="M6650 81 c0 -10 26 -9 36 2 4 4 -2 7 -14 7 -12 0 -22 -4 -22 -9z"/>
<path d="M6704 81 c5 -8 56 -3 56 5 0 2 -14 4 -31 4 -16 0 -28 -4 -25 -9z"/>
<path d="M6770 81 c0 -10 26 -9 36 2 4 4 -2 7 -14 7 -12 0 -22 -4 -22 -9z"/>
<path d="M6824 81 c5 -8 56 -3 56 5 0 2 -14 4 -31 4 -16 0 -28 -4 -25 -9z"/>
<path d="M6890 81 c0 -10 26 -9 36 2 4 4 -2 7 -14 7 -12 0 -22 -4 -22 -9z"/>
<path d="M6944 81 c5 -8 56 -3 56 5 0 2 -14 4 -31 4 -16 0 -28 -4 -25 -9z"/>
<path d="M7010 81 c0 -10 26 -9 36 2 4 4 -2 7 -14 7 -12 0 -22 -4 -22 -9z"/>
<path d="M7064 81 c5 -8 56 -3 56 5 0 2 -14 4 -31 4 -16 0 -28 -4 -25 -9z"/>
<path d="M7130 81 c0 -10 26 -9 36 2 4 4 -2 7 -14 7 -12 0 -22 -4 -22 -9z"/>
<path d="M7184 81 c5 -8 56 -3 56 5 0 2 -14 4 -31 4 -16 0 -28 -4 -25 -9z"/>
<path d="M7250 81 c0 -10 26 -9 36 2 4 4 -2 7 -14 7 -12 0 -22 -4 -22 -9z"/>
<path d="M7304 81 c5 -8 56 -3 56 5 0 2 -14 4 -31 4 -16 0 -28 -4 -25 -9z"/>
<path d="M7370 81 c0 -10 26 -9 36 2 4 4 -2 7 -14 7 -12 0 -22 -4 -22 -9z"/>
<path d="M7424 81 c5 -8 56 -3 56 5 0 2 -14 4 -31 4 -16 0 -28 -4 -25 -9z"/>
<path d="M7490 81 c0 -10 26 -9 36 2 4 4 -2 7 -14 7 -12 0 -22 -4 -22 -9z"/>
<path d="M7544 81 c5 -8 56 -3 56 5 0 2 -14 4 -31 4 -16 0 -28 -4 -25 -9z"/>
<path d="M7610 81 c0 -10 26 -9 36 2 4 4 -2 7 -14 7 -12 0 -22 -4 -22 -9z"/>
<path d="M7664 81 c5 -8 56 -3 56 5 0 2 -14 4 -31 4 -16 0 -28 -4 -25 -9z"/>
<path d="M7730 81 c0 -10 26 -9 36 2 4 4 -2 7 -14 7 -12 0 -22 -4 -22 -9z"/>
<path d="M7784 81 c5 -8 56 -3 56 5 0 2 -14 4 -31 4 -16 0 -28 -4 -25 -9z"/>
<path d="M7850 81 c0 -10 26 -9 36 2 4 4 -2 7 -14 7 -12 0 -22 -4 -22 -9z"/>
<path d="M7904 81 c5 -8 56 -3 56 5 0 2 -14 4 -31 4 -16 0 -28 -4 -25 -9z"/>
<path d="M8007 79 c5 -4 24 -4 43 1 l35 9 -43 -2 c-23 0 -39 -4 -35 -8z"/>
<path d="M8090 81 c0 -10 26 -9 36 2 4 4 -2 7 -14 7 -12 0 -22 -4 -22 -9z"/>
<path d="M8144 81 c5 -8 56 -3 56 5 0 2 -14 4 -31 4 -16 0 -28 -4 -25 -9z"/>
<path d="M8210 81 c0 -10 26 -9 36 2 4 4 -2 7 -14 7 -12 0 -22 -4 -22 -9z"/>
<path d="M8264 81 c5 -8 56 -3 56 5 0 2 -14 4 -31 4 -16 0 -28 -4 -25 -9z"/>
<path d="M8330 81 c0 -10 26 -9 36 2 4 4 -2 7 -14 7 -12 0 -22 -4 -22 -9z"/>
<path d="M8384 81 c5 -8 56 -3 56 5 0 2 -14 4 -31 4 -16 0 -28 -4 -25 -9z"/>
<path d="M8450 81 c0 -10 26 -9 36 2 4 4 -2 7 -14 7 -12 0 -22 -4 -22 -9z"/>
<path d="M8504 81 c5 -8 56 -3 56 5 0 2 -14 4 -31 4 -16 0 -28 -4 -25 -9z"/>
<path d="M8570 81 c0 -10 26 -9 36 2 4 4 -2 7 -14 7 -12 0 -22 -4 -22 -9z"/>
<path d="M8624 81 c5 -8 56 -3 56 5 0 2 -14 4 -31 4 -16 0 -28 -4 -25 -9z"/>
<path d="M8690 81 c0 -10 26 -9 36 2 4 4 -2 7 -14 7 -12 0 -22 -4 -22 -9z"/>
<path d="M8744 81 c5 -8 56 -3 56 5 0 2 -14 4 -31 4 -16 0 -28 -4 -25 -9z"/>
<path d="M8810 81 c0 -10 26 -9 36 2 4 4 -2 7 -14 7 -12 0 -22 -4 -22 -9z"/>
<path d="M8864 81 c5 -8 56 -3 56 5 0 2 -14 4 -31 4 -16 0 -28 -4 -25 -9z"/>
<path d="M8930 81 c0 -10 26 -9 36 2 4 4 -2 7 -14 7 -12 0 -22 -4 -22 -9z"/>
<path d="M8984 81 c5 -8 56 -3 56 5 0 2 -14 4 -31 4 -16 0 -28 -4 -25 -9z"/>
<path d="M9050 81 c0 -10 26 -9 36 2 4 4 -2 7 -14 7 -12 0 -22 -4 -22 -9z"/>
<path d="M9104 81 c5 -8 56 -3 56 5 0 2 -14 4 -31 4 -16 0 -28 -4 -25 -9z"/>
<path d="M9170 81 c0 -10 26 -9 36 2 4 4 -2 7 -14 7 -12 0 -22 -4 -22 -9z"/>
<path d="M9224 81 c5 -8 56 -3 56 5 0 2 -14 4 -31 4 -16 0 -28 -4 -25 -9z"/>
<path d="M9290 81 c0 -10 26 -9 36 2 4 4 -2 7 -14 7 -12 0 -22 -4 -22 -9z"/>
</g>
</svg>
